<svg width="32" height="32" viewBox="0 0 32 32" fill="none" xmlns="http://www.w3.org/2000/svg">
<mask id="mask0_103_22088" style="mask-type:luminance" maskUnits="userSpaceOnUse" x="0" y="0" width="32" height="32">
<path d="M32 0H0V32H32V0Z" fill="white"/>
</mask>
<g mask="url(#mask0_103_22088)">
<path d="M31.625 16C31.625 7.37055 24.6294 0.375 16 0.375C7.37055 0.375 0.375 7.37055 0.375 16C0.375 24.6294 7.37055 31.625 16 31.625C24.6294 31.625 31.625 24.6294 31.625 16Z" fill="url(#paint0_linear_103_22088)"/>
<path d="M31.625 16C31.625 7.37055 24.6294 0.375 16 0.375C7.37055 0.375 0.375 7.37055 0.375 16C0.375 24.6294 7.37055 31.625 16 31.625C24.6294 31.625 31.625 24.6294 31.625 16Z" stroke="url(#paint1_linear_103_22088)" stroke-width="0.75"/>
<path d="M22.711 10.8785L22.6525 10.7922L22.5579 10.7485C21.411 10.2187 20.2003 9.84285 18.9565 9.63053L18.6944 9.58578L18.5654 9.81835C18.44 10.0446 18.3233 10.2755 18.2155 10.5107C17.0752 10.3625 15.9207 10.3625 14.7803 10.5107C14.6726 10.2756 14.5559 10.0446 14.4305 9.81842L14.3015 9.58545L14.039 9.63061C12.7946 9.84469 11.5833 10.2214 10.4355 10.7511L10.3398 10.7953L10.2811 10.8829C8.01 14.2732 7.39045 17.5917 7.69883 20.8567L7.7145 21.0225L7.84804 21.122C9.18236 22.1167 10.676 22.8733 12.264 23.3588L12.518 23.4365L12.6755 23.2227C13.0363 22.7331 13.3555 22.2138 13.6297 21.6703L13.7169 21.4974C14.6209 21.7486 15.5569 21.877 16.5 21.877C17.4421 21.877 18.377 21.7488 19.2801 21.4982L19.3675 21.6715C19.6415 22.215 19.9608 22.734 20.322 23.223L20.4793 23.4361L20.7328 23.359C22.3223 22.8754 23.8173 22.1191 25.152 21.1233L25.2852 21.0239L25.301 20.8584C25.663 17.071 24.6802 13.7835 22.711 10.8785ZM13.676 18.4875C13.0821 18.4875 12.52 17.9272 12.52 17.1505C12.52 16.3672 13.0639 15.8067 13.6733 15.8067C14.2888 15.8067 14.8427 16.373 14.8307 17.1446C14.8184 17.9348 14.2784 18.4875 13.676 18.4875ZM19.3239 18.4875C18.7293 18.4875 18.1693 17.9279 18.1693 17.1505C18.1693 16.3674 18.7129 15.8067 19.3239 15.8067C19.9394 15.8067 20.4893 16.3714 20.4773 17.1446C20.465 17.9352 19.926 18.4875 19.3239 18.4875Z" fill="url(#paint2_linear_103_22088)" stroke="url(#paint3_linear_103_22088)" stroke-width="0.75"/>
<path d="M13.676 18.8624C12.8376 18.8624 12.145 18.0948 12.145 17.1504C12.145 16.206 12.8136 15.4316 13.6733 15.4316C14.5331 15.4316 15.2204 16.206 15.2057 17.1504C15.1909 18.0948 14.5304 18.8624 13.676 18.8624ZM19.3239 18.8624C18.4842 18.8624 17.7943 18.0948 17.7943 17.1504C17.7943 16.206 18.4628 15.4316 19.3239 15.4316C20.185 15.4316 20.867 16.206 20.8523 17.1504C20.8375 18.0948 20.1784 18.8624 19.3239 18.8624Z" fill="white"/>
</g>
<defs>
<linearGradient id="paint0_linear_103_22088" x1="31.7037" y1="32" x2="-0.296307" y2="3.61703e-08" gradientUnits="userSpaceOnUse">
<stop stop-color="white" stop-opacity="0.15"/>
<stop offset="1" stop-opacity="0"/>
</linearGradient>
<linearGradient id="paint1_linear_103_22088" x1="31.7037" y1="1.54362e-07" x2="16" y2="32" gradientUnits="userSpaceOnUse">
<stop stop-color="white" stop-opacity="0.3"/>
<stop offset="1" stop-color="white" stop-opacity="0"/>
</linearGradient>
<linearGradient id="paint2_linear_103_22088" x1="35.9286" y1="1.61402" x2="15.4441" y2="25.6251" gradientUnits="userSpaceOnUse">
<stop stop-color="white" stop-opacity="0"/>
<stop offset="0.333333" stop-color="white" stop-opacity="0"/>
<stop offset="0.666667" stop-color="white" stop-opacity="0"/>
<stop offset="1" stop-color="white" stop-opacity="0.3"/>
</linearGradient>
<linearGradient id="paint3_linear_103_22088" x1="25.2834" y1="10.2169" x2="12.7375" y2="26.623" gradientUnits="userSpaceOnUse">
<stop stop-color="white"/>
<stop offset="1" stop-color="white" stop-opacity="0.6"/>
</linearGradient>
</defs>
</svg>
