<svg width="32" height="33" viewBox="0 0 32 33" fill="none" xmlns="http://www.w3.org/2000/svg">
<g clip-path="url(#clip0_3_2976)">
<path d="M31.625 16.4399C31.625 7.81049 24.6294 0.814941 16 0.814941C7.37055 0.814941 0.375 7.81049 0.375 16.4399C0.375 25.0694 7.37055 32.0649 16 32.0649C24.6294 32.0649 31.625 25.0694 31.625 16.4399Z" fill="url(#paint0_linear_3_2976)"/>
<path d="M24.5959 12.1372C24.4502 12.2017 24.3015 12.2608 24.1502 12.3141C24.3663 12.0143 24.5383 11.6803 24.6563 11.3217C24.7681 10.9817 24.399 10.6911 24.0955 10.8695C23.5581 11.1854 22.9694 11.423 22.3451 11.5663C21.6896 10.9464 20.8024 10.5649 19.828 10.5649C17.8085 10.5649 16.1706 12.2023 16.1706 14.2226C16.1706 14.3363 16.1759 14.4487 16.186 14.5596C13.7622 14.3124 11.6259 13.101 10.1634 11.3138C9.99403 11.1068 9.66691 11.1302 9.53159 11.3659C9.22271 11.904 9.0451 12.5271 9.0451 13.1899C9.0451 13.9457 9.27466 14.6489 9.6675 15.2323C9.64096 15.2188 9.61466 15.2048 9.58861 15.1906C9.33317 15.0504 9.01832 15.2341 9.01832 15.5281V15.5534C9.01832 16.7424 9.58578 17.7988 10.4649 18.4667C10.2597 18.5182 10.1199 18.737 10.1928 18.96C10.5618 20.091 11.4683 20.9805 12.6113 21.3257C11.703 21.8417 10.6528 22.1362 9.53355 22.1362C9.2972 22.1362 9.06397 22.1232 8.83439 22.0977C8.437 22.0536 8.23413 22.5823 8.5855 22.8054C10.0888 23.7599 11.8698 24.3149 13.7813 24.3149C20.0703 24.3149 23.4965 19.101 23.4965 14.603C23.4965 14.5229 23.4954 14.4424 23.4934 14.3622C24.1025 13.8946 24.6339 13.3281 25.0604 12.6895L24.7486 12.4813L25.0621 12.687C25.2673 12.3744 24.9392 11.9853 24.5959 12.1372Z" fill="url(#paint1_linear_3_2976)" stroke="url(#paint2_linear_3_2976)" stroke-width="0.75"/>
<path d="M31.625 16.4399C31.625 7.81049 24.6294 0.814941 16 0.814941C7.37055 0.814941 0.375 7.81049 0.375 16.4399C0.375 25.0694 7.37055 32.0649 16 32.0649C24.6294 32.0649 31.625 25.0694 31.625 16.4399Z" stroke="url(#paint3_linear_3_2976)" stroke-width="0.75"/>
</g>
<defs>
<linearGradient id="paint0_linear_3_2976" x1="31.7037" y1="32.4399" x2="-0.296307" y2="0.439941" gradientUnits="userSpaceOnUse">
<stop stop-color="white" stop-opacity="0.15"/>
<stop offset="1" stop-opacity="0"/>
</linearGradient>
<linearGradient id="paint1_linear_3_2976" x1="35.0357" y1="2.55378" x2="14.392" y2="25.3281" gradientUnits="userSpaceOnUse">
<stop stop-color="white" stop-opacity="0"/>
<stop offset="0.333333" stop-color="white" stop-opacity="0"/>
<stop offset="0.666667" stop-color="white" stop-opacity="0"/>
<stop offset="1" stop-color="white" stop-opacity="0.3"/>
</linearGradient>
<linearGradient id="paint2_linear_3_2976" x1="25.0167" y1="11.1566" x2="12.292" y2="26.8178" gradientUnits="userSpaceOnUse">
<stop stop-color="white"/>
<stop offset="1" stop-color="white" stop-opacity="0.6"/>
</linearGradient>
<linearGradient id="paint3_linear_3_2976" x1="31.7037" y1="0.439942" x2="16" y2="32.4399" gradientUnits="userSpaceOnUse">
<stop stop-color="white" stop-opacity="0.3"/>
<stop offset="1" stop-color="white" stop-opacity="0"/>
</linearGradient>
<clipPath id="clip0_3_2976">
<rect width="32" height="32" fill="white" transform="translate(0 0.439941)"/>
</clipPath>
</defs>
</svg>
