<svg width="21" height="21" viewBox="0 0 21 21" fill="none" xmlns="http://www.w3.org/2000/svg">
<path d="M4.79497 10.065C5.2283 8.96499 5.7493 7.90666 6.35797 6.88999C6.96664 5.87332 7.65397 4.91499 8.41997 4.01499L7.11997 3.73999C6.78664 3.67332 6.46164 3.68999 6.14497 3.78999C5.8283 3.88999 5.5533 4.05666 5.31997 4.28999L2.16997 7.43999C1.91997 7.68999 1.82397 7.98999 1.88197 8.33999C1.93997 8.68999 2.13597 8.93166 2.46997 9.06499L4.79497 10.065ZM19.495 0.314989C17.7283 0.231656 16.0493 0.573323 14.458 1.33999C12.8666 2.10666 11.4456 3.11499 10.195 4.36499C9.39497 5.16499 8.69064 6.03166 8.08197 6.96499C7.4733 7.89832 6.94464 8.88166 6.49597 9.91499C6.41264 10.1317 6.37097 10.3527 6.37097 10.578C6.37097 10.8033 6.4543 10.999 6.62097 11.165L9.74597 14.29C9.91264 14.4567 10.1086 14.54 10.334 14.54C10.5593 14.54 10.78 14.4983 10.996 14.415C12.0293 13.965 13.0126 13.4357 13.946 12.827C14.8793 12.2183 15.746 11.5143 16.546 10.715C17.796 9.46499 18.8043 8.04432 19.571 6.45299C20.3376 4.86166 20.679 3.18232 20.595 1.41499C20.595 1.28166 20.5616 1.14832 20.495 1.01499C20.4283 0.881656 20.345 0.764989 20.245 0.664989C20.145 0.564989 20.0283 0.481656 19.895 0.414989C19.7616 0.348323 19.6283 0.314989 19.495 0.314989ZM13.145 7.76499C12.7616 7.38166 12.57 6.91099 12.57 6.35299C12.57 5.79499 12.7616 5.32399 13.145 4.93999C13.5283 4.55599 13.9993 4.36432 14.558 4.36499C15.1166 4.36566 15.5873 4.55732 15.97 4.93999C16.3526 5.32266 16.5443 5.79366 16.545 6.35299C16.5456 6.91232 16.354 7.38299 15.97 7.76499C15.586 8.14699 15.1153 8.33866 14.558 8.33999C14.0006 8.34132 13.5296 8.14966 13.145 7.76499ZM10.845 16.115L11.845 18.44C11.9783 18.7733 12.22 18.9733 12.57 19.04C12.92 19.1067 13.22 19.015 13.47 18.765L16.62 15.615C16.8533 15.3817 17.02 15.1027 17.12 14.778C17.22 14.4533 17.2366 14.124 17.17 13.79L16.92 12.49C16.0033 13.2567 15.041 13.9443 14.033 14.553C13.025 15.1617 11.9623 15.6823 10.845 16.115ZM2.71997 13.965C3.3033 13.3817 4.01164 13.0857 4.84497 13.077C5.6783 13.0683 6.38664 13.356 6.96997 13.94C7.5533 14.524 7.84497 15.2323 7.84497 16.065C7.84497 16.8977 7.5533 17.606 6.96997 18.19C6.16997 18.99 5.22397 19.465 4.13197 19.615C3.03997 19.765 1.9443 19.915 0.844971 20.065C0.994971 18.965 1.1493 17.8693 1.30797 16.778C1.46664 15.6867 1.9373 14.749 2.71997 13.965Z" fill="#F00001"/>
</svg>
