<svg width="22" height="20" viewBox="0 0 22 20" fill="none" xmlns="http://www.w3.org/2000/svg">
<path d="M18.3829 8.04314L18.1369 8.60914C18.0985 8.70131 18.0336 8.78004 17.9505 8.83542C17.8674 8.89079 17.7698 8.92034 17.6699 8.92034C17.5701 8.92034 17.4724 8.89079 17.3893 8.83542C17.3062 8.78004 17.2414 8.70131 17.2029 8.60914L16.9569 8.04314C16.5244 7.04187 15.7323 6.23906 14.7369 5.79314L13.9779 5.45414C13.8858 5.41179 13.8078 5.34391 13.7532 5.25857C13.6985 5.17323 13.6694 5.074 13.6694 4.97264C13.6694 4.87129 13.6985 4.77206 13.7532 4.68671C13.8078 4.60137 13.8858 4.5335 13.9779 4.49114L14.6949 4.17214C15.7153 3.71352 16.521 2.88102 16.9459 1.84614L17.1989 1.23514C17.2361 1.1405 17.3009 1.05924 17.3849 1.00197C17.4689 0.944696 17.5682 0.914063 17.6699 0.914062C17.7716 0.914062 17.8709 0.944696 17.9549 1.00197C18.039 1.05924 18.1038 1.1405 18.1409 1.23514L18.3939 1.84514C18.8184 2.88022 19.6237 3.71308 20.6439 4.17214L21.3619 4.49214C21.4537 4.53462 21.5315 4.60249 21.5859 4.68772C21.6404 4.77295 21.6693 4.87199 21.6693 4.97314C21.6693 5.0743 21.6404 5.17334 21.5859 5.25857C21.5315 5.3438 21.4537 5.41166 21.3619 5.45414L20.6019 5.79214C19.6067 6.23851 18.815 7.04167 18.3829 8.04314ZM4.66992 3.91514C4.13949 3.91514 3.63078 4.12586 3.25571 4.50093C2.88064 4.876 2.66992 5.38471 2.66992 5.91514V15.9151C2.66992 16.4456 2.88064 16.9543 3.25571 17.3294C3.63078 17.7044 4.13949 17.9151 4.66992 17.9151H16.6699C17.2004 17.9151 17.7091 17.7044 18.0841 17.3294C18.4592 16.9543 18.6699 16.4456 18.6699 15.9151V10.9151H20.6699V15.9151C20.6699 16.976 20.2485 17.9934 19.4983 18.7436C18.7482 19.4937 17.7308 19.9151 16.6699 19.9151H4.66992C3.60906 19.9151 2.59164 19.4937 1.84149 18.7436C1.09135 17.9934 0.669922 16.976 0.669922 15.9151V5.91514C0.669922 4.85428 1.09135 3.83686 1.84149 3.08672C2.59164 2.33657 3.60906 1.91514 4.66992 1.91514H11.6699V3.91514H4.66992Z" fill="#F00001"/>
</svg>
