<svg width="25" height="25" viewBox="0 0 25 25" fill="none" xmlns="http://www.w3.org/2000/svg">
<g clip-path="url(#clip0_89_19662)">
<g clip-path="url(#clip1_89_19662)">
<path d="M2.66968 7.4148C2.66968 6.82385 2.78607 6.23869 3.01222 5.69272C3.23837 5.14676 3.56983 4.65068 3.9877 4.23282C4.40556 3.81495 4.90164 3.48349 5.4476 3.25734C5.99357 3.03119 6.57873 2.9148 7.16968 2.9148C7.76063 2.9148 8.34579 3.03119 8.89175 3.25734C9.43772 3.48349 9.93379 3.81495 10.3517 4.23282C10.7695 4.65068 11.101 5.14676 11.3271 5.69272C11.5533 6.23869 11.6697 6.82385 11.6697 7.4148V10.4148C11.6697 10.7637 11.6697 10.9377 11.6311 11.0808C11.5802 11.2717 11.4798 11.4458 11.3402 11.5856C11.2005 11.7254 11.0265 11.8259 10.8357 11.8771C10.6925 11.9148 10.5185 11.9148 10.1697 11.9148H7.16968C5.9762 11.9148 4.83161 11.4407 3.9877 10.5968C3.14378 9.75286 2.66968 8.60827 2.66968 7.4148ZM13.6694 15.4154C13.6694 15.0665 13.6694 14.8925 13.708 14.7485C13.8117 14.3611 14.1151 14.0577 14.5034 13.9531C14.6465 13.9154 14.8205 13.9154 15.1694 13.9154H18.1694C19.0594 13.9154 19.9294 14.1793 20.6695 14.6738C21.4095 15.1682 21.9863 15.871 22.3268 16.6933C22.6674 17.5156 22.7566 18.4204 22.5829 19.2933C22.4093 20.1662 21.9807 20.968 21.3514 21.5973C20.722 22.2267 19.9202 22.6553 19.0473 22.8289C18.1744 23.0025 17.2696 22.9134 16.4473 22.5728C15.625 22.2322 14.9222 21.6555 14.4278 20.9154C13.9333 20.1754 13.6694 19.3054 13.6694 18.4154V15.4154ZM2.66968 18.4154C2.66968 15.9297 4.68396 13.9154 7.16968 13.9154H9.86968C10.4997 13.9154 10.8151 13.9154 11.0551 14.0379C11.2668 14.1451 11.4391 14.3174 11.5471 14.5291C11.6697 14.7699 11.6697 15.0854 11.6697 15.7154V18.4154C11.6697 19.0063 11.5533 19.5915 11.3271 20.1374C11.101 20.6834 10.7695 21.1795 10.3517 21.5973C9.93379 22.0152 9.43772 22.3467 8.89175 22.5728C8.34579 22.799 7.76063 22.9154 7.16968 22.9154C6.57873 22.9154 5.99357 22.799 5.4476 22.5728C4.90164 22.3467 4.40556 22.0152 3.9877 21.5973C3.56983 21.1795 3.23837 20.6834 3.01222 20.1374C2.78607 19.5915 2.66968 19.0063 2.66968 18.4154ZM13.6694 7.4148C13.6694 6.52478 13.9333 5.65475 14.4278 4.91473C14.9222 4.17471 15.625 3.59793 16.4473 3.25734C17.2696 2.91674 18.1744 2.82763 19.0473 3.00126C19.9202 3.1749 20.722 3.60348 21.3514 4.23282C21.9807 4.86215 22.4093 5.66398 22.5829 6.53689C22.7566 7.4098 22.6674 8.3146 22.3268 9.13687C21.9863 9.95914 21.4095 10.6619 20.6695 11.1564C19.9294 11.6509 19.0594 11.9148 18.1694 11.9148H14.9551C14.806 11.9148 14.7323 11.9148 14.6688 11.9079C14.4157 11.8793 14.1797 11.7656 13.9996 11.5855C13.8195 11.4053 13.7058 11.1694 13.6771 10.9162C13.6694 10.8537 13.6694 10.7791 13.6694 10.6291V7.4148Z" fill="#F00001"/>
</g>
</g>
<defs>
<clipPath id="clip0_89_19662">
<rect width="24" height="24" fill="white" transform="translate(0.669922 0.915039)"/>
</clipPath>
<clipPath id="clip1_89_19662">
<rect width="24" height="24" fill="white" transform="translate(0.669922 0.915039)"/>
</clipPath>
</defs>
</svg>
