<svg width="25" height="25" viewBox="0 0 25 25" fill="none" xmlns="http://www.w3.org/2000/svg">
<path d="M13.3403 19.2183C12.7403 19.1137 12.7403 18.2497 13.3403 18.1452C14.4017 17.9598 15.3845 17.4641 16.1644 16.7205C16.9442 15.9769 17.4863 15.0189 17.722 13.9675L17.7631 13.7789C17.8934 13.184 18.7403 13.1806 18.8757 13.7737L18.9271 14.0017C19.1719 15.0462 19.7185 15.9956 20.4988 16.7317C21.2792 17.4678 22.2588 17.9582 23.3157 18.1417C23.9208 18.248 23.9208 19.1155 23.3157 19.2217C22.2527 19.4062 21.2681 19.901 20.4857 20.6437C19.7032 21.3865 19.158 22.3441 18.9185 23.396L18.8757 23.588C18.7385 24.1829 17.8934 24.1777 17.7614 23.5846L17.7271 23.4183C17.495 22.3621 16.9539 21.3987 16.1727 20.6508C15.3916 19.9029 14.4056 19.4043 13.3403 19.2183Z" stroke="#F00001" stroke-width="1.71429" stroke-linecap="round" stroke-linejoin="round"/>
<path d="M13.3403 19.2183C12.7403 19.1137 12.7403 18.2497 13.3403 18.1452C14.4017 17.9598 15.3845 17.4641 16.1644 16.7205C16.9442 15.9769 17.4863 15.0189 17.722 13.9675L17.7631 13.7789C17.8934 13.184 18.7403 13.1806 18.8757 13.7737L18.9271 14.0017C19.1719 15.0462 19.7185 15.9956 20.4988 16.7317C21.2792 17.4678 22.2588 17.9582 23.3157 18.1417C23.9208 18.248 23.9208 19.1155 23.3157 19.2217C22.2527 19.4062 21.2681 19.901 20.4857 20.6437C19.7032 21.3865 19.158 22.3441 18.9185 23.396L18.8757 23.588C18.7385 24.1829 17.8934 24.1777 17.7614 23.5846L17.7271 23.4183C17.495 22.3621 16.9539 21.3987 16.1727 20.6508C15.3916 19.9029 14.4056 19.4043 13.3403 19.2183Z" fill="#F00001"/>
<path fill-rule="evenodd" clip-rule="evenodd" d="M0.71283 15.9972C0.71283 17.6155 2.02426 18.9252 3.64083 18.9252H9.89797C9.82781 17.994 10.1222 17.072 10.7191 16.3538H3.71283C3.59917 16.3538 3.49016 16.3087 3.40978 16.2283C3.32941 16.1479 3.28426 16.0389 3.28426 15.9252V10.9264L3.63226 10.8647C5.27049 10.5707 6.95815 10.7369 8.50764 11.3446C10.0571 11.9522 11.4078 12.9777 12.4094 14.307L13.0403 15.1418C13.4716 15.0273 13.8631 14.7965 14.1721 14.4745C14.4811 14.1525 14.6956 13.7518 14.7923 13.3161L14.8317 13.1378C15.3374 10.8321 17.5625 9.9441 19.3848 10.4841V3.86867C19.3848 2.2521 18.0734 0.940674 16.4568 0.940674H3.64083C2.02426 0.940674 0.71283 2.2521 0.71283 3.86867V15.9972ZM14.182 8.68582C14.8053 8.68582 15.4031 8.4382 15.8439 7.99743C16.2846 7.55667 16.5323 6.95886 16.5323 6.33553C16.5323 5.7122 16.2846 5.11439 15.8439 4.67363C15.4031 4.23286 14.8053 3.98525 14.182 3.98525C13.5586 3.98525 12.9608 4.23286 12.5201 4.67363C12.0793 5.11439 11.8317 5.7122 11.8317 6.33553C11.8317 6.95886 12.0793 7.55667 12.5201 7.99743C12.9608 8.4382 13.5586 8.68582 14.182 8.68582Z" fill="#F00001"/>
</svg>
