<svg width="185" height="25" viewBox="0 0 185 25" fill="none" xmlns="http://www.w3.org/2000/svg">
<path d="M51.8252 8.78906C51.8252 7.69531 51.3877 6.83854 50.5127 6.21875C49.6377 5.59896 48.8082 5.28906 48.0244 5.28906C47.5322 5.28906 47.0947 5.28906 46.7119 5.28906C46.3473 5.28906 46.0283 5.28906 45.7548 5.28906C44.6793 5.28906 44.1324 5.28906 44.1142 5.28906C44.0778 5.28906 43.7314 5.28906 43.0752 5.28906C43.0752 6.82031 43.0752 9.10807 43.0752 12.1523C43.0752 12.6628 43.0752 13.4102 43.0752 14.3945C43.0752 16.418 43.0752 19.4531 43.0752 23.5C42.583 23.0078 41.8356 22.2604 40.833 21.2578C40.833 19.7448 40.833 17.4661 40.833 14.4219C40.833 11.9062 40.833 8.11458 40.833 3.04688C41.5986 3.04688 42.027 3.04688 42.1181 3.04688C42.2275 3.04688 42.6285 3.04688 43.3213 3.04688C43.4853 3.04688 43.6858 3.04688 43.9228 3.04688C44.1598 3.04688 44.4332 3.04688 44.7431 3.04688C45.1442 3.04688 45.609 3.04688 46.1377 3.04688C46.6845 3.04688 47.3134 3.04688 48.0244 3.04688C48.5166 3.04688 49.0179 3.11979 49.5283 3.26562C50.0387 3.39323 50.5309 3.59375 51.0048 3.86719C51.8616 4.34115 52.5908 5.00651 53.1923 5.86328C53.7757 6.72005 54.0673 7.69531 54.0673 8.78906C54.0673 9.8099 53.8577 10.694 53.4384 11.4414C53.0192 12.207 52.4632 12.8177 51.7705 13.2734C52.4632 13.7474 53.0192 14.3581 53.4384 15.1055C53.8577 15.8529 54.0673 16.7461 54.0673 17.7852C54.0673 18.3685 53.9762 18.9245 53.7939 19.4531C53.6116 19.9635 53.3564 20.4375 53.0283 20.875C52.4267 21.6771 51.6611 22.3151 50.7314 22.7891C49.8017 23.263 48.8994 23.5 48.0244 23.5C48.0244 22.388 48.0244 21.832 48.0244 21.832C48.0244 21.832 48.0244 21.6406 48.0244 21.2578C48.8082 21.2578 49.6377 20.9479 50.5127 20.3281C51.3877 19.7083 51.8252 18.8607 51.8252 17.7852C51.8252 16.9648 51.6338 16.3268 51.2509 15.8711C50.8681 15.3971 50.4215 15.0508 49.9111 14.832C49.6377 14.7044 49.3642 14.6042 49.0908 14.5312C48.8173 14.4766 48.5621 14.431 48.3252 14.3945C48.3252 13.2826 48.3252 12.7266 48.3252 12.7266C48.3252 12.7266 48.3252 12.5352 48.3252 12.1523C48.6533 12.1523 49.0999 12.0521 49.665 11.8516C50.2119 11.651 50.6858 11.3138 51.0869 10.8398C51.3056 10.5846 51.4879 10.2839 51.6338 9.9375C51.7614 9.60938 51.8252 9.22656 51.8252 8.78906ZM56.4747 21.2578C56.4747 20.2734 56.4747 18.7878 56.4747 16.8008C56.4747 15.6159 56.7664 14.5221 57.3497 13.5195C57.933 12.5169 58.6986 11.7148 59.6466 11.1133C60.157 10.8034 60.7039 10.5573 61.2872 10.375C61.8888 10.2109 62.5085 10.1289 63.1466 10.1289C63.6023 10.1289 63.9942 10.1289 64.3223 10.1289C64.6505 10.1289 64.933 10.1289 65.17 10.1289C66.1361 10.1289 66.6283 10.1289 66.6466 10.1289C66.683 10.1289 66.9929 10.1289 67.5763 10.1289C68.0684 10.6211 68.8158 11.3685 69.8184 12.3711C69.1075 12.3711 68.7065 12.3711 68.6153 12.3711C68.5242 12.3711 68.1596 12.3711 67.5216 12.3711C67.3575 12.3711 67.1661 12.3711 66.9473 12.3711C66.7286 12.3711 66.4734 12.3711 66.1817 12.3711C65.8171 12.3711 65.3888 12.3711 64.8966 12.3711C64.4044 12.3711 63.821 12.3711 63.1466 12.3711C61.9252 12.3711 60.8861 12.8086 60.0294 13.6836C59.1726 14.5404 58.7442 15.5794 58.7442 16.8008C58.7442 18.2956 58.7442 20.5286 58.7442 23.5C58.2338 23.0078 57.4773 22.2604 56.4747 21.2578ZM77.968 21.2578C77.968 21.6224 77.968 21.8047 77.968 21.8047C77.968 21.8047 77.968 22.3698 77.968 23.5C76.7648 23.5 75.662 23.2083 74.6594 22.625C73.675 22.0599 72.882 21.3034 72.2805 20.3555C71.9706 19.8451 71.7245 19.2891 71.5422 18.6875C71.3781 18.1042 71.2961 17.4844 71.2961 16.8281C71.2961 16.1901 71.3781 15.5703 71.5422 14.9688C71.7245 14.3854 71.9706 13.8385 72.2805 13.3281C72.882 12.3802 73.675 11.6146 74.6594 11.0312C75.662 10.4479 76.7648 10.1562 77.968 10.1562C79.1711 10.1562 80.274 10.4479 81.2766 11.0312C82.2792 11.6146 83.0721 12.3802 83.6555 13.3281C83.9836 13.8385 84.2297 14.3854 84.3938 14.9688C84.576 15.5703 84.6672 16.1901 84.6672 16.8281C84.6672 17.8125 84.6672 19.2891 84.6672 21.2578C84.1568 21.75 83.4094 22.4974 82.425 23.5C82.425 22.7891 82.425 22.388 82.425 22.2969C82.425 22.2057 82.425 21.8411 82.425 21.2031C82.425 21.0391 82.425 20.8477 82.425 20.6289C82.425 20.4102 82.425 20.1549 82.425 19.8633C82.425 19.4987 82.425 19.0703 82.425 18.5781C82.425 18.0859 82.425 17.5026 82.425 16.8281C82.425 15.6068 81.9875 14.5677 81.1125 13.7109C80.2375 12.8359 79.1893 12.3984 77.968 12.3984C76.7284 12.3984 75.6802 12.8359 74.8234 13.7109C73.9667 14.5677 73.5383 15.6068 73.5383 16.8281C73.5383 17.2656 73.6112 17.6758 73.757 18.0586C73.9211 18.4596 74.1307 18.8333 74.3859 19.1797C74.8599 19.7995 75.4341 20.3008 76.1086 20.6836C76.8013 21.0664 77.4211 21.2578 77.968 21.2578ZM86.9378 6.68359C86.9378 6.99349 87.0472 7.25781 87.2659 7.47656C87.4847 7.69531 87.749 7.80469 88.0589 7.80469C88.3688 7.80469 88.6331 7.69531 88.8519 7.47656C89.0706 7.25781 89.18 6.99349 89.18 6.68359C89.18 6.3737 89.0706 6.10938 88.8519 5.89062C88.6331 5.67188 88.3688 5.5625 88.0589 5.5625C87.749 5.5625 87.4847 5.67188 87.2659 5.89062C87.0472 6.10938 86.9378 6.3737 86.9378 6.68359ZM89.1253 23.5C88.7425 23.5 88.1501 23.5 87.348 23.5C87.2568 23.5 87.1019 23.5 86.8831 23.5C86.8831 22.2604 86.8831 20.401 86.8831 17.9219C86.8831 16.6823 86.8831 14.8229 86.8831 12.3438C87.3753 11.8333 88.1227 11.0859 89.1253 10.1016C89.1253 13.0729 89.1253 17.5391 89.1253 23.5ZM91.4233 23.5C91.4233 22.9531 91.4233 22.1237 91.4233 21.0117C91.4233 20.082 91.4233 18.6875 91.4233 16.8281C91.4233 15.6432 91.7149 14.5495 92.2983 13.5469C92.8816 12.5443 93.6472 11.7513 94.5952 11.168C95.1056 10.8581 95.6524 10.612 96.2358 10.4297C96.8373 10.2474 97.4663 10.1562 98.1225 10.1562C98.7605 10.1562 99.3803 10.2474 99.9819 10.4297C100.565 10.612 101.112 10.8581 101.623 11.168C102.589 11.7513 103.354 12.5443 103.919 13.5469C104.503 14.5495 104.794 15.6432 104.794 16.8281C104.794 17.5026 104.794 18.0859 104.794 18.5781C104.794 19.0703 104.794 19.4987 104.794 19.8633C104.794 20.1549 104.794 20.4102 104.794 20.6289C104.794 20.8477 104.794 21.0391 104.794 21.2031C104.794 21.8411 104.794 22.2057 104.794 22.2969C104.794 22.388 104.794 22.7891 104.794 23.5C104.302 23.0078 103.555 22.2604 102.552 21.2578C102.552 20.2734 102.552 18.7969 102.552 16.8281C102.552 15.6068 102.115 14.5677 101.24 13.7109C100.383 12.8359 99.3439 12.3984 98.1225 12.3984C96.8829 12.3984 95.8256 12.8359 94.9506 13.7109C94.0939 14.5677 93.6655 15.6068 93.6655 16.8281C93.6655 17.2839 93.6655 17.6758 93.6655 18.0039C93.6655 18.332 93.6655 18.6146 93.6655 18.8516C93.6655 19.8177 93.6655 20.3099 93.6655 20.3281C93.6655 20.3646 93.6655 20.6745 93.6655 21.2578C93.1733 21.75 92.4259 22.4974 91.4233 23.5ZM118.221 9.71875C118.221 8.4974 117.793 7.44922 116.936 6.57422C116.079 5.71745 115.031 5.28906 113.792 5.28906C112.552 5.28906 111.504 5.71745 110.647 6.57422C109.772 7.43099 109.335 8.47005 109.335 9.69141C109.335 10.3477 109.335 11.0859 109.335 11.9062C109.335 12.7083 109.335 13.556 109.335 14.4492C109.335 16.0716 109.335 17.7122 109.335 19.3711C109.335 21.0299 109.335 22.3971 109.335 23.4727C109.335 23.4909 109.335 23.5 109.335 23.5C109.335 23.5 109.335 23.4909 109.335 23.4727C108.824 22.9805 108.077 22.2422 107.092 21.2578C107.092 20.2917 107.092 18.8516 107.092 16.9375C107.092 15.3333 107.092 12.918 107.092 9.69141C107.092 9.05339 107.183 8.44271 107.366 7.85938C107.53 7.25781 107.776 6.70182 108.104 6.19141C108.687 5.24349 109.48 4.47786 110.483 3.89453C111.486 3.32943 112.588 3.04688 113.792 3.04688C114.43 3.04688 115.049 3.12891 115.651 3.29297C116.234 3.47526 116.79 3.72135 117.319 4.03125C118.267 4.61458 119.023 5.40755 119.588 6.41016C120.172 7.41276 120.463 8.50651 120.463 9.69141C120.463 10.8945 120.172 11.9974 119.588 13C119.023 14.0208 118.267 14.8229 117.319 15.4062C116.79 15.7344 116.234 15.9896 115.651 16.1719C115.049 16.3359 114.43 16.418 113.792 16.418C113.792 15.2695 113.792 14.6953 113.792 14.6953C113.792 14.6953 113.792 14.5039 113.792 14.1211C114.904 14.1029 115.924 13.6745 116.854 12.8359C117.766 11.9792 118.221 10.9401 118.221 9.71875ZM129.461 21.2578C130.682 21.2578 131.73 20.8294 132.605 19.9727C133.462 19.1159 133.89 18.0677 133.89 16.8281C133.89 15.6068 133.462 14.5586 132.605 13.6836C131.73 12.8268 130.682 12.3984 129.461 12.3984C128.804 12.3984 128.221 12.3984 127.711 12.3984C127.218 12.3984 126.79 12.3984 126.425 12.3984C126.134 12.3984 125.879 12.3984 125.66 12.3984C125.441 12.3984 125.259 12.3984 125.113 12.3984C124.457 12.3984 124.083 12.3984 123.992 12.3984C123.901 12.3984 123.5 12.3984 122.789 12.3984C123.299 11.888 124.047 11.1406 125.031 10.1562C126.015 10.1562 127.492 10.1562 129.461 10.1562C130.117 10.1562 130.737 10.2383 131.32 10.4023C131.922 10.5846 132.478 10.8307 132.988 11.1406C133.936 11.7422 134.692 12.5352 135.257 13.5195C135.841 14.5221 136.132 15.625 136.132 16.8281C136.132 17.4844 136.041 18.1042 135.859 18.6875C135.695 19.2891 135.458 19.8451 135.148 20.3555C134.547 21.3034 133.754 22.069 132.769 22.6523C131.767 23.2357 130.664 23.5273 129.461 23.5273C128.276 23.5273 127.182 23.2357 126.179 22.6523C125.177 22.069 124.384 21.3034 123.8 20.3555C123.491 19.8451 123.244 19.2891 123.062 18.6875C122.88 18.1042 122.789 17.4844 122.789 16.8281C123.919 16.8281 124.484 16.8281 124.484 16.8281C124.484 16.8281 124.666 16.8281 125.031 16.8281C125.031 17.1198 125.095 17.4388 125.222 17.7852C125.332 18.1315 125.487 18.4779 125.687 18.8242C126.088 19.4622 126.617 20.0273 127.273 20.5195C127.929 21.0117 128.659 21.2578 129.461 21.2578ZM142.423 23.5C141.475 23.5 140.582 23.1263 139.743 22.3789C138.886 21.6497 138.458 20.6745 138.458 19.4531C138.458 17.3932 138.458 14.2852 138.458 10.1289C138.768 10.4206 138.932 10.5755 138.95 10.5938C138.95 10.612 139.196 10.8581 139.688 11.332C139.816 11.4596 139.962 11.6055 140.126 11.7695C140.29 11.9336 140.481 12.1341 140.7 12.3711C140.7 12.7904 140.7 13.1641 140.7 13.4922C140.7 13.8203 140.7 14.1029 140.7 14.3398C140.7 14.5951 140.7 14.8229 140.7 15.0234C140.7 15.2057 140.7 15.3789 140.7 15.543C140.7 16.1445 140.7 16.5638 140.7 16.8008C140.7 17.0195 140.7 17.5026 140.7 18.25C140.7 18.3958 140.7 18.569 140.7 18.7695C140.7 18.9883 140.7 19.2161 140.7 19.4531C140.7 20.0547 140.901 20.5013 141.302 20.793C141.684 21.1029 142.058 21.2578 142.423 21.2578C142.915 21.2578 143.307 21.0938 143.598 20.7656C143.89 20.4557 144.036 20.0182 144.036 19.4531C144.036 18.8516 144.036 18.2865 144.036 17.7578C144.036 17.2292 144.036 16.5547 144.036 15.7344C144.036 15.3151 144.036 14.832 144.036 14.2852C144.036 13.7383 144.036 13.1003 144.036 12.3711C144.401 12.3711 144.583 12.3711 144.583 12.3711C144.583 12.3711 145.148 12.3711 146.278 12.3711C146.278 13.0273 146.278 13.6107 146.278 14.1211C146.278 14.6497 146.269 15.3151 146.251 16.1172C146.251 16.5365 146.251 17.0195 146.251 17.5664C146.251 18.0951 146.251 18.724 146.251 19.4531C146.251 20.0182 146.397 20.4557 146.688 20.7656C146.98 21.0938 147.363 21.2578 147.837 21.2578C148.201 21.2578 148.584 21.1029 148.985 20.793C149.368 20.5013 149.559 20.0547 149.559 19.4531C149.578 19.1979 149.587 18.888 149.587 18.5234C149.587 18.1589 149.587 17.5208 149.587 16.6094C149.587 16.1172 149.578 15.5339 149.559 14.8594C149.559 14.1667 149.559 13.3372 149.559 12.3711C150.07 11.8607 150.817 11.1133 151.802 10.1289C151.802 11.1133 151.802 11.6693 151.802 11.7969C151.802 11.9427 151.802 12.4622 151.802 13.3555C151.802 13.5742 151.802 13.8294 151.802 14.1211C151.802 14.431 151.802 14.7956 151.802 15.2148C151.802 15.7253 151.802 16.3268 151.802 17.0195C151.802 17.7122 151.802 18.5234 151.802 19.4531C151.802 20.6745 151.382 21.6497 150.544 22.3789C149.705 23.1263 148.803 23.5 147.837 23.5C147.308 23.5 146.807 23.3997 146.333 23.1992C145.877 23.0169 145.476 22.7435 145.13 22.3789C144.802 22.7435 144.401 23.0169 143.927 23.1992C143.471 23.3997 142.97 23.5 142.423 23.5ZM158.557 17.9219C159.067 17.4297 159.814 16.6823 160.799 15.6797C161.109 15.6797 161.665 15.6797 162.467 15.6797C163.269 15.6797 164.135 15.6797 165.064 15.6797C164.809 14.7318 164.29 13.9388 163.506 13.3008C162.722 12.681 161.81 12.3711 160.771 12.3711C159.55 12.3711 158.511 12.7995 157.654 13.6562C156.797 14.513 156.369 15.5612 156.369 16.8008C156.369 18.0404 156.797 19.0885 157.654 19.9453C158.511 20.8203 159.55 21.2578 160.771 21.2578C162.266 21.2578 164.49 21.2578 167.443 21.2578C166.951 21.75 166.204 22.4974 165.201 23.5C164.618 23.5 164.317 23.5 164.299 23.5C164.262 23.5 163.761 23.5 162.795 23.5C162.558 23.5 162.275 23.5 161.947 23.5C161.619 23.5 161.227 23.5 160.771 23.5C159.587 23.5 158.493 23.2083 157.49 22.625C156.488 22.0417 155.695 21.276 155.111 20.3281C154.801 19.8177 154.555 19.2617 154.373 18.6602C154.209 18.0768 154.127 17.457 154.127 16.8008C154.127 15.5977 154.409 14.5039 154.975 13.5195C155.558 12.5169 156.323 11.7148 157.271 11.1133C157.782 10.8034 158.338 10.5573 158.939 10.375C159.523 10.2109 160.133 10.1289 160.771 10.1289C161.938 10.1289 163.023 10.4023 164.025 10.9492C165.01 11.4961 165.803 12.2344 166.404 13.1641C166.732 13.638 166.988 14.1667 167.17 14.75C167.37 15.3151 167.48 15.9167 167.498 16.5547C167.516 16.7005 167.525 16.8464 167.525 16.9922C167.525 17.0833 167.516 17.1654 167.498 17.2383C167.498 17.4753 167.489 17.7031 167.471 17.9219C165.484 17.9219 162.512 17.9219 158.557 17.9219ZM169.878 21.2578C169.878 20.2734 169.878 18.7878 169.878 16.8008C169.878 15.6159 170.17 14.5221 170.753 13.5195C171.336 12.5169 172.102 11.7148 173.05 11.1133C173.56 10.8034 174.107 10.5573 174.69 10.375C175.292 10.2109 175.912 10.1289 176.55 10.1289C177.006 10.1289 177.397 10.1289 177.726 10.1289C178.054 10.1289 178.336 10.1289 178.573 10.1289C179.539 10.1289 180.032 10.1289 180.05 10.1289C180.086 10.1289 180.396 10.1289 180.98 10.1289C181.472 10.6211 182.219 11.3685 183.222 12.3711C182.511 12.3711 182.11 12.3711 182.019 12.3711C181.927 12.3711 181.563 12.3711 180.925 12.3711C180.761 12.3711 180.569 12.3711 180.351 12.3711C180.132 12.3711 179.877 12.3711 179.585 12.3711C179.22 12.3711 178.792 12.3711 178.3 12.3711C177.808 12.3711 177.224 12.3711 176.55 12.3711C175.328 12.3711 174.289 12.8086 173.433 13.6836C172.576 14.5404 172.147 15.5794 172.147 16.8008C172.147 18.2956 172.147 20.5286 172.147 23.5C171.637 23.0078 170.881 22.2604 169.878 21.2578Z" fill="url(#paint0_linear_2023_1567)"/>
<g clip-path="url(#clip0_2023_1567)">
<path d="M28.4719 17.9659C28.455 17.7619 28.4377 17.6069 28.4162 17.4622C28.3038 16.6884 28.0656 15.9329 27.7087 15.217C27.1683 14.1364 26.3843 13.1898 25.3785 12.404L24.9872 12.0984L25.4063 11.831C26.2756 11.2764 27.4457 10.2276 28.0829 8.38056L28.0838 8.37826L28.0869 8.36303L28.0944 8.34111C28.3692 7.53919 28.5008 6.69666 28.4852 5.83613C28.4602 4.27357 27.9653 3.08014 27.7487 2.63096L27.6774 2.50269C27.3391 1.97322 26.0919 0.275705 23.8935 0.0281593C23.7612 0.0147785 23.6147 0.00647315 23.6121 0.00647315C23.6109 0.00647315 23.5022 0.000244141 23.3239 0.000244141C22.9111 0.000244141 22.1072 0.0334655 21.3602 0.256095C20.4829 0.517021 19.0536 1.44468 17.9101 3.20241C17.9097 3.20311 17.9092 3.2038 17.9087 3.20449C17.8278 3.32676 17.7587 3.45573 17.6974 3.58861C17.3052 4.43968 16.9125 5.29098 16.5196 6.14204C16.0977 7.05632 15.6758 7.97037 15.2546 8.88488C14.8546 9.75164 13.1216 13.5096 13.1216 13.5096C13.2406 13.5105 13.3598 13.5116 13.4793 13.5128C14.123 13.5179 14.6742 13.5313 15.2069 13.5442L15.4532 13.5502C15.8092 13.5601 16.0215 13.5739 16.2087 13.5859C16.4445 13.6012 16.6311 13.6132 17.0254 13.6132L17.6666 13.6111L17.3636 14.2381C16.459 16.1108 15.5544 17.9834 14.6508 19.8482C14.2137 20.8097 13.6032 21.631 12.836 22.2902C12.6158 22.4787 12.3877 22.6508 12.1581 22.8016L12.1345 22.8173L12.1086 22.8291C11.6858 23.0201 11.2599 23.117 10.8426 23.117C10.8202 23.117 10.7987 23.1168 10.7732 23.1161C10.474 23.1055 10.0353 23.04 9.43292 22.9156H9.42287L9.37987 22.905C8.24106 22.6224 7.54591 21.8073 7.30118 21.4716C6.65885 20.6016 6.35849 19.4197 6.45502 18.1435C6.5719 16.6015 7.33881 15.5917 8.454 14.55L8.51992 14.4885C9.30577 13.7544 10.1185 12.9956 10.0598 11.9616C10.0061 11.0203 9.43269 10.6055 8.70692 10.0802C8.27519 9.76779 7.82851 9.44457 7.46831 8.97832C6.50131 7.72537 6.20632 6.02692 6.69812 4.54627C7.19669 3.03308 8.42946 2.09319 9.91514 2.09319C10.3445 2.09319 10.7809 2.17348 11.212 2.33151C11.8297 2.55691 12.5721 3.12374 13.1661 3.67467L14.0297 1.81265C13.3355 1.18283 12.5392 0.693971 11.7101 0.391287C11.3108 0.245713 10.6423 0.00232048 9.80434 0.00232048C9.64774 0.00232048 9.48996 0.0108565 9.33592 0.0279286C7.4295 0.242253 6.15957 1.64678 5.56843 2.46993L5.51724 2.53868L5.47821 2.62219C5.27205 3.04807 4.78773 4.20252 4.74028 5.7247C4.71246 6.56562 4.82723 7.40053 5.07944 8.19946C5.10024 8.26129 5.12105 8.32289 5.13951 8.38056C5.77763 10.2246 6.94916 11.275 7.81939 11.8314L8.23802 12.0991L7.84674 12.4043C6.82037 13.2048 5.99759 14.2132 5.46629 15.3227C5.12525 16.0229 4.89969 16.7683 4.79567 17.5384L4.79287 17.5619C4.77627 17.6925 4.76225 17.8281 4.75103 17.9626C4.61476 19.7898 5.06261 21.5085 6.01068 22.8009C6.37602 23.2944 7.40239 24.486 9.03556 24.8888C9.41703 24.9818 9.81907 24.9901 10.0351 24.9945L10.1143 24.9963C10.1912 24.9986 10.2672 24.9998 10.342 24.9998C11.5118 24.9998 12.4092 24.7243 12.6556 24.6401C14.8102 23.8996 16.068 21.2884 16.2045 20.9925L20.5832 11.5647C20.4813 11.5645 20.3792 11.5643 20.277 11.564C19.989 11.5634 19.7006 11.5627 19.4087 11.5627C18.6719 11.5569 16.6252 11.5228 16.6047 11.5225L16.0498 11.5133L16.2877 11.0184C17.3241 8.86366 18.3577 6.70588 19.3911 4.54834C19.59 4.10377 20.18 3.01901 21.3997 2.43902C22.1535 2.07912 22.9204 2.02536 23.3103 2.02536C23.4239 2.02536 23.5043 2.02975 23.5422 2.03182C23.617 2.03667 23.6642 2.04128 23.6981 2.04474L23.7283 2.04774C25.1181 2.2037 26.1117 3.01531 26.5262 4.33333C27.0902 6.12682 26.4467 8.462 25.0615 9.64967C24.8794 9.80608 24.6908 9.95212 24.5083 10.0931C23.8119 10.6313 23.2107 11.0962 23.1617 11.9581C23.1077 12.9079 23.7297 13.4588 24.4501 14.0965C24.5569 14.1911 24.6646 14.2864 24.7707 14.3837C25.9565 15.4699 26.6655 16.8049 26.7667 18.143C26.863 19.4193 26.5626 20.6012 25.9222 21.4689C25.6795 21.8027 24.9942 22.6099 23.8701 22.8953L23.8587 22.8983L23.847 22.9006C23.6319 22.9403 23.4218 22.9636 23.221 22.9696C23.1878 22.9705 23.1546 22.971 23.1215 22.971C22.0717 22.971 20.9586 22.5354 20.1859 22.0408L19.3603 23.6933C20.5437 24.5471 21.8274 24.997 23.0892 24.997C23.1474 24.997 23.2054 24.9961 23.2657 24.994C23.5616 24.9859 23.8584 24.9534 24.1431 24.8983L24.1918 24.8881C25.8315 24.4819 26.849 23.2947 27.2103 22.8028C28.1626 21.5055 28.6105 19.7868 28.4719 17.9659Z" fill="#F00001"/>
<path d="M27.4806 17.1429C29.6147 16.6001 31.1286 14.6945 31.1286 12.4846C31.1286 10.3335 29.6645 8.44032 27.5993 7.85548L27.9815 6.0433C30.9101 6.80878 33 9.4628 33 12.4843C33 15.588 30.8404 18.2586 27.8151 18.9636L27.4806 17.1429Z" fill="#F00001"/>
<path d="M5.18491 18.9639C2.15956 18.2588 0 15.5882 0 12.4846C0 9.46303 2.08991 6.80901 5.01849 6.04353L5.40066 7.85571C3.33576 8.44032 1.87136 10.3332 1.87136 12.4846C1.87136 14.6945 3.38532 16.6001 5.5194 17.1429L5.18491 18.9639Z" fill="#F00001"/>
</g>
<defs>
<linearGradient id="paint0_linear_2023_1567" x1="112.057" y1="17.5005" x2="112" y2="34" gradientUnits="userSpaceOnUse">
<stop offset="0.045"/>
<stop offset="0.9999"/>
<stop offset="1" stop-color="white"/>
</linearGradient>
<clipPath id="clip0_2023_1567">
<rect width="33" height="25" fill="white"/>
</clipPath>
</defs>
</svg>
