<svg width="185" height="25" viewBox="0 0 185 25" fill="none" xmlns="http://www.w3.org/2000/svg">
<g clip-path="url(#clip0_119_1551)">
<path d="M28.4719 17.9659C28.4551 17.7619 28.4378 17.6069 28.4163 17.4622C28.3039 16.6884 28.0657 15.9329 27.7087 15.217C27.1683 14.1364 26.3843 13.1898 25.3785 12.404L24.9873 12.0984L25.4064 11.831C26.2757 11.2764 27.4458 10.2276 28.083 8.38056L28.0839 8.37826L28.0869 8.36303L28.0944 8.34111C28.3693 7.53919 28.5009 6.69666 28.4852 5.83613C28.4602 4.27357 27.9654 3.08014 27.7487 2.63096L27.6774 2.50269C27.3392 1.97322 26.0919 0.275705 23.8936 0.0281593C23.7613 0.0147785 23.6147 0.00647315 23.6121 0.00647315C23.611 0.00647315 23.5023 0.000244141 23.3239 0.000244141C22.9111 0.000244141 22.1073 0.0334655 21.3603 0.256095C20.483 0.517021 19.0537 1.44468 17.9102 3.20241C17.9097 3.20311 17.9093 3.2038 17.9088 3.20449C17.8279 3.32676 17.7587 3.45573 17.6975 3.58861C17.3053 4.43968 16.9126 5.29098 16.5196 6.14204C16.0977 7.05632 15.6758 7.97037 15.2546 8.88488C14.8547 9.75164 13.1217 13.5096 13.1217 13.5096C13.2407 13.5105 13.3599 13.5117 13.4793 13.5128C14.1231 13.5179 14.6742 13.5313 15.2069 13.5442L15.4533 13.5502C15.8093 13.5601 16.0215 13.5739 16.2088 13.5859C16.4446 13.6012 16.6311 13.6132 17.0255 13.6132L17.6666 13.6111L17.3637 14.2381C16.4591 16.1108 15.5545 17.9834 14.6509 19.8482C14.2138 20.8097 13.6032 21.631 12.8361 22.2902C12.6159 22.4787 12.3877 22.6508 12.1582 22.8016L12.1346 22.8173L12.1087 22.8291C11.6858 23.0201 11.2599 23.117 10.8427 23.117C10.8203 23.117 10.7988 23.1168 10.7733 23.1161C10.4741 23.1055 10.0353 23.04 9.43299 22.9156H9.42294L9.37993 22.905C8.24112 22.6224 7.54597 21.8073 7.30124 21.4716C6.65891 20.6016 6.35855 19.4197 6.45509 18.1435C6.57196 16.6015 7.33887 15.5917 8.45407 14.55L8.51998 14.4885C9.30583 13.7544 10.1186 12.9956 10.0599 11.9615C10.0061 11.0203 9.43275 10.6055 8.70698 10.0802C8.27525 9.76779 7.82857 9.44457 7.46837 8.97832C6.50137 7.72537 6.20638 6.02692 6.69818 4.54627C7.19676 3.03308 8.42952 2.09319 9.9152 2.09319C10.3446 2.09319 10.781 2.17348 11.212 2.33151C11.8298 2.55691 12.5722 3.12374 13.1661 3.67467L14.0298 1.81265C13.3356 1.18283 12.5392 0.693971 11.7101 0.391287C11.3109 0.245713 10.6424 0.00232048 9.80441 0.00232048C9.6478 0.00232048 9.49002 0.0108565 9.33598 0.0279286C7.42956 0.242253 6.15963 1.64678 5.56849 2.46993L5.5173 2.53868L5.47827 2.62219C5.27211 3.04807 4.78779 4.20252 4.74034 5.7247C4.71252 6.56562 4.82729 7.40053 5.0795 8.19946C5.1003 8.26129 5.12111 8.32289 5.13957 8.38056C5.77769 10.2246 6.94922 11.275 7.81945 11.8314L8.23809 12.0991L7.8468 12.4043C6.82043 13.2048 5.99765 14.2132 5.46635 15.3227C5.12531 16.0229 4.89975 16.7683 4.79574 17.5384L4.79293 17.5619C4.77633 17.6925 4.76231 17.8281 4.75109 17.9626C4.61482 19.7898 5.06267 21.5085 6.01074 22.8009C6.37608 23.2944 7.40245 24.486 9.03562 24.8888C9.41709 24.9818 9.81913 24.9901 10.0351 24.9945L10.1144 24.9963C10.1913 24.9986 10.2672 24.9998 10.342 24.9998C11.5119 24.9998 12.4092 24.7243 12.6556 24.6401C14.8103 23.8996 16.068 21.2884 16.2046 20.9925L20.5833 11.5647C20.4814 11.5645 20.3792 11.5643 20.2771 11.564C19.9891 11.5634 19.7007 11.5627 19.4087 11.5627C18.672 11.5569 16.6253 11.5228 16.6047 11.5225L16.0498 11.5133L16.2878 11.0184C17.3242 8.86366 18.3578 6.70588 19.3912 4.54834C19.5901 4.10378 20.1801 3.01901 21.3998 2.43902C22.1536 2.07912 22.9205 2.02536 23.3104 2.02536C23.424 2.02536 23.5044 2.02975 23.5423 2.03182C23.6171 2.03667 23.6643 2.04128 23.6982 2.04474L23.7283 2.04774C25.1182 2.2037 26.1118 3.01531 26.5262 4.33333C27.0903 6.12682 26.4468 8.462 25.0616 9.64967C24.8795 9.80608 24.6909 9.95212 24.5083 10.0931C23.812 10.6313 23.2108 11.0962 23.1617 11.9581C23.1077 12.9079 23.7297 13.4588 24.4501 14.0965C24.5569 14.1911 24.6647 14.2864 24.7708 14.3837C25.9566 15.4699 26.6655 16.8049 26.7668 18.143C26.8631 19.4193 26.5627 20.6012 25.9222 21.4689C25.6796 21.8027 24.9943 22.6099 23.8702 22.8953L23.8587 22.8983L23.8471 22.9006C23.632 22.9403 23.4219 22.9636 23.2211 22.9696C23.1879 22.9705 23.1547 22.971 23.1215 22.971C22.0718 22.971 20.9587 22.5354 20.1859 22.0408L19.3603 23.6933C20.5438 24.5471 21.8275 24.997 23.0893 24.997C23.1475 24.997 23.2054 24.9961 23.2657 24.994C23.5617 24.9859 23.8585 24.9534 24.1432 24.8983L24.1918 24.8881C25.8315 24.4819 26.849 23.2947 27.2104 22.8028C28.1627 21.5055 28.6105 19.7868 28.4719 17.9659Z" fill="#F00001"/>
<path d="M27.4806 17.1429C29.6147 16.6001 31.1286 14.6945 31.1286 12.4846C31.1286 10.3335 29.6645 8.44032 27.5993 7.85548L27.9815 6.0433C30.9101 6.80878 33 9.4628 33 12.4843C33 15.588 30.8404 18.2586 27.8151 18.9636L27.4806 17.1429Z" fill="#F00001"/>
<path d="M5.18491 18.9639C2.15956 18.2588 0 15.5882 0 12.4846C0 9.46303 2.08991 6.80901 5.01849 6.04353L5.40066 7.85571C3.33576 8.44032 1.87136 10.3332 1.87136 12.4846C1.87136 14.6945 3.38532 16.6001 5.5194 17.1429L5.18491 18.9639Z" fill="#F00001"/>
</g>
<path d="M51.8252 8.28906C51.8252 7.19531 51.3877 6.33854 50.5127 5.71875C49.6377 5.09896 48.8082 4.78906 48.0244 4.78906C47.5322 4.78906 47.0947 4.78906 46.7119 4.78906C46.3473 4.78906 46.0283 4.78906 45.7548 4.78906C44.6793 4.78906 44.1324 4.78906 44.1142 4.78906C44.0778 4.78906 43.7314 4.78906 43.0752 4.78906C43.0752 6.32031 43.0752 8.60807 43.0752 11.6523C43.0752 12.1628 43.0752 12.9102 43.0752 13.8945C43.0752 15.918 43.0752 18.9531 43.0752 23C42.583 22.5078 41.8356 21.7604 40.833 20.7578C40.833 19.2448 40.833 16.9661 40.833 13.9219C40.833 11.4062 40.833 7.61458 40.833 2.54688C41.5986 2.54688 42.027 2.54688 42.1181 2.54688C42.2275 2.54688 42.6285 2.54688 43.3213 2.54688C43.4853 2.54688 43.6858 2.54688 43.9228 2.54688C44.1598 2.54688 44.4332 2.54688 44.7431 2.54688C45.1442 2.54688 45.609 2.54688 46.1377 2.54688C46.6845 2.54688 47.3134 2.54688 48.0244 2.54688C48.5166 2.54688 49.0179 2.61979 49.5283 2.76562C50.0387 2.89323 50.5309 3.09375 51.0048 3.36719C51.8616 3.84115 52.5908 4.50651 53.1923 5.36328C53.7757 6.22005 54.0673 7.19531 54.0673 8.28906C54.0673 9.3099 53.8577 10.194 53.4384 10.9414C53.0192 11.707 52.4632 12.3177 51.7705 12.7734C52.4632 13.2474 53.0192 13.8581 53.4384 14.6055C53.8577 15.3529 54.0673 16.2461 54.0673 17.2852C54.0673 17.8685 53.9762 18.4245 53.7939 18.9531C53.6116 19.4635 53.3564 19.9375 53.0283 20.375C52.4267 21.1771 51.6611 21.8151 50.7314 22.2891C49.8017 22.763 48.8994 23 48.0244 23C48.0244 21.888 48.0244 21.332 48.0244 21.332C48.0244 21.332 48.0244 21.1406 48.0244 20.7578C48.8082 20.7578 49.6377 20.4479 50.5127 19.8281C51.3877 19.2083 51.8252 18.3607 51.8252 17.2852C51.8252 16.4648 51.6338 15.8268 51.2509 15.3711C50.8681 14.8971 50.4215 14.5508 49.9111 14.332C49.6377 14.2044 49.3642 14.1042 49.0908 14.0312C48.8173 13.9766 48.5621 13.931 48.3252 13.8945C48.3252 12.7826 48.3252 12.2266 48.3252 12.2266C48.3252 12.2266 48.3252 12.0352 48.3252 11.6523C48.6533 11.6523 49.0999 11.5521 49.665 11.3516C50.2119 11.151 50.6858 10.8138 51.0869 10.3398C51.3056 10.0846 51.4879 9.78385 51.6338 9.4375C51.7614 9.10938 51.8252 8.72656 51.8252 8.28906ZM56.4747 20.7578C56.4747 19.7734 56.4747 18.2878 56.4747 16.3008C56.4747 15.1159 56.7664 14.0221 57.3497 13.0195C57.933 12.0169 58.6986 11.2148 59.6466 10.6133C60.157 10.3034 60.7039 10.0573 61.2872 9.875C61.8888 9.71094 62.5085 9.62891 63.1466 9.62891C63.6023 9.62891 63.9942 9.62891 64.3223 9.62891C64.6505 9.62891 64.933 9.62891 65.17 9.62891C66.1361 9.62891 66.6283 9.62891 66.6466 9.62891C66.683 9.62891 66.9929 9.62891 67.5763 9.62891C68.0684 10.1211 68.8158 10.8685 69.8184 11.8711C69.1075 11.8711 68.7065 11.8711 68.6153 11.8711C68.5242 11.8711 68.1596 11.8711 67.5216 11.8711C67.3575 11.8711 67.1661 11.8711 66.9473 11.8711C66.7286 11.8711 66.4734 11.8711 66.1817 11.8711C65.8171 11.8711 65.3888 11.8711 64.8966 11.8711C64.4044 11.8711 63.821 11.8711 63.1466 11.8711C61.9252 11.8711 60.8861 12.3086 60.0294 13.1836C59.1726 14.0404 58.7442 15.0794 58.7442 16.3008C58.7442 17.7956 58.7442 20.0286 58.7442 23C58.2338 22.5078 57.4773 21.7604 56.4747 20.7578ZM77.968 20.7578C77.968 21.1224 77.968 21.3047 77.968 21.3047C77.968 21.3047 77.968 21.8698 77.968 23C76.7648 23 75.662 22.7083 74.6594 22.125C73.675 21.5599 72.882 20.8034 72.2805 19.8555C71.9706 19.3451 71.7245 18.7891 71.5422 18.1875C71.3781 17.6042 71.2961 16.9844 71.2961 16.3281C71.2961 15.6901 71.3781 15.0703 71.5422 14.4688C71.7245 13.8854 71.9706 13.3385 72.2805 12.8281C72.882 11.8802 73.675 11.1146 74.6594 10.5312C75.662 9.94792 76.7648 9.65625 77.968 9.65625C79.1711 9.65625 80.274 9.94792 81.2766 10.5312C82.2792 11.1146 83.0721 11.8802 83.6555 12.8281C83.9836 13.3385 84.2297 13.8854 84.3938 14.4688C84.576 15.0703 84.6672 15.6901 84.6672 16.3281C84.6672 17.3125 84.6672 18.7891 84.6672 20.7578C84.1568 21.25 83.4094 21.9974 82.425 23C82.425 22.2891 82.425 21.888 82.425 21.7969C82.425 21.7057 82.425 21.3411 82.425 20.7031C82.425 20.5391 82.425 20.3477 82.425 20.1289C82.425 19.9102 82.425 19.6549 82.425 19.3633C82.425 18.9987 82.425 18.5703 82.425 18.0781C82.425 17.5859 82.425 17.0026 82.425 16.3281C82.425 15.1068 81.9875 14.0677 81.1125 13.2109C80.2375 12.3359 79.1893 11.8984 77.968 11.8984C76.7284 11.8984 75.6802 12.3359 74.8234 13.2109C73.9667 14.0677 73.5383 15.1068 73.5383 16.3281C73.5383 16.7656 73.6112 17.1758 73.757 17.5586C73.9211 17.9596 74.1307 18.3333 74.3859 18.6797C74.8599 19.2995 75.4341 19.8008 76.1086 20.1836C76.8013 20.5664 77.4211 20.7578 77.968 20.7578ZM86.9378 6.18359C86.9378 6.49349 87.0472 6.75781 87.2659 6.97656C87.4847 7.19531 87.749 7.30469 88.0589 7.30469C88.3688 7.30469 88.6331 7.19531 88.8519 6.97656C89.0706 6.75781 89.18 6.49349 89.18 6.18359C89.18 5.8737 89.0706 5.60938 88.8519 5.39062C88.6331 5.17188 88.3688 5.0625 88.0589 5.0625C87.749 5.0625 87.4847 5.17188 87.2659 5.39062C87.0472 5.60938 86.9378 5.8737 86.9378 6.18359ZM89.1253 23C88.7425 23 88.1501 23 87.348 23C87.2568 23 87.1019 23 86.8831 23C86.8831 21.7604 86.8831 19.901 86.8831 17.4219C86.8831 16.1823 86.8831 14.3229 86.8831 11.8438C87.3753 11.3333 88.1227 10.5859 89.1253 9.60156C89.1253 12.5729 89.1253 17.0391 89.1253 23ZM91.4233 23C91.4233 22.4531 91.4233 21.6237 91.4233 20.5117C91.4233 19.582 91.4233 18.1875 91.4233 16.3281C91.4233 15.1432 91.7149 14.0495 92.2983 13.0469C92.8816 12.0443 93.6472 11.2513 94.5952 10.668C95.1056 10.3581 95.6524 10.112 96.2358 9.92969C96.8373 9.7474 97.4663 9.65625 98.1225 9.65625C98.7605 9.65625 99.3803 9.7474 99.9819 9.92969C100.565 10.112 101.112 10.3581 101.623 10.668C102.589 11.2513 103.354 12.0443 103.919 13.0469C104.503 14.0495 104.794 15.1432 104.794 16.3281C104.794 17.0026 104.794 17.5859 104.794 18.0781C104.794 18.5703 104.794 18.9987 104.794 19.3633C104.794 19.6549 104.794 19.9102 104.794 20.1289C104.794 20.3477 104.794 20.5391 104.794 20.7031C104.794 21.3411 104.794 21.7057 104.794 21.7969C104.794 21.888 104.794 22.2891 104.794 23C104.302 22.5078 103.555 21.7604 102.552 20.7578C102.552 19.7734 102.552 18.2969 102.552 16.3281C102.552 15.1068 102.115 14.0677 101.24 13.2109C100.383 12.3359 99.3439 11.8984 98.1225 11.8984C96.8829 11.8984 95.8256 12.3359 94.9506 13.2109C94.0939 14.0677 93.6655 15.1068 93.6655 16.3281C93.6655 16.7839 93.6655 17.1758 93.6655 17.5039C93.6655 17.832 93.6655 18.1146 93.6655 18.3516C93.6655 19.3177 93.6655 19.8099 93.6655 19.8281C93.6655 19.8646 93.6655 20.1745 93.6655 20.7578C93.1733 21.25 92.4259 21.9974 91.4233 23ZM118.221 9.21875C118.221 7.9974 117.793 6.94922 116.936 6.07422C116.079 5.21745 115.031 4.78906 113.792 4.78906C112.552 4.78906 111.504 5.21745 110.647 6.07422C109.772 6.93099 109.335 7.97005 109.335 9.19141C109.335 9.84766 109.335 10.5859 109.335 11.4062C109.335 12.2083 109.335 13.056 109.335 13.9492C109.335 15.5716 109.335 17.2122 109.335 18.8711C109.335 20.5299 109.335 21.8971 109.335 22.9727C109.335 22.9909 109.335 23 109.335 23C109.335 23 109.335 22.9909 109.335 22.9727C108.824 22.4805 108.077 21.7422 107.092 20.7578C107.092 19.7917 107.092 18.3516 107.092 16.4375C107.092 14.8333 107.092 12.418 107.092 9.19141C107.092 8.55339 107.183 7.94271 107.366 7.35938C107.53 6.75781 107.776 6.20182 108.104 5.69141C108.687 4.74349 109.48 3.97786 110.483 3.39453C111.486 2.82943 112.588 2.54688 113.792 2.54688C114.43 2.54688 115.049 2.62891 115.651 2.79297C116.234 2.97526 116.79 3.22135 117.319 3.53125C118.267 4.11458 119.023 4.90755 119.588 5.91016C120.172 6.91276 120.463 8.00651 120.463 9.19141C120.463 10.3945 120.172 11.4974 119.588 12.5C119.023 13.5208 118.267 14.3229 117.319 14.9062C116.79 15.2344 116.234 15.4896 115.651 15.6719C115.049 15.8359 114.43 15.918 113.792 15.918C113.792 14.7695 113.792 14.1953 113.792 14.1953C113.792 14.1953 113.792 14.0039 113.792 13.6211C114.904 13.6029 115.924 13.1745 116.854 12.3359C117.766 11.4792 118.221 10.4401 118.221 9.21875ZM129.461 20.7578C130.682 20.7578 131.73 20.3294 132.605 19.4727C133.462 18.6159 133.89 17.5677 133.89 16.3281C133.89 15.1068 133.462 14.0586 132.605 13.1836C131.73 12.3268 130.682 11.8984 129.461 11.8984C128.804 11.8984 128.221 11.8984 127.711 11.8984C127.218 11.8984 126.79 11.8984 126.425 11.8984C126.134 11.8984 125.879 11.8984 125.66 11.8984C125.441 11.8984 125.259 11.8984 125.113 11.8984C124.457 11.8984 124.083 11.8984 123.992 11.8984C123.901 11.8984 123.5 11.8984 122.789 11.8984C123.299 11.388 124.047 10.6406 125.031 9.65625C126.015 9.65625 127.492 9.65625 129.461 9.65625C130.117 9.65625 130.737 9.73828 131.32 9.90234C131.922 10.0846 132.478 10.3307 132.988 10.6406C133.936 11.2422 134.692 12.0352 135.257 13.0195C135.841 14.0221 136.132 15.125 136.132 16.3281C136.132 16.9844 136.041 17.6042 135.859 18.1875C135.695 18.7891 135.458 19.3451 135.148 19.8555C134.547 20.8034 133.754 21.569 132.769 22.1523C131.767 22.7357 130.664 23.0273 129.461 23.0273C128.276 23.0273 127.182 22.7357 126.179 22.1523C125.177 21.569 124.384 20.8034 123.8 19.8555C123.491 19.3451 123.244 18.7891 123.062 18.1875C122.88 17.6042 122.789 16.9844 122.789 16.3281C123.919 16.3281 124.484 16.3281 124.484 16.3281C124.484 16.3281 124.666 16.3281 125.031 16.3281C125.031 16.6198 125.095 16.9388 125.222 17.2852C125.332 17.6315 125.487 17.9779 125.687 18.3242C126.088 18.9622 126.617 19.5273 127.273 20.0195C127.929 20.5117 128.659 20.7578 129.461 20.7578ZM142.423 23C141.475 23 140.582 22.6263 139.743 21.8789C138.886 21.1497 138.458 20.1745 138.458 18.9531C138.458 16.8932 138.458 13.7852 138.458 9.62891C138.768 9.92057 138.932 10.0755 138.95 10.0938C138.95 10.112 139.196 10.3581 139.688 10.832C139.816 10.9596 139.962 11.1055 140.126 11.2695C140.29 11.4336 140.481 11.6341 140.7 11.8711C140.7 12.2904 140.7 12.6641 140.7 12.9922C140.7 13.3203 140.7 13.6029 140.7 13.8398C140.7 14.0951 140.7 14.3229 140.7 14.5234C140.7 14.7057 140.7 14.8789 140.7 15.043C140.7 15.6445 140.7 16.0638 140.7 16.3008C140.7 16.5195 140.7 17.0026 140.7 17.75C140.7 17.8958 140.7 18.069 140.7 18.2695C140.7 18.4883 140.7 18.7161 140.7 18.9531C140.7 19.5547 140.901 20.0013 141.302 20.293C141.684 20.6029 142.058 20.7578 142.423 20.7578C142.915 20.7578 143.307 20.5938 143.598 20.2656C143.89 19.9557 144.036 19.5182 144.036 18.9531C144.036 18.3516 144.036 17.7865 144.036 17.2578C144.036 16.7292 144.036 16.0547 144.036 15.2344C144.036 14.8151 144.036 14.332 144.036 13.7852C144.036 13.2383 144.036 12.6003 144.036 11.8711C144.401 11.8711 144.583 11.8711 144.583 11.8711C144.583 11.8711 145.148 11.8711 146.278 11.8711C146.278 12.5273 146.278 13.1107 146.278 13.6211C146.278 14.1497 146.269 14.8151 146.251 15.6172C146.251 16.0365 146.251 16.5195 146.251 17.0664C146.251 17.5951 146.251 18.224 146.251 18.9531C146.251 19.5182 146.397 19.9557 146.688 20.2656C146.98 20.5938 147.363 20.7578 147.837 20.7578C148.201 20.7578 148.584 20.6029 148.985 20.293C149.368 20.0013 149.559 19.5547 149.559 18.9531C149.578 18.6979 149.587 18.388 149.587 18.0234C149.587 17.6589 149.587 17.0208 149.587 16.1094C149.587 15.6172 149.578 15.0339 149.559 14.3594C149.559 13.6667 149.559 12.8372 149.559 11.8711C150.07 11.3607 150.817 10.6133 151.802 9.62891C151.802 10.6133 151.802 11.1693 151.802 11.2969C151.802 11.4427 151.802 11.9622 151.802 12.8555C151.802 13.0742 151.802 13.3294 151.802 13.6211C151.802 13.931 151.802 14.2956 151.802 14.7148C151.802 15.2253 151.802 15.8268 151.802 16.5195C151.802 17.2122 151.802 18.0234 151.802 18.9531C151.802 20.1745 151.382 21.1497 150.544 21.8789C149.705 22.6263 148.803 23 147.837 23C147.308 23 146.807 22.8997 146.333 22.6992C145.877 22.5169 145.476 22.2435 145.13 21.8789C144.802 22.2435 144.401 22.5169 143.927 22.6992C143.471 22.8997 142.97 23 142.423 23ZM158.557 17.4219C159.067 16.9297 159.814 16.1823 160.799 15.1797C161.109 15.1797 161.665 15.1797 162.467 15.1797C163.269 15.1797 164.135 15.1797 165.064 15.1797C164.809 14.2318 164.29 13.4388 163.506 12.8008C162.722 12.181 161.81 11.8711 160.771 11.8711C159.55 11.8711 158.511 12.2995 157.654 13.1562C156.797 14.013 156.369 15.0612 156.369 16.3008C156.369 17.5404 156.797 18.5885 157.654 19.4453C158.511 20.3203 159.55 20.7578 160.771 20.7578C162.266 20.7578 164.49 20.7578 167.443 20.7578C166.951 21.25 166.204 21.9974 165.201 23C164.618 23 164.317 23 164.299 23C164.262 23 163.761 23 162.795 23C162.558 23 162.275 23 161.947 23C161.619 23 161.227 23 160.771 23C159.587 23 158.493 22.7083 157.49 22.125C156.488 21.5417 155.695 20.776 155.111 19.8281C154.801 19.3177 154.555 18.7617 154.373 18.1602C154.209 17.5768 154.127 16.957 154.127 16.3008C154.127 15.0977 154.409 14.0039 154.975 13.0195C155.558 12.0169 156.323 11.2148 157.271 10.6133C157.782 10.3034 158.338 10.0573 158.939 9.875C159.523 9.71094 160.133 9.62891 160.771 9.62891C161.938 9.62891 163.023 9.90234 164.025 10.4492C165.01 10.9961 165.803 11.7344 166.404 12.6641C166.732 13.138 166.988 13.6667 167.17 14.25C167.37 14.8151 167.48 15.4167 167.498 16.0547C167.516 16.2005 167.525 16.3464 167.525 16.4922C167.525 16.5833 167.516 16.6654 167.498 16.7383C167.498 16.9753 167.489 17.2031 167.471 17.4219C165.484 17.4219 162.512 17.4219 158.557 17.4219ZM169.878 20.7578C169.878 19.7734 169.878 18.2878 169.878 16.3008C169.878 15.1159 170.17 14.0221 170.753 13.0195C171.336 12.0169 172.102 11.2148 173.05 10.6133C173.56 10.3034 174.107 10.0573 174.69 9.875C175.292 9.71094 175.912 9.62891 176.55 9.62891C177.006 9.62891 177.397 9.62891 177.726 9.62891C178.054 9.62891 178.336 9.62891 178.573 9.62891C179.539 9.62891 180.032 9.62891 180.05 9.62891C180.086 9.62891 180.396 9.62891 180.98 9.62891C181.472 10.1211 182.219 10.8685 183.222 11.8711C182.511 11.8711 182.11 11.8711 182.019 11.8711C181.927 11.8711 181.563 11.8711 180.925 11.8711C180.761 11.8711 180.569 11.8711 180.351 11.8711C180.132 11.8711 179.877 11.8711 179.585 11.8711C179.22 11.8711 178.792 11.8711 178.3 11.8711C177.808 11.8711 177.224 11.8711 176.55 11.8711C175.328 11.8711 174.289 12.3086 173.433 13.1836C172.576 14.0404 172.147 15.0794 172.147 16.3008C172.147 17.7956 172.147 20.0286 172.147 23C171.637 22.5078 170.881 21.7604 169.878 20.7578Z" fill="url(#paint0_linear_119_1551)"/>
<defs>
<linearGradient id="paint0_linear_119_1551" x1="112" y1="17" x2="112" y2="23" gradientUnits="userSpaceOnUse">
<stop stop-color="white"/>
<stop offset="1" stop-color="#898989"/>
</linearGradient>
<clipPath id="clip0_119_1551">
<rect width="33" height="25" fill="white"/>
</clipPath>
</defs>
</svg>
