<svg xmlns="http://www.w3.org/2000/svg" xmlns:xlink="http://www.w3.org/1999/xlink" width="500" zoomAndPan="magnify" viewBox="0 0 375 374.999991" height="500" preserveAspectRatio="xMidYMid meet" version="1.0">
<path fill="#F60001" d="M 305.351562 242.011719 C 305.183594 239.980469 305.015625 238.433594 304.800781 236.988281 C 303.695312 229.273438 301.351562 221.738281 297.835938 214.597656 C 292.515625 203.820312 284.800781 194.378906 274.898438 186.542969 L 271.046875 183.492188 L 275.171875 180.824219 C 283.730469 175.292969 295.25 164.832031 301.519531 146.414062 L 301.53125 146.390625 L 301.558594 146.238281 L 301.632812 146.019531 C 304.339844 138.019531 305.636719 129.617188 305.480469 121.035156 C 305.234375 105.449219 300.363281 93.546875 298.230469 89.066406 L 297.527344 87.789062 C 294.199219 82.507812 281.921875 65.578125 260.28125 63.109375 C 258.980469 62.976562 257.535156 62.890625 257.511719 62.890625 C 257.5 62.890625 256.429688 62.828125 254.671875 62.828125 C 250.609375 62.828125 242.695312 63.160156 235.34375 65.382812 C 226.707031 67.984375 212.636719 77.234375 201.378906 94.765625 C 201.375 94.773438 201.371094 94.78125 201.367188 94.789062 C 200.570312 96.007812 199.890625 97.292969 199.285156 98.617188 C 195.425781 107.105469 191.558594 115.597656 187.691406 124.085938 C 183.539062 133.203125 179.386719 142.320312 175.238281 151.441406 C 171.300781 160.085938 154.242188 197.566406 154.242188 197.566406 C 155.414062 197.578125 156.585938 197.589844 157.761719 197.601562 C 164.101562 197.652344 169.527344 197.785156 174.769531 197.914062 L 177.195312 197.972656 C 180.699219 198.070312 182.789062 198.210938 184.632812 198.328125 C 186.953125 198.480469 188.789062 198.601562 192.671875 198.601562 L 198.984375 198.578125 L 196 204.835938 C 187.097656 223.511719 178.191406 242.1875 169.296875 260.785156 C 164.992188 270.378906 158.984375 278.570312 151.429688 285.144531 C 149.261719 287.023438 147.019531 288.738281 144.757812 290.242188 L 144.527344 290.398438 L 144.269531 290.519531 C 140.109375 292.421875 135.914062 293.390625 131.808594 293.390625 C 131.585938 293.390625 131.375 293.386719 131.125 293.378906 C 128.179688 293.273438 123.859375 292.621094 117.929688 291.378906 L 117.832031 291.378906 L 117.410156 291.273438 C 106.199219 288.457031 99.355469 280.328125 96.945312 276.980469 C 90.625 268.300781 87.667969 256.515625 88.617188 243.785156 C 89.765625 228.40625 97.316406 218.332031 108.292969 207.945312 L 108.945312 207.332031 C 116.679688 200.011719 124.679688 192.441406 124.101562 182.128906 C 123.574219 172.738281 117.929688 168.601562 110.785156 163.363281 C 106.535156 160.25 102.136719 157.023438 98.589844 152.375 C 89.074219 139.878906 86.167969 122.9375 91.011719 108.171875 C 95.917969 93.078125 108.054688 83.703125 122.679688 83.703125 C 126.90625 83.703125 131.199219 84.503906 135.445312 86.082031 C 141.527344 88.328125 148.832031 93.984375 154.679688 99.476562 L 163.183594 80.90625 C 156.347656 74.625 148.507812 69.75 140.347656 66.730469 C 136.417969 65.277344 129.835938 62.851562 121.585938 62.851562 C 120.046875 62.851562 118.492188 62.9375 116.976562 63.105469 C 98.210938 65.242188 85.707031 79.25 79.890625 87.460938 L 79.386719 88.148438 L 79 88.980469 C 76.972656 93.226562 72.203125 104.742188 71.738281 119.921875 C 71.460938 128.3125 72.59375 136.636719 75.074219 144.605469 C 75.28125 145.222656 75.484375 145.835938 75.667969 146.414062 C 81.949219 164.804688 93.480469 175.28125 102.046875 180.832031 L 106.167969 183.5 L 102.316406 186.542969 C 92.214844 194.527344 84.113281 204.585938 78.882812 215.652344 C 75.527344 222.632812 73.304688 230.070312 72.28125 237.75 L 72.253906 237.984375 C 72.089844 239.285156 71.953125 240.640625 71.84375 241.980469 C 70.5 260.203125 74.910156 277.347656 84.242188 290.238281 C 87.839844 295.160156 97.941406 307.042969 114.019531 311.0625 C 117.773438 311.988281 121.734375 312.070312 123.859375 312.113281 L 124.636719 312.132812 C 125.394531 312.15625 126.144531 312.167969 126.878906 312.167969 C 138.394531 312.167969 147.230469 309.421875 149.65625 308.582031 C 170.863281 301.195312 183.246094 275.152344 184.589844 272.199219 L 227.695312 178.171875 C 226.691406 178.167969 225.6875 178.164062 224.679688 178.164062 C 221.84375 178.15625 219.007812 178.148438 216.132812 178.148438 C 208.878906 178.09375 188.730469 177.75 188.53125 177.75 L 183.066406 177.65625 L 185.410156 172.722656 C 195.613281 151.230469 205.785156 129.710938 215.960938 108.191406 C 217.914062 103.757812 223.726562 92.9375 235.730469 87.152344 C 243.152344 83.5625 250.703125 83.027344 254.539062 83.027344 C 255.660156 83.027344 256.449219 83.070312 256.824219 83.09375 C 257.558594 83.140625 258.023438 83.1875 258.355469 83.222656 L 258.652344 83.25 C 272.335938 84.804688 282.117188 92.902344 286.195312 106.046875 C 291.75 123.933594 285.414062 147.226562 271.777344 159.070312 C 269.984375 160.628906 268.128906 162.085938 266.332031 163.492188 C 259.476562 168.859375 253.558594 173.496094 253.078125 182.09375 C 252.546875 191.566406 258.667969 197.0625 265.757812 203.421875 C 266.8125 204.363281 267.871094 205.316406 268.917969 206.285156 C 280.589844 217.117188 287.566406 230.433594 288.5625 243.78125 C 289.511719 256.507812 286.554688 268.296875 280.25 276.949219 C 277.863281 280.28125 271.117188 288.332031 260.050781 291.179688 L 259.9375 291.207031 L 259.824219 291.230469 C 257.707031 291.625 255.636719 291.859375 253.660156 291.917969 C 253.335938 291.929688 253.007812 291.933594 252.679688 291.933594 C 242.347656 291.933594 231.390625 287.589844 223.78125 282.65625 L 215.65625 299.136719 C 227.304688 307.652344 239.941406 312.140625 252.363281 312.140625 C 252.9375 312.140625 253.507812 312.128906 254.101562 312.109375 C 257.011719 312.03125 259.9375 311.703125 262.738281 311.15625 L 263.21875 311.054688 C 279.359375 307 289.375 295.160156 292.929688 290.253906 C 302.304688 277.316406 306.714844 260.175781 305.351562 242.011719 Z M 305.351562 242.011719 " fill-opacity="1" fill-rule="nonzero"/>
<path fill="#F60001" d="M 295.589844 233.804688 C 316.597656 228.390625 331.503906 209.386719 331.503906 187.34375 C 331.503906 165.890625 317.089844 147.007812 296.761719 141.175781 L 300.523438 123.101562 C 329.351562 130.734375 349.925781 157.207031 349.925781 187.34375 C 349.925781 218.296875 328.664062 244.933594 298.882812 251.964844 Z M 295.589844 233.804688 " fill-opacity="1" fill-rule="nonzero"/>
<path fill="#F60001" d="M 76.113281 251.96875 C 46.335938 244.933594 25.074219 218.300781 25.074219 187.34375 C 25.074219 157.207031 45.644531 130.738281 74.476562 123.105469 L 78.238281 141.175781 C 57.910156 147.011719 43.496094 165.890625 43.496094 187.347656 C 43.496094 209.386719 58.398438 228.394531 79.40625 233.808594 Z M 76.113281 251.96875 " fill-opacity="1" fill-rule="nonzero"/>
</svg>