<?xml version="1.0" encoding="utf-8"?>
<!-- Generator: Adobe Illustrator 24.0.1, SVG Export Plug-In . SVG Version: 6.00 Build 0)  -->
<svg version="1.1" id="Layer_1" xmlns="http://www.w3.org/2000/svg" xmlns:xlink="http://www.w3.org/1999/xlink" x="0px" y="0px"
	 viewBox="0 0 325.48 52.09" style="enable-background:new 0 0 325.48 52.09;" xml:space="preserve">
<style type="text/css">
	.st0{fill:#F60001;}
</style>
<g>
	<path class="st0" d="M27.96,14.6c0-2.78-1.11-4.96-3.34-6.54S20.28,5.7,18.29,5.7c-1.25,0-2.36,0-3.34,0c-0.93,0-1.74,0-2.43,0
		c-2.74,0-4.13,0-4.17,0c-0.09,0-0.97,0-2.64,0c0,3.89,0,9.71,0,17.46c0,1.3,0,3.2,0,5.7c0,5.15,0,12.87,0,23.16
		c-1.25-1.25-3.15-3.15-5.7-5.7c0-3.85,0-9.64,0-17.39C0,22.53,0,12.89,0,0c1.95,0,3.04,0,3.27,0c0.28,0,1.3,0,3.06,0
		c0.42,0,0.93,0,1.53,0s1.3,0,2.09,0c1.02,0,2.2,0,3.55,0c1.39,0,2.99,0,4.8,0c1.25,0,2.53,0.19,3.82,0.56
		c1.3,0.33,2.55,0.83,3.76,1.53c2.18,1.21,4.03,2.9,5.56,5.08c1.48,2.18,2.23,4.66,2.23,7.44c0,2.6-0.53,4.85-1.6,6.75
		c-1.07,1.95-2.48,3.5-4.24,4.66c1.76,1.21,3.18,2.76,4.24,4.66c1.07,1.9,1.6,4.17,1.6,6.82c0,1.48-0.23,2.9-0.7,4.24
		c-0.46,1.3-1.11,2.5-1.95,3.62c-1.53,2.04-3.48,3.66-5.84,4.87s-4.66,1.81-6.88,1.81V47.8v-1.46c1.99,0,4.1-0.79,6.33-2.36
		c2.23-1.58,3.34-3.73,3.34-6.47c0-2.09-0.49-3.71-1.46-4.87c-0.97-1.21-2.11-2.09-3.41-2.64c-0.7-0.32-1.39-0.58-2.09-0.77
		c-0.7-0.14-1.35-0.25-1.95-0.35v-4.24v-1.46c0.83,0,1.97-0.25,3.41-0.76c1.39-0.51,2.6-1.37,3.62-2.57
		c0.56-0.65,1.02-1.41,1.39-2.3C27.79,16.69,27.96,15.72,27.96,14.6z"/>
	<path class="st0" d="M54.67,18.01c-1.48,0-2.54,0.21-4.07,0.63c-1.48,0.46-2.88,1.09-4.17,1.88c-2.41,1.53-4.36,3.57-5.84,6.12
		s-2.23,5.33-2.23,8.35c0,5.05,0,8.83,0,11.34c2.55,2.55,4.47,4.45,5.77,5.7c0-7.56,0-13.24,0-17.04c0-3.11,1.09-5.75,3.27-7.93
		c2.18-2.23,4.82-3.34,7.93-3.34c0.06,0,0.13,0,0.18,0c1.02,0,1.62,0,1.8,0c0.23,0,1.25,0,3.06,0
		C57.82,21.17,55.92,19.26,54.67,18.01z"/>
	<path class="st0" d="M319.78,18.01c-1.48,0-2.54,0.21-4.07,0.63c-1.48,0.46-2.88,1.09-4.17,1.88c-2.41,1.53-4.36,3.57-5.84,6.12
		s-2.23,5.33-2.23,8.35c0,5.05,0,8.83,0,11.34c2.55,2.55,4.47,4.45,5.77,5.7c0-7.56,0-13.24,0-17.04c0-3.11,1.09-5.75,3.27-7.93
		c2.18-2.23,4.82-3.34,7.93-3.34c0.06,0,0.13,0,0.18,0c1.02,0,1.62,0,1.8,0c0.23,0,1.25,0,3.06,0
		C322.93,21.17,321.03,19.26,319.78,18.01z"/>
	<path class="st0" d="M79.68,46.32v1.39v4.31c-3.06,0-5.87-0.74-8.42-2.23c-2.5-1.44-4.52-3.36-6.05-5.77
		c-0.79-1.3-1.42-2.71-1.88-4.24c-0.42-1.48-0.63-3.06-0.63-4.73c0-1.62,0.21-3.2,0.63-4.73c0.46-1.48,1.09-2.87,1.88-4.17
		c1.53-2.41,3.55-4.36,6.05-5.84c2.55-1.48,5.35-2.23,8.42-2.23c3.06,0,5.86,0.74,8.41,2.23c2.55,1.48,4.57,3.43,6.05,5.84
		c0.84,1.3,1.46,2.69,1.88,4.17c0.46,1.53,0.7,3.11,0.7,4.73c0,2.5,0,6.26,0,11.27c-1.3,1.25-3.2,3.15-5.7,5.7c0-1.81,0-2.83,0-3.06
		c0-0.23,0-1.16,0-2.78c0-0.42,0-0.9,0-1.46c0-0.56,0-1.21,0-1.95c0-0.93,0-2.02,0-3.27s0-2.74,0-4.45c0-3.11-1.11-5.75-3.34-7.93
		c-2.23-2.23-4.89-3.34-8-3.34c-3.15,0-5.82,1.11-8,3.34c-2.18,2.18-3.27,4.82-3.27,7.93c0,1.11,0.18,2.16,0.56,3.13
		c0.42,1.02,0.95,1.97,1.6,2.85c1.21,1.58,2.67,2.85,4.38,3.83C76.71,45.83,78.29,46.32,79.68,46.32z"/>
	<path class="st0" d="M106.63,52.02c-0.97,0-2.48,0-4.52,0c-0.23,0-0.63,0-1.18,0c0-3.15,0-7.88,0-14.19c0-3.15,0-7.88,0-14.19
		c1.25-1.3,3.15-3.2,5.7-5.7C106.63,25.5,106.63,36.86,106.63,52.02z M101.07,9.25c0,0.79,0.28,1.46,0.83,2.02
		c0.56,0.56,1.23,0.83,2.02,0.83c0.79,0,1.46-0.28,2.02-0.83c0.56-0.56,0.83-1.23,0.83-2.02c0-0.79-0.28-1.46-0.83-2.02
		c-0.56-0.56-1.23-0.83-2.02-0.83c-0.79,0-1.46,0.28-2.02,0.83C101.35,7.79,101.07,8.46,101.07,9.25z"/>
	<path class="st0" d="M111.05,52.02c0-1.39,0-3.5,0-6.33c0-2.36,0-5.91,0-10.64c0-3.01,0.74-5.79,2.23-8.35
		c1.48-2.55,3.43-4.57,5.84-6.05c1.3-0.79,2.69-1.41,4.17-1.88c1.53-0.46,3.13-0.7,4.8-0.7c1.62,0,3.2,0.23,4.73,0.7
		c1.48,0.46,2.87,1.09,4.17,1.88c2.46,1.48,4.4,3.5,5.84,6.05c1.48,2.55,2.23,5.33,2.23,8.35c0,1.72,0,3.2,0,4.45s0,2.34,0,3.27
		c0,0.74,0,1.39,0,1.95s0,1.04,0,1.46c0,1.62,0,2.55,0,2.78s0,1.25,0,3.06c-1.25-1.25-3.15-3.15-5.7-5.7c0-2.5,0-6.26,0-11.27
		c0-3.11-1.11-5.75-3.34-7.93c-2.18-2.23-4.82-3.34-7.93-3.34c-3.15,0-5.84,1.11-8.07,3.34c-2.18,2.18-3.27,4.82-3.27,7.93
		c0,1.16,0,2.16,0,2.99s0,1.55,0,2.16c0,2.46,0,3.71,0,3.76c0,0.09,0,0.88,0,2.36C115.5,47.57,113.6,49.47,111.05,52.02z"/>
	<path class="st0" d="M177.78,16.97c0-3.11-1.09-5.77-3.27-8c-2.18-2.18-4.85-3.27-8-3.27s-5.82,1.09-8,3.27
		c-2.23,2.18-3.34,4.82-3.34,7.93c0,1.67,0,3.55,0,5.63c0,2.04,0,4.2,0,6.47c0,4.13,0,8.3,0,12.52s0,7.7,0,10.43v0.07v-0.07
		c-1.3-1.25-3.2-3.13-5.7-5.63c0-2.46,0-6.12,0-10.99c0-4.08,0-10.22,0-18.43c0-1.62,0.23-3.18,0.7-4.66
		c0.42-1.53,1.04-2.94,1.88-4.24c1.48-2.41,3.5-4.36,6.05-5.84c2.55-1.44,5.36-2.16,8.41-2.16c1.62,0,3.2,0.21,4.73,0.63
		c1.48,0.46,2.9,1.09,4.24,1.88c2.41,1.48,4.34,3.5,5.77,6.05c1.48,2.55,2.23,5.33,2.23,8.35c0,3.06-0.74,5.87-2.23,8.41
		c-1.44,2.6-3.36,4.64-5.77,6.12c-1.35,0.83-2.76,1.48-4.24,1.95c-1.53,0.42-3.11,0.63-4.73,0.63v-4.38v-1.46
		c2.83-0.05,5.42-1.14,7.79-3.27C176.62,22.72,177.78,20.08,177.78,16.97z"/>
	<path class="st0" d="M204.95,46.32c3.11,0,5.77-1.09,8-3.27c2.18-2.18,3.27-4.84,3.27-8c0-3.11-1.09-5.77-3.27-8
		c-2.23-2.18-4.89-3.27-8-3.27c-1.67,0-3.15,0-4.45,0c-1.25,0-2.34,0-3.27,0c-0.74,0-1.39,0-1.95,0s-1.02,0-1.39,0
		c-1.67,0-2.62,0-2.85,0c-0.23,0-1.25,0-3.06,0c1.3-1.3,3.2-3.2,5.7-5.7c2.5,0,6.26,0,11.27,0c1.67,0,3.25,0.21,4.73,0.63
		c1.53,0.46,2.94,1.09,4.24,1.88c2.41,1.53,4.34,3.55,5.77,6.05c1.48,2.55,2.23,5.36,2.23,8.41c0,1.67-0.23,3.25-0.69,4.73
		c-0.42,1.53-1.02,2.94-1.81,4.24c-1.53,2.41-3.55,4.36-6.05,5.84c-2.55,1.48-5.36,2.23-8.42,2.23c-3.01,0-5.8-0.74-8.35-2.23
		c-2.55-1.48-4.57-3.43-6.05-5.84c-0.79-1.3-1.41-2.71-1.88-4.24c-0.46-1.48-0.7-3.06-0.7-4.73h4.31h1.39
		c0,0.74,0.16,1.55,0.49,2.43c0.28,0.88,0.67,1.76,1.18,2.64c1.02,1.62,2.36,3.06,4.03,4.31C201.05,45.69,202.91,46.32,204.95,46.32
		z"/>
	<path class="st0" d="M236.49,52.02c-2.41,0-4.68-0.95-6.81-2.85c-2.18-1.85-3.27-4.33-3.27-7.44c0-5.24,0-13.14,0-23.72
		c0.79,0.74,1.21,1.14,1.25,1.18c0,0.05,0.63,0.67,1.88,1.88c0.32,0.33,0.7,0.7,1.11,1.11c0.42,0.42,0.9,0.93,1.46,1.53
		c0,1.07,0,2.02,0,2.85s0,1.55,0,2.16c0,0.65,0,1.23,0,1.74c0,0.46,0,0.9,0,1.32c0,1.53,0,2.6,0,3.2c0,0.56,0,1.79,0,3.69
		c0,0.37,0,0.81,0,1.32c0,0.56,0,1.14,0,1.74c0,1.53,0.51,2.67,1.53,3.41c0.97,0.79,1.92,1.18,2.85,1.18c1.25,0,2.25-0.42,2.99-1.25
		c0.74-0.79,1.11-1.9,1.11-3.34c0-1.53,0-2.97,0-4.31s0-3.06,0-5.15c0-1.07,0-2.29,0-3.69c0-1.39,0-3.01,0-4.87h1.39h4.31
		c0,1.67,0,3.15,0,4.45c0,1.35-0.02,3.04-0.07,5.08c0,1.07,0,2.3,0,3.69c0,1.35,0,2.95,0,4.8c0,1.44,0.37,2.55,1.11,3.34
		c0.74,0.83,1.71,1.25,2.92,1.25c0.93,0,1.9-0.39,2.92-1.18c0.97-0.74,1.46-1.88,1.46-3.41c0.05-0.65,0.07-1.44,0.07-2.36
		c0-0.93,0-2.55,0-4.87c0-1.25-0.02-2.74-0.07-4.45c0-1.76,0-3.87,0-6.33c1.3-1.3,3.2-3.2,5.7-5.7c0,2.5,0,3.92,0,4.24
		c0,0.37,0,1.69,0,3.96c0,0.56,0,1.21,0,1.95c0,0.79,0,1.72,0,2.78c0,1.3,0,2.83,0,4.59c0,1.76,0,3.83,0,6.19
		c0,3.11-1.07,5.59-3.2,7.44c-2.13,1.9-4.43,2.85-6.89,2.85c-1.34,0-2.62-0.25-3.82-0.76c-1.16-0.46-2.18-1.16-3.06-2.09
		c-0.83,0.93-1.86,1.62-3.06,2.09C239.15,51.77,237.88,52.02,236.49,52.02z"/>
	<path class="st0" d="M276.1,37.83c1.3-1.25,3.2-3.15,5.7-5.7c0.79,0,2.2,0,4.24,0c2.04,0,4.24,0,6.61,0
		c-0.65-2.41-1.97-4.43-3.96-6.05c-1.99-1.58-4.31-2.36-6.95-2.36c-3.11,0-5.75,1.09-7.93,3.27s-3.27,4.85-3.27,8s1.09,5.82,3.27,8
		c2.18,2.23,4.82,3.34,7.93,3.34c3.8,0,9.46,0,16.97,0c-1.25,1.25-3.15,3.15-5.7,5.7c-1.48,0-2.25,0-2.29,0c-0.09,0-1.37,0-3.82,0
		c-0.6,0-1.32,0-2.16,0s-1.83,0-2.99,0c-3.01,0-5.8-0.74-8.35-2.23c-2.55-1.48-4.57-3.43-6.05-5.84c-0.79-1.3-1.41-2.71-1.88-4.24
		c-0.42-1.48-0.63-3.06-0.63-4.73c0-3.06,0.72-5.84,2.16-8.35c1.48-2.55,3.43-4.59,5.84-6.12c1.3-0.79,2.71-1.41,4.24-1.88
		c1.48-0.42,3.04-0.63,4.66-0.63c2.97,0,5.73,0.7,8.28,2.09c2.5,1.39,4.52,3.27,6.05,5.63c0.83,1.21,1.48,2.55,1.95,4.03
		c0.51,1.44,0.79,2.97,0.83,4.59c0.05,0.37,0.07,0.74,0.07,1.11c0,0.23-0.02,0.44-0.07,0.63c0,0.6-0.02,1.18-0.07,1.74
		C293.72,37.83,286.16,37.83,276.1,37.83z"/>
</g>
</svg>
