<svg width="360" height="231" viewBox="0 0 360 231" fill="none" xmlns="http://www.w3.org/2000/svg">
<g clip-path="url(#clip0_89_19856)">
<rect y="0.790039" width="360" height="230" rx="14" fill="url(#paint0_linear_89_19856)" fill-opacity="0.6" style="mix-blend-mode:color-dodge"/>
<rect x="0.5" y="1.29004" width="359" height="229" rx="13.5" stroke="white" stroke-opacity="0.1"/>
<rect x="54" y="27" width="497" height="40" rx="11" fill="#160101"/>
<rect x="54.5" y="27.5" width="496" height="39" rx="10.5" stroke="#3F0506"/>
<rect x="44" y="40" width="517" height="42" rx="11" fill="#160101"/>
<rect x="44.5" y="40.5" width="516" height="41" rx="10.5" stroke="#3F0506"/>
<g filter="url(#filter0_bi_89_19856)">
<rect x="32" y="55" width="541" height="45" rx="9.38" fill="url(#paint1_linear_89_19856)"/>
<g clip-path="url(#clip1_89_19856)">
<g clip-path="url(#clip2_89_19856)">
<mask id="mask0_89_19856" style="mask-type:luminance" maskUnits="userSpaceOnUse" x="44" y="67" width="18" height="18">
<path d="M44 67H62V85H44V67Z" fill="white"/>
</mask>
<g mask="url(#mask0_89_19856)">
<path d="M51.452 78.625C51.3851 78.3653 51.2498 78.1284 51.0602 77.9388C50.8706 77.7492 50.6336 77.6139 50.374 77.547L45.773 76.361C45.6943 76.3388 45.625 76.2916 45.5756 76.2264C45.5262 76.1613 45.4995 76.0817 45.4995 76C45.4995 75.9182 45.5262 75.8387 45.5756 75.7735C45.625 75.7084 45.6943 75.6611 45.773 75.639L50.373 74.452C50.6327 74.3853 50.8698 74.2502 51.0595 74.0608C51.2493 73.8714 51.3848 73.6345 51.452 73.375L52.638 68.774C52.6601 68.6953 52.7074 68.626 52.7726 68.5766C52.8377 68.5272 52.9172 68.5005 52.999 68.5005C53.0808 68.5005 53.1603 68.5272 53.2255 68.5766C53.2906 68.626 53.3379 68.6953 53.36 68.774L54.546 73.375C54.6129 73.6346 54.7483 73.8716 54.9378 74.0611C55.1274 74.2507 55.3644 74.386 55.624 74.453L60.225 75.639C60.3041 75.6608 60.3739 75.708 60.4236 75.7733C60.4734 75.8386 60.5003 75.9184 60.5003 76.0005C60.5003 76.0826 60.4734 76.1624 60.4236 76.2277C60.3739 76.293 60.3041 76.3402 60.225 76.362L55.624 77.547C55.3644 77.6139 55.1274 77.7492 54.9378 77.9388C54.7483 78.1284 54.6129 78.3653 54.546 78.625L53.36 83.226C53.3382 83.3051 53.291 83.3749 53.2257 83.4246C53.1604 83.4743 53.0806 83.5013 52.9985 83.5013C52.9164 83.5013 52.8366 83.4743 52.7713 83.4246C52.706 83.3749 52.6588 83.3051 52.637 83.226L51.452 78.626V78.625Z" stroke="#C9C9CF" stroke-width="1.2" stroke-linecap="round" stroke-linejoin="round"/>
<path d="M59 69.25V72.25M60.5 70.75H57.5" stroke="#C9C9CF" stroke-linecap="round" stroke-linejoin="round"/>
<path d="M47 79.75V81.25M47.75 80.5H46.25" stroke="#C9C9CF" stroke-width="0.5" stroke-linecap="round" stroke-linejoin="round"/>
</g>
</g>
</g>
<path d="M75.184 84.08V69.36H76.624V84.08H75.184ZM84.637 82L88.973 70.48H90.445L86.301 82H84.637ZM93.549 82L89.405 70.48H90.957L95.309 82H93.549ZM86.829 77.408H93.005V78.816H86.829V77.408ZM99.6276 82.16C98.561 82.16 97.713 81.9253 97.0836 81.456C96.4543 80.9867 96.097 80.3253 96.0116 79.472H97.5476C97.6223 79.9413 97.8356 80.304 98.1876 80.56C98.5503 80.8053 99.041 80.928 99.6596 80.928C100.204 80.928 100.62 80.832 100.908 80.64C101.196 80.448 101.34 80.176 101.34 79.824C101.34 79.568 101.254 79.3547 101.084 79.184C100.924 79.0027 100.604 78.8533 100.124 78.736L98.8116 78.432C97.9903 78.2293 97.377 77.9307 96.9716 77.536C96.577 77.1307 96.3796 76.6347 96.3796 76.048C96.3796 75.312 96.6516 74.736 97.1956 74.32C97.7503 73.8933 98.5076 73.68 99.4676 73.68C100.417 73.68 101.18 73.8933 101.756 74.32C102.342 74.7467 102.673 75.344 102.748 76.112H101.212C101.148 75.728 100.961 75.4347 100.652 75.232C100.353 75.0187 99.9423 74.912 99.4196 74.912C98.929 74.912 98.5503 75.0027 98.2836 75.184C98.0276 75.3547 97.8996 75.5947 97.8996 75.904C97.8996 76.16 97.9956 76.3733 98.1876 76.544C98.3903 76.7147 98.721 76.8587 99.1796 76.976L100.524 77.312C101.302 77.504 101.889 77.8187 102.284 78.256C102.678 78.6827 102.876 79.2 102.876 79.808C102.876 80.544 102.588 81.12 102.012 81.536C101.446 81.952 100.652 82.16 99.6276 82.16ZM104.418 82V70.272H106.082V82H104.418ZM109.714 82L105.698 77.76L109.586 73.84H111.682L107.266 78.128L107.346 77.376L111.842 82H109.714ZM116.309 82V73.84H117.893V75.76H117.973V82H116.309ZM121.813 82V76.672C121.813 76.1173 121.685 75.712 121.429 75.456C121.173 75.2 120.805 75.072 120.325 75.072C119.877 75.072 119.471 75.1787 119.109 75.392C118.757 75.5947 118.479 75.8827 118.277 76.256C118.074 76.6187 117.973 77.0507 117.973 77.552L117.765 75.648C118.031 75.04 118.431 74.56 118.965 74.208C119.509 73.856 120.117 73.68 120.789 73.68C121.599 73.68 122.245 73.9147 122.725 74.384C123.215 74.8533 123.461 75.472 123.461 76.24V82H121.813ZM127.317 82V76.672C127.317 76.1173 127.183 75.712 126.917 75.456C126.661 75.2 126.293 75.072 125.813 75.072C125.375 75.072 124.975 75.1787 124.613 75.392C124.261 75.5947 123.978 75.8827 123.765 76.256C123.562 76.6187 123.461 77.0507 123.461 77.552L123.125 75.648C123.402 75.04 123.818 74.56 124.373 74.208C124.938 73.856 125.567 73.68 126.261 73.68C127.082 73.68 127.738 73.92 128.229 74.4C128.719 74.8693 128.965 75.4987 128.965 76.288V82H127.317ZM134.719 82.16C133.898 82.16 133.173 81.9787 132.543 81.616C131.925 81.2533 131.439 80.752 131.087 80.112C130.735 79.472 130.559 78.736 130.559 77.904C130.559 77.0613 130.73 76.3253 131.071 75.696C131.423 75.056 131.914 74.56 132.543 74.208C133.173 73.856 133.893 73.68 134.703 73.68C135.493 73.68 136.175 73.8507 136.751 74.192C137.338 74.5227 137.786 74.9867 138.095 75.584C138.415 76.1813 138.575 76.8907 138.575 77.712C138.575 77.84 138.57 77.9627 138.559 78.08C138.559 78.1867 138.549 78.2987 138.527 78.416H131.679V77.168H137.359L136.943 77.664C136.943 76.7893 136.746 76.1227 136.351 75.664C135.957 75.2053 135.407 74.976 134.703 74.976C133.946 74.976 133.343 75.2373 132.895 75.76C132.458 76.272 132.239 76.9867 132.239 77.904C132.239 78.832 132.458 79.5573 132.895 80.08C133.343 80.6027 133.962 80.864 134.751 80.864C135.231 80.864 135.647 80.768 135.999 80.576C136.351 80.3733 136.613 80.08 136.783 79.696H138.351C138.085 80.464 137.631 81.0667 136.991 81.504C136.362 81.9413 135.605 82.16 134.719 82.16ZM148.49 82C148.436 81.7973 148.399 81.5733 148.378 81.328C148.367 81.0827 148.362 80.784 148.362 80.432H148.282V76.544C148.282 76.0213 148.148 75.632 147.882 75.376C147.626 75.1093 147.215 74.976 146.65 74.976C146.106 74.976 145.668 75.0827 145.338 75.296C145.018 75.5093 144.831 75.8133 144.778 76.208H143.194C143.268 75.44 143.615 74.8267 144.234 74.368C144.852 73.9093 145.679 73.68 146.714 73.68C147.78 73.68 148.58 73.9307 149.114 74.432C149.647 74.9227 149.914 75.648 149.914 76.608V80.432C149.914 80.6773 149.93 80.928 149.962 81.184C149.994 81.44 150.042 81.712 150.106 82H148.49ZM145.674 82.16C144.842 82.16 144.18 81.9573 143.69 81.552C143.199 81.136 142.954 80.576 142.954 79.872C142.954 79.1467 143.21 78.576 143.722 78.16C144.244 77.7333 144.991 77.4453 145.962 77.296L148.65 76.864V78.032L146.218 78.416C145.674 78.5013 145.263 78.6453 144.986 78.848C144.719 79.0507 144.586 79.344 144.586 79.728C144.586 80.1013 144.708 80.384 144.954 80.576C145.21 80.7573 145.578 80.848 146.058 80.848C146.698 80.848 147.226 80.6933 147.642 80.384C148.068 80.0747 148.282 79.6853 148.282 79.216L148.49 80.4C148.298 80.9653 147.956 81.4027 147.466 81.712C146.975 82.0107 146.378 82.16 145.674 82.16ZM152.168 82V73.84H153.752V75.76H153.832V82H152.168ZM157.96 82V76.752C157.96 76.1867 157.816 75.7653 157.528 75.488C157.251 75.2107 156.835 75.072 156.28 75.072C155.8 75.072 155.373 75.1787 155 75.392C154.637 75.6053 154.349 75.8987 154.136 76.272C153.933 76.6453 153.832 77.088 153.832 77.6L153.624 75.648C153.891 75.04 154.301 74.56 154.856 74.208C155.411 73.856 156.056 73.68 156.792 73.68C157.667 73.68 158.355 73.9253 158.856 74.416C159.357 74.9067 159.608 75.5573 159.608 76.368V82H157.96ZM162.135 85.28L164.103 80.784L164.439 80.256L166.919 73.84H168.647L163.847 85.28H162.135ZM164.023 82L160.535 73.84H162.343L165.303 81.184L164.023 82ZM173.656 82.16C172.706 82.16 172.008 81.9413 171.56 81.504C171.122 81.056 170.904 80.4 170.904 79.536V71.968L172.552 71.344V79.552C172.552 79.9787 172.664 80.2933 172.888 80.496C173.112 80.6987 173.474 80.8 173.976 80.8C174.168 80.8 174.338 80.784 174.488 80.752C174.637 80.72 174.765 80.6827 174.872 80.64V81.984C174.754 82.0373 174.589 82.08 174.376 82.112C174.162 82.144 173.922 82.16 173.656 82.16ZM169.272 75.168V73.84H174.872V75.168H169.272ZM176.449 82V70.48H178.113V82H176.449ZM182.241 82V76.752C182.241 76.1867 182.097 75.7653 181.809 75.488C181.532 75.2107 181.116 75.072 180.561 75.072C180.081 75.072 179.655 75.1787 179.281 75.392C178.919 75.6053 178.631 75.8987 178.417 76.272C178.215 76.6453 178.113 77.088 178.113 77.6L177.905 75.648C178.172 75.04 178.583 74.56 179.137 74.208C179.692 73.856 180.337 73.68 181.073 73.68C181.948 73.68 182.636 73.9253 183.137 74.416C183.639 74.9067 183.889 75.5573 183.889 76.368V82H182.241ZM186.121 82V73.84H187.785V82H186.121ZM186.041 72.24V70.368H187.881V72.24H186.041ZM190.121 82V73.84H191.705V75.76H191.785V82H190.121ZM195.913 82V76.752C195.913 76.1867 195.769 75.7653 195.481 75.488C195.204 75.2107 194.788 75.072 194.233 75.072C193.753 75.072 193.326 75.1787 192.953 75.392C192.59 75.6053 192.302 75.8987 192.089 76.272C191.886 76.6453 191.785 77.088 191.785 77.6L191.577 75.648C191.844 75.04 192.254 74.56 192.809 74.208C193.364 73.856 194.009 73.68 194.745 73.68C195.62 73.68 196.308 73.9253 196.809 74.416C197.31 74.9067 197.561 75.5573 197.561 76.368V82H195.913ZM203.233 85.44C202.209 85.44 201.361 85.2053 200.689 84.736C200.027 84.2773 199.627 83.664 199.489 82.896H201.057C201.163 83.248 201.398 83.5253 201.761 83.728C202.134 83.9307 202.63 84.032 203.249 84.032C204.049 84.032 204.646 83.8347 205.041 83.44C205.435 83.0453 205.633 82.4587 205.633 81.68V79.92L205.777 79.952C205.617 80.5707 205.27 81.0613 204.737 81.424C204.203 81.776 203.563 81.952 202.817 81.952C202.102 81.952 201.473 81.7813 200.929 81.44C200.385 81.0987 199.963 80.624 199.665 80.016C199.366 79.3973 199.217 78.6773 199.217 77.856C199.217 77.024 199.371 76.2933 199.681 75.664C199.99 75.0347 200.422 74.5493 200.977 74.208C201.542 73.8667 202.198 73.696 202.945 73.696C203.713 73.696 204.347 73.8827 204.849 74.256C205.361 74.6187 205.686 75.136 205.825 75.808L205.697 75.824V73.84H207.281V81.664C207.281 82.8373 206.918 83.76 206.193 84.432C205.478 85.104 204.491 85.44 203.233 85.44ZM203.313 80.608C204.027 80.608 204.598 80.3573 205.025 79.856C205.462 79.3547 205.681 78.6667 205.681 77.792C205.681 76.9387 205.462 76.2667 205.025 75.776C204.598 75.2853 204.022 75.04 203.297 75.04C202.571 75.04 201.995 75.2907 201.569 75.792C201.142 76.2827 200.929 76.9653 200.929 77.84C200.929 78.6933 201.142 79.3707 201.569 79.872C202.006 80.3627 202.587 80.608 203.313 80.608ZM209.589 82V80.016H211.557V82H209.589ZM213.199 82V80.016H215.167V82H213.199ZM216.808 82V80.016H218.776V82H216.808ZM220.417 82V80.016H222.385V82H220.417Z" fill="#F6F6F6"/>
</g>
<g filter="url(#filter1_b_89_19856)">
<rect x="32" y="112" width="541" height="48" rx="14" fill="#707070" fill-opacity="0.07"/>
<g clip-path="url(#clip3_89_19856)">
<g clip-path="url(#clip4_89_19856)">
<mask id="mask1_89_19856" style="mask-type:luminance" maskUnits="userSpaceOnUse" x="44" y="124" width="18" height="18">
<path d="M44 124H62V142H44V124Z" fill="white"/>
</mask>
<g mask="url(#mask1_89_19856)">
<path d="M53 127.75C53.0027 127.449 52.945 127.15 52.8302 126.872C52.7153 126.594 52.5458 126.341 52.3316 126.129C52.1174 125.918 51.8629 125.751 51.5832 125.64C51.3034 125.528 51.0041 125.474 50.7031 125.48C50.402 125.487 50.1052 125.553 49.8304 125.676C49.5556 125.799 49.3082 125.976 49.1031 126.197C48.8979 126.417 48.7391 126.677 48.636 126.96C48.5329 127.243 48.4877 127.543 48.503 127.844C48.0623 127.957 47.6532 128.17 47.3066 128.464C46.96 128.759 46.685 129.129 46.5024 129.546C46.3198 129.963 46.2345 130.415 46.2528 130.87C46.271 131.325 46.3925 131.769 46.608 132.17C46.2286 132.478 45.9303 132.875 45.739 133.324C45.5477 133.774 45.4692 134.264 45.5103 134.751C45.5514 135.238 45.7109 135.708 45.9748 136.119C46.2388 136.53 46.5993 136.871 47.025 137.111C46.9733 137.517 47.0054 137.93 47.1192 138.323C47.233 138.717 47.4261 139.083 47.6867 139.399C47.9473 139.715 48.2698 139.974 48.6344 140.16C48.999 140.347 49.3979 140.457 49.8066 140.483C50.2153 140.51 50.6251 140.452 51.0108 140.315C51.3964 140.177 51.7498 139.961 52.049 139.682C52.3483 139.402 52.5871 139.064 52.7509 138.689C52.9146 138.314 52.9997 137.909 53.001 137.499V127.75H53Z" stroke="#5E2626" stroke-width="1.2" stroke-linecap="round" stroke-linejoin="round"/>
<path d="M53 127.75C52.9999 127.451 53.0596 127.154 53.1756 126.878C53.2915 126.602 53.4615 126.352 53.6754 126.142C53.8894 125.932 54.143 125.768 54.4214 125.657C54.6999 125.547 54.9976 125.494 55.297 125.5C55.5964 125.506 55.8916 125.572 56.1652 125.694C56.4388 125.816 56.6854 125.991 56.8904 126.209C57.0954 126.428 57.2547 126.685 57.359 126.965C57.4634 127.246 57.5106 127.545 57.498 127.844C57.9387 127.958 58.3479 128.17 58.6945 128.465C59.0411 128.76 59.316 129.13 59.4985 129.546C59.681 129.963 59.7662 130.416 59.7478 130.871C59.7293 131.326 59.6077 131.77 59.392 132.171C59.7711 132.479 60.0693 132.876 60.2604 133.325C60.4516 133.775 60.5301 134.265 60.489 134.752C60.4479 135.239 60.2885 135.708 60.0246 136.12C59.7608 136.531 59.4005 136.872 58.975 137.112C59.0278 137.519 58.9967 137.932 58.8835 138.327C58.7703 138.721 58.5774 139.088 58.3168 139.404C58.0562 139.721 57.7334 139.981 57.3684 140.168C57.0033 140.355 56.6038 140.466 56.1944 140.492C55.7851 140.519 55.3746 140.461 54.9884 140.323C54.6022 140.185 54.2485 139.969 53.9491 139.688C53.6497 139.408 53.411 139.069 53.2478 138.692C53.0845 138.316 53.0002 137.91 53 137.5V127.75Z" stroke="#5E2626" stroke-width="1.2" stroke-linecap="round" stroke-linejoin="round"/>
<path d="M55.25 133.75C54.6203 133.528 54.0705 133.125 53.67 132.591C53.2695 132.057 53.0363 131.416 53 130.75C52.9636 131.416 52.7305 132.057 52.33 132.591C51.9295 133.125 51.3797 133.528 50.75 133.75M57.2 128.875C57.3814 128.56 57.484 128.207 57.499 127.844M48.5 127.844C48.515 128.207 48.617 128.56 48.798 128.875M46.61 132.172C46.747 132.06 46.8935 131.961 47.048 131.875M58.953 131.875C59.108 131.961 59.255 132.06 59.392 132.172M48.499 137.5C47.9819 137.5 47.4734 137.367 47.023 137.113M58.975 137.113C58.5249 137.367 58.0168 137.5 57.5 137.5" stroke="#5E2626" stroke-width="1.2" stroke-linecap="round" stroke-linejoin="round"/>
</g>
</g>
</g>
<path d="M76.432 142V140.688H79.872C80.5227 140.688 81.0293 140.512 81.392 140.16C81.7653 139.808 81.952 139.328 81.952 138.72C81.952 138.08 81.7547 137.568 81.36 137.184C80.976 136.8 80.448 136.608 79.776 136.608H76.432V135.328H79.616C80.2667 135.328 80.768 135.173 81.12 134.864C81.4827 134.544 81.664 134.091 81.664 133.504C81.664 132.949 81.4933 132.528 81.152 132.24C80.8213 131.941 80.3307 131.792 79.68 131.792H76.432V130.48H79.936C80.9813 130.48 81.8133 130.736 82.432 131.248C83.0507 131.749 83.36 132.437 83.36 133.312C83.36 133.867 83.232 134.357 82.976 134.784C82.7307 135.2 82.3893 135.525 81.952 135.76C81.5147 135.984 81.0187 136.096 80.464 136.096L80.544 135.76C81.1413 135.76 81.6747 135.899 82.144 136.176C82.6133 136.443 82.9867 136.811 83.264 137.28C83.5413 137.749 83.68 138.293 83.68 138.912C83.68 139.52 83.5307 140.059 83.232 140.528C82.944 140.997 82.5333 141.36 82 141.616C81.4667 141.872 80.848 142 80.144 142H76.432ZM75.184 142V130.48H76.88V142H75.184ZM85.4024 142V133.84H86.9864V135.872H87.0664V142H85.4024ZM87.0664 137.744L86.8584 135.808C87.0504 135.115 87.381 134.587 87.8504 134.224C88.3197 133.861 88.8797 133.68 89.5304 133.68C89.7757 133.68 89.9464 133.701 90.0424 133.744V135.312C89.989 135.291 89.9144 135.28 89.8184 135.28C89.7224 135.269 89.605 135.264 89.4664 135.264C88.6664 135.264 88.0637 135.472 87.6584 135.888C87.2637 136.304 87.0664 136.923 87.0664 137.744ZM96.3334 142C96.28 141.797 96.2427 141.573 96.2214 141.328C96.2107 141.083 96.2054 140.784 96.2054 140.432H96.1254V136.544C96.1254 136.021 95.992 135.632 95.7254 135.376C95.4694 135.109 95.0587 134.976 94.4934 134.976C93.9494 134.976 93.512 135.083 93.1814 135.296C92.8614 135.509 92.6747 135.813 92.6214 136.208H91.0374C91.112 135.44 91.4587 134.827 92.0774 134.368C92.696 133.909 93.5227 133.68 94.5574 133.68C95.624 133.68 96.424 133.931 96.9574 134.432C97.4907 134.923 97.7574 135.648 97.7574 136.608V140.432C97.7574 140.677 97.7734 140.928 97.8054 141.184C97.8374 141.44 97.8854 141.712 97.9494 142H96.3334ZM93.5174 142.16C92.6854 142.16 92.024 141.957 91.5334 141.552C91.0427 141.136 90.7974 140.576 90.7974 139.872C90.7974 139.147 91.0534 138.576 91.5654 138.16C92.088 137.733 92.8347 137.445 93.8054 137.296L96.4934 136.864V138.032L94.0614 138.416C93.5174 138.501 93.1067 138.645 92.8294 138.848C92.5627 139.051 92.4294 139.344 92.4294 139.728C92.4294 140.101 92.552 140.384 92.7974 140.576C93.0534 140.757 93.4214 140.848 93.9014 140.848C94.5414 140.848 95.0694 140.693 95.4854 140.384C95.912 140.075 96.1254 139.685 96.1254 139.216L96.3334 140.4C96.1414 140.965 95.8 141.403 95.3094 141.712C94.8187 142.011 94.2214 142.16 93.5174 142.16ZM99.9024 142V133.84H101.566V142H99.9024ZM99.8224 132.24V130.368H101.662V132.24H99.8224ZM103.902 142V133.84H105.486V135.76H105.566V142H103.902ZM109.694 142V136.752C109.694 136.187 109.55 135.765 109.262 135.488C108.985 135.211 108.569 135.072 108.014 135.072C107.534 135.072 107.108 135.179 106.734 135.392C106.372 135.605 106.084 135.899 105.87 136.272C105.668 136.645 105.566 137.088 105.566 137.6L105.358 135.648C105.625 135.04 106.036 134.56 106.59 134.208C107.145 133.856 107.79 133.68 108.526 133.68C109.401 133.68 110.089 133.925 110.59 134.416C111.092 134.907 111.342 135.557 111.342 136.368V142H109.694ZM116.518 142.16C115.452 142.16 114.604 141.925 113.974 141.456C113.345 140.987 112.988 140.325 112.902 139.472H114.438C114.513 139.941 114.726 140.304 115.078 140.56C115.441 140.805 115.932 140.928 116.55 140.928C117.094 140.928 117.51 140.832 117.798 140.64C118.086 140.448 118.23 140.176 118.23 139.824C118.23 139.568 118.145 139.355 117.974 139.184C117.814 139.003 117.494 138.853 117.014 138.736L115.702 138.432C114.881 138.229 114.268 137.931 113.862 137.536C113.468 137.131 113.27 136.635 113.27 136.048C113.27 135.312 113.542 134.736 114.086 134.32C114.641 133.893 115.398 133.68 116.358 133.68C117.308 133.68 118.07 133.893 118.646 134.32C119.233 134.747 119.564 135.344 119.638 136.112H118.102C118.038 135.728 117.852 135.435 117.542 135.232C117.244 135.019 116.833 134.912 116.31 134.912C115.82 134.912 115.441 135.003 115.174 135.184C114.918 135.355 114.79 135.595 114.79 135.904C114.79 136.16 114.886 136.373 115.078 136.544C115.281 136.715 115.612 136.859 116.07 136.976L117.414 137.312C118.193 137.504 118.78 137.819 119.174 138.256C119.569 138.683 119.766 139.2 119.766 139.808C119.766 140.544 119.478 141.12 118.902 141.536C118.337 141.952 117.542 142.16 116.518 142.16ZM124.765 142.16C123.816 142.16 123.117 141.941 122.669 141.504C122.232 141.056 122.013 140.4 122.013 139.536V131.968L123.661 131.344V139.552C123.661 139.979 123.773 140.293 123.997 140.496C124.221 140.699 124.584 140.8 125.085 140.8C125.277 140.8 125.448 140.784 125.597 140.752C125.746 140.72 125.874 140.683 125.981 140.64V141.984C125.864 142.037 125.698 142.08 125.485 142.112C125.272 142.144 125.032 142.16 124.765 142.16ZM120.381 135.168V133.84H125.981V135.168H120.381ZM130.892 142.16C130.06 142.16 129.329 141.979 128.7 141.616C128.071 141.243 127.58 140.736 127.228 140.096C126.876 139.445 126.7 138.709 126.7 137.888C126.7 137.056 126.876 136.325 127.228 135.696C127.591 135.067 128.081 134.576 128.7 134.224C129.329 133.861 130.06 133.68 130.892 133.68C131.735 133.68 132.471 133.861 133.1 134.224C133.729 134.576 134.215 135.067 134.556 135.696C134.908 136.325 135.084 137.056 135.084 137.888C135.084 138.709 134.908 139.445 134.556 140.096C134.215 140.736 133.729 141.243 133.1 141.616C132.471 141.979 131.735 142.16 130.892 142.16ZM130.892 140.8C131.393 140.8 131.825 140.677 132.188 140.432C132.561 140.187 132.855 139.845 133.068 139.408C133.281 138.971 133.388 138.459 133.388 137.872C133.388 136.997 133.153 136.309 132.684 135.808C132.225 135.296 131.628 135.04 130.892 135.04C130.167 135.04 129.569 135.296 129.1 135.808C128.641 136.32 128.412 137.008 128.412 137.872C128.412 138.459 128.513 138.971 128.716 139.408C128.929 139.845 129.223 140.187 129.596 140.432C129.98 140.677 130.412 140.8 130.892 140.8ZM136.793 142V133.84H138.377V135.872H138.457V142H136.793ZM138.457 137.744L138.249 135.808C138.441 135.115 138.772 134.587 139.241 134.224C139.71 133.861 140.27 133.68 140.921 133.68C141.166 133.68 141.337 133.701 141.433 133.744V135.312C141.38 135.291 141.305 135.28 141.209 135.28C141.113 135.269 140.996 135.264 140.857 135.264C140.057 135.264 139.454 135.472 139.049 135.888C138.654 136.304 138.457 136.923 138.457 137.744ZM142.918 142V133.84H144.502V135.76H144.582V142H142.918ZM148.422 142V136.672C148.422 136.117 148.294 135.712 148.038 135.456C147.782 135.2 147.414 135.072 146.934 135.072C146.486 135.072 146.081 135.179 145.718 135.392C145.366 135.595 145.089 135.883 144.886 136.256C144.683 136.619 144.582 137.051 144.582 137.552L144.374 135.648C144.641 135.04 145.041 134.56 145.574 134.208C146.118 133.856 146.726 133.68 147.398 133.68C148.209 133.68 148.854 133.915 149.334 134.384C149.825 134.853 150.07 135.472 150.07 136.24V142H148.422ZM153.926 142V136.672C153.926 136.117 153.793 135.712 153.526 135.456C153.27 135.2 152.902 135.072 152.422 135.072C151.985 135.072 151.585 135.179 151.222 135.392C150.87 135.595 150.587 135.883 150.374 136.256C150.171 136.619 150.07 137.051 150.07 137.552L149.734 135.648C150.011 135.04 150.427 134.56 150.982 134.208C151.547 133.856 152.177 133.68 152.87 133.68C153.691 133.68 154.347 133.92 154.838 134.4C155.329 134.869 155.574 135.499 155.574 136.288V142H153.926ZM157.777 142V133.84H159.441V142H157.777ZM157.697 132.24V130.368H159.537V132.24H157.697ZM161.777 142V133.84H163.361V135.76H163.441V142H161.777ZM167.569 142V136.752C167.569 136.187 167.425 135.765 167.137 135.488C166.86 135.211 166.444 135.072 165.889 135.072C165.409 135.072 164.983 135.179 164.609 135.392C164.247 135.605 163.959 135.899 163.745 136.272C163.543 136.645 163.441 137.088 163.441 137.6L163.233 135.648C163.5 135.04 163.911 134.56 164.465 134.208C165.02 133.856 165.665 133.68 166.401 133.68C167.276 133.68 167.964 133.925 168.465 134.416C168.967 134.907 169.217 135.557 169.217 136.368V142H167.569ZM174.889 145.44C173.865 145.44 173.017 145.205 172.345 144.736C171.684 144.277 171.284 143.664 171.145 142.896H172.713C172.82 143.248 173.054 143.525 173.417 143.728C173.79 143.931 174.286 144.032 174.905 144.032C175.705 144.032 176.302 143.835 176.697 143.44C177.092 143.045 177.289 142.459 177.289 141.68V139.92L177.433 139.952C177.273 140.571 176.926 141.061 176.393 141.424C175.86 141.776 175.22 141.952 174.473 141.952C173.758 141.952 173.129 141.781 172.585 141.44C172.041 141.099 171.62 140.624 171.321 140.016C171.022 139.397 170.873 138.677 170.873 137.856C170.873 137.024 171.028 136.293 171.337 135.664C171.646 135.035 172.078 134.549 172.633 134.208C173.198 133.867 173.854 133.696 174.601 133.696C175.369 133.696 176.004 133.883 176.505 134.256C177.017 134.619 177.342 135.136 177.481 135.808L177.353 135.824V133.84H178.937V141.664C178.937 142.837 178.574 143.76 177.849 144.432C177.134 145.104 176.148 145.44 174.889 145.44ZM174.969 140.608C175.684 140.608 176.254 140.357 176.681 139.856C177.118 139.355 177.337 138.667 177.337 137.792C177.337 136.939 177.118 136.267 176.681 135.776C176.254 135.285 175.678 135.04 174.953 135.04C174.228 135.04 173.652 135.291 173.225 135.792C172.798 136.283 172.585 136.965 172.585 137.84C172.585 138.693 172.798 139.371 173.225 139.872C173.662 140.363 174.244 140.608 174.969 140.608Z" fill="#5E2626"/>
<rect x="32" y="164" width="541" height="48" rx="14" fill="#707070" fill-opacity="0.07"/>
<g clip-path="url(#clip5_89_19856)">
<path d="M57.74 185C59.69 185 60.5 184.25 59.78 181.79C59.293 180.133 57.868 178.708 56.21 178.22C53.75 177.5 53 178.31 53 180.26V182.42C53 184.25 53.75 185 55.25 185H57.74Z" stroke="#5E2626" stroke-width="1.2" stroke-linecap="round" stroke-linejoin="round"/>
<path d="M59.001 187.025C58.6516 188.761 57.6407 190.292 56.1822 191.296C54.7237 192.3 52.9319 192.697 51.186 192.403C48.344 191.945 46.056 189.658 45.591 186.815C45.3007 185.074 45.6963 183.288 46.6948 181.832C47.6934 180.376 49.217 179.364 50.946 179.008" stroke="#5E2626" stroke-width="1.2" stroke-linecap="round" stroke-linejoin="round"/>
</g>
<path d="M80.544 194.16C79.3387 194.16 78.2987 193.92 77.424 193.44C76.5493 192.949 75.872 192.267 75.392 191.392C74.9227 190.517 74.688 189.488 74.688 188.304C74.688 187.131 74.9227 186.096 75.392 185.2C75.872 184.293 76.5333 183.589 77.376 183.088C78.2187 182.576 79.1893 182.32 80.288 182.32C81.1627 182.32 81.952 182.485 82.656 182.816C83.3707 183.136 83.952 183.584 84.4 184.16C84.8587 184.736 85.1307 185.403 85.216 186.16H83.52C83.4133 185.424 83.072 184.843 82.496 184.416C81.92 183.979 81.2 183.76 80.336 183.76C79.5467 183.76 78.8587 183.947 78.272 184.32C77.6853 184.693 77.2267 185.216 76.896 185.888C76.576 186.56 76.416 187.355 76.416 188.272C76.416 189.2 76.5813 190 76.912 190.672C77.2427 191.333 77.7227 191.845 78.352 192.208C78.992 192.56 79.76 192.736 80.656 192.736C81.296 192.736 81.8613 192.645 82.352 192.464C82.8427 192.283 83.2693 192.016 83.632 191.664L85.28 192.288C84.6827 192.907 83.9947 193.376 83.216 193.696C82.4373 194.005 81.5467 194.16 80.544 194.16ZM83.584 192.288V188.752L84.08 189.248H80.64V187.84H85.28V192.288H83.584ZM90.9224 194.16C90.101 194.16 89.3757 193.979 88.7464 193.616C88.1277 193.253 87.6424 192.752 87.2904 192.112C86.9384 191.472 86.7624 190.736 86.7624 189.904C86.7624 189.061 86.933 188.325 87.2744 187.696C87.6264 187.056 88.117 186.56 88.7464 186.208C89.3757 185.856 90.0957 185.68 90.9064 185.68C91.6957 185.68 92.3784 185.851 92.9544 186.192C93.541 186.523 93.989 186.987 94.2984 187.584C94.6184 188.181 94.7784 188.891 94.7784 189.712C94.7784 189.84 94.773 189.963 94.7624 190.08C94.7624 190.187 94.7517 190.299 94.7304 190.416H87.8824V189.168H93.5624L93.1464 189.664C93.1464 188.789 92.949 188.123 92.5544 187.664C92.1597 187.205 91.6104 186.976 90.9064 186.976C90.149 186.976 89.5464 187.237 89.0984 187.76C88.661 188.272 88.4424 188.987 88.4424 189.904C88.4424 190.832 88.661 191.557 89.0984 192.08C89.5464 192.603 90.165 192.864 90.9544 192.864C91.4344 192.864 91.8504 192.768 92.2024 192.576C92.5544 192.373 92.8157 192.08 92.9864 191.696H94.5544C94.2877 192.464 93.8344 193.067 93.1944 193.504C92.565 193.941 91.8077 194.16 90.9224 194.16ZM96.4805 194V185.84H98.0645V187.76H98.1445V194H96.4805ZM102.273 194V188.752C102.273 188.187 102.129 187.765 101.841 187.488C101.563 187.211 101.147 187.072 100.593 187.072C100.113 187.072 99.6858 187.179 99.3125 187.392C98.9498 187.605 98.6618 187.899 98.4485 188.272C98.2458 188.645 98.1445 189.088 98.1445 189.6L97.9365 187.648C98.2032 187.04 98.6138 186.56 99.1685 186.208C99.7232 185.856 100.369 185.68 101.105 185.68C101.979 185.68 102.667 185.925 103.169 186.416C103.67 186.907 103.921 187.557 103.921 188.368V194H102.273ZM109.704 194.16C108.882 194.16 108.157 193.979 107.528 193.616C106.909 193.253 106.424 192.752 106.072 192.112C105.72 191.472 105.544 190.736 105.544 189.904C105.544 189.061 105.714 188.325 106.056 187.696C106.408 187.056 106.898 186.56 107.528 186.208C108.157 185.856 108.877 185.68 109.688 185.68C110.477 185.68 111.16 185.851 111.736 186.192C112.322 186.523 112.77 186.987 113.08 187.584C113.4 188.181 113.56 188.891 113.56 189.712C113.56 189.84 113.554 189.963 113.544 190.08C113.544 190.187 113.533 190.299 113.512 190.416H106.664V189.168H112.344L111.928 189.664C111.928 188.789 111.73 188.123 111.336 187.664C110.941 187.205 110.392 186.976 109.688 186.976C108.93 186.976 108.328 187.237 107.88 187.76C107.442 188.272 107.224 188.987 107.224 189.904C107.224 190.832 107.442 191.557 107.88 192.08C108.328 192.603 108.946 192.864 109.736 192.864C110.216 192.864 110.632 192.768 110.984 192.576C111.336 192.373 111.597 192.08 111.768 191.696H113.336C113.069 192.464 112.616 193.067 111.976 193.504C111.346 193.941 110.589 194.16 109.704 194.16ZM115.262 194V185.84H116.846V187.872H116.926V194H115.262ZM116.926 189.744L116.718 187.808C116.91 187.115 117.24 186.587 117.71 186.224C118.179 185.861 118.739 185.68 119.39 185.68C119.635 185.68 119.806 185.701 119.902 185.744V187.312C119.848 187.291 119.774 187.28 119.678 187.28C119.582 187.269 119.464 187.264 119.326 187.264C118.526 187.264 117.923 187.472 117.518 187.888C117.123 188.304 116.926 188.923 116.926 189.744ZM126.193 194C126.139 193.797 126.102 193.573 126.081 193.328C126.07 193.083 126.065 192.784 126.065 192.432H125.985V188.544C125.985 188.021 125.851 187.632 125.585 187.376C125.329 187.109 124.918 186.976 124.353 186.976C123.809 186.976 123.371 187.083 123.041 187.296C122.721 187.509 122.534 187.813 122.481 188.208H120.897C120.971 187.44 121.318 186.827 121.937 186.368C122.555 185.909 123.382 185.68 124.417 185.68C125.483 185.68 126.283 185.931 126.817 186.432C127.35 186.923 127.617 187.648 127.617 188.608V192.432C127.617 192.677 127.633 192.928 127.665 193.184C127.697 193.44 127.745 193.712 127.809 194H126.193ZM123.377 194.16C122.545 194.16 121.883 193.957 121.393 193.552C120.902 193.136 120.657 192.576 120.657 191.872C120.657 191.147 120.913 190.576 121.425 190.16C121.947 189.733 122.694 189.445 123.665 189.296L126.353 188.864V190.032L123.921 190.416C123.377 190.501 122.966 190.645 122.689 190.848C122.422 191.051 122.289 191.344 122.289 191.728C122.289 192.101 122.411 192.384 122.657 192.576C122.913 192.757 123.281 192.848 123.761 192.848C124.401 192.848 124.929 192.693 125.345 192.384C125.771 192.075 125.985 191.685 125.985 191.216L126.193 192.4C126.001 192.965 125.659 193.403 125.169 193.712C124.678 194.011 124.081 194.16 123.377 194.16ZM133.015 194.16C132.066 194.16 131.367 193.941 130.919 193.504C130.482 193.056 130.263 192.4 130.263 191.536V183.968L131.911 183.344V191.552C131.911 191.979 132.023 192.293 132.247 192.496C132.471 192.699 132.834 192.8 133.335 192.8C133.527 192.8 133.698 192.784 133.847 192.752C133.996 192.72 134.124 192.683 134.231 192.64V193.984C134.114 194.037 133.948 194.08 133.735 194.112C133.522 194.144 133.282 194.16 133.015 194.16ZM128.631 187.168V185.84H134.231V187.168H128.631ZM139.126 194.16C138.304 194.16 137.579 193.979 136.95 193.616C136.331 193.253 135.846 192.752 135.493 192.112C135.141 191.472 134.965 190.736 134.965 189.904C134.965 189.061 135.136 188.325 135.478 187.696C135.83 187.056 136.32 186.56 136.95 186.208C137.579 185.856 138.299 185.68 139.11 185.68C139.899 185.68 140.582 185.851 141.158 186.192C141.744 186.523 142.192 186.987 142.502 187.584C142.822 188.181 142.982 188.891 142.982 189.712C142.982 189.84 142.976 189.963 142.966 190.08C142.966 190.187 142.955 190.299 142.934 190.416H136.086V189.168H141.766L141.35 189.664C141.35 188.789 141.152 188.123 140.758 187.664C140.363 187.205 139.814 186.976 139.11 186.976C138.352 186.976 137.75 187.237 137.302 187.76C136.864 188.272 136.646 188.987 136.646 189.904C136.646 190.832 136.864 191.557 137.302 192.08C137.75 192.603 138.368 192.864 139.158 192.864C139.638 192.864 140.054 192.768 140.406 192.576C140.758 192.373 141.019 192.08 141.19 191.696H142.758C142.491 192.464 142.038 193.067 141.398 193.504C140.768 193.941 140.011 194.16 139.126 194.16ZM147.184 194L151.52 182.48H152.992L148.848 194H147.184ZM156.096 194L151.952 182.48H153.504L157.856 194H156.096ZM149.376 189.408H155.552V190.816H149.376V189.408ZM159.543 194V185.84H161.127V187.76H161.207V194H159.543ZM165.335 194V188.752C165.335 188.187 165.191 187.765 164.903 187.488C164.626 187.211 164.21 187.072 163.655 187.072C163.175 187.072 162.748 187.179 162.375 187.392C162.012 187.605 161.724 187.899 161.511 188.272C161.308 188.645 161.207 189.088 161.207 189.6L160.999 187.648C161.266 187.04 161.676 186.56 162.231 186.208C162.786 185.856 163.431 185.68 164.167 185.68C165.042 185.68 165.73 185.925 166.231 186.416C166.732 186.907 166.983 187.557 166.983 188.368V194H165.335ZM172.159 194.16C171.092 194.16 170.244 193.925 169.615 193.456C168.986 192.987 168.628 192.325 168.543 191.472H170.079C170.154 191.941 170.367 192.304 170.719 192.56C171.082 192.805 171.572 192.928 172.191 192.928C172.735 192.928 173.151 192.832 173.439 192.64C173.727 192.448 173.871 192.176 173.871 191.824C173.871 191.568 173.786 191.355 173.615 191.184C173.455 191.003 173.135 190.853 172.655 190.736L171.343 190.432C170.522 190.229 169.908 189.931 169.503 189.536C169.108 189.131 168.911 188.635 168.911 188.048C168.911 187.312 169.183 186.736 169.727 186.32C170.282 185.893 171.039 185.68 171.999 185.68C172.948 185.68 173.711 185.893 174.287 186.32C174.874 186.747 175.204 187.344 175.279 188.112H173.743C173.679 187.728 173.492 187.435 173.183 187.232C172.884 187.019 172.474 186.912 171.951 186.912C171.46 186.912 171.082 187.003 170.815 187.184C170.559 187.355 170.431 187.595 170.431 187.904C170.431 188.16 170.527 188.373 170.719 188.544C170.922 188.715 171.252 188.859 171.711 188.976L173.055 189.312C173.834 189.504 174.42 189.819 174.815 190.256C175.21 190.683 175.407 191.2 175.407 191.808C175.407 192.544 175.119 193.12 174.543 193.536C173.978 193.952 173.183 194.16 172.159 194.16ZM178.582 194L176.086 185.84H177.798L179.494 192.4H179.254L181.318 185.84H182.758L184.822 192.4H184.598L186.278 185.84H187.91L185.414 194H183.958L181.894 187.552H182.134L180.038 194H178.582ZM192.782 194.16C191.96 194.16 191.235 193.979 190.606 193.616C189.987 193.253 189.502 192.752 189.15 192.112C188.798 191.472 188.622 190.736 188.622 189.904C188.622 189.061 188.792 188.325 189.134 187.696C189.486 187.056 189.976 186.56 190.606 186.208C191.235 185.856 191.955 185.68 192.766 185.68C193.555 185.68 194.238 185.851 194.814 186.192C195.4 186.523 195.848 186.987 196.158 187.584C196.478 188.181 196.638 188.891 196.638 189.712C196.638 189.84 196.632 189.963 196.622 190.08C196.622 190.187 196.611 190.299 196.59 190.416H189.742V189.168H195.422L195.006 189.664C195.006 188.789 194.808 188.123 194.414 187.664C194.019 187.205 193.47 186.976 192.766 186.976C192.008 186.976 191.406 187.237 190.958 187.76C190.52 188.272 190.302 188.987 190.302 189.904C190.302 190.832 190.52 191.557 190.958 192.08C191.406 192.603 192.024 192.864 192.814 192.864C193.294 192.864 193.71 192.768 194.062 192.576C194.414 192.373 194.675 192.08 194.846 191.696H196.414C196.147 192.464 195.694 193.067 195.054 193.504C194.424 193.941 193.667 194.16 192.782 194.16ZM198.34 194V185.84H199.924V187.872H200.004V194H198.34ZM200.004 189.744L199.796 187.808C199.988 187.115 200.319 186.587 200.788 186.224C201.257 185.861 201.817 185.68 202.468 185.68C202.713 185.68 202.884 185.701 202.98 185.744V187.312C202.927 187.291 202.852 187.28 202.756 187.28C202.66 187.269 202.543 187.264 202.404 187.264C201.604 187.264 201.001 187.472 200.596 187.888C200.201 188.304 200.004 188.923 200.004 189.744ZM207.221 194.16C206.155 194.16 205.307 193.925 204.677 193.456C204.048 192.987 203.691 192.325 203.605 191.472H205.141C205.216 191.941 205.429 192.304 205.781 192.56C206.144 192.805 206.635 192.928 207.253 192.928C207.797 192.928 208.213 192.832 208.501 192.64C208.789 192.448 208.933 192.176 208.933 191.824C208.933 191.568 208.848 191.355 208.677 191.184C208.517 191.003 208.197 190.853 207.717 190.736L206.405 190.432C205.584 190.229 204.971 189.931 204.565 189.536C204.171 189.131 203.973 188.635 203.973 188.048C203.973 187.312 204.245 186.736 204.789 186.32C205.344 185.893 206.101 185.68 207.061 185.68C208.011 185.68 208.773 185.893 209.349 186.32C209.936 186.747 210.267 187.344 210.341 188.112H208.805C208.741 187.728 208.555 187.435 208.245 187.232C207.947 187.019 207.536 186.912 207.013 186.912C206.523 186.912 206.144 187.003 205.877 187.184C205.621 187.355 205.493 187.595 205.493 187.904C205.493 188.16 205.589 188.373 205.781 188.544C205.984 188.715 206.315 188.859 206.773 188.976L208.117 189.312C208.896 189.504 209.483 189.819 209.877 190.256C210.272 190.683 210.469 191.2 210.469 191.808C210.469 192.544 210.181 193.12 209.605 193.536C209.04 193.952 208.245 194.16 207.221 194.16Z" fill="#5E2626"/>
<rect x="32" y="216" width="541" height="48" rx="14" fill="#707070" fill-opacity="0.07"/>
<g clip-path="url(#clip6_89_19856)">
<g clip-path="url(#clip7_89_19856)">
<mask id="mask2_89_19856" style="mask-type:luminance" maskUnits="userSpaceOnUse" x="44" y="228" width="18" height="18">
<path d="M44 228H62V246H44V228Z" fill="white"/>
</mask>
<g mask="url(#mask2_89_19856)">
<path d="M47 240C46.175 240 45.5 239.325 45.5 238.5V231C45.5 230.175 46.175 229.5 47 229.5H54.5C55.325 229.5 56 230.175 56 231" stroke="#5E2626" stroke-width="1.2" stroke-linecap="round" stroke-linejoin="round"/>
</g>
</g>
</g>
</g>
</g>
<defs>
<filter id="filter0_bi_89_19856" x="-21.3" y="1.7" width="647.6" height="154.6" filterUnits="userSpaceOnUse" color-interpolation-filters="sRGB">
<feFlood flood-opacity="0" result="BackgroundImageFix"/>
<feGaussianBlur in="BackgroundImageFix" stdDeviation="26.65"/>
<feComposite in2="SourceAlpha" operator="in" result="effect1_backgroundBlur_89_19856"/>
<feBlend mode="normal" in="SourceGraphic" in2="effect1_backgroundBlur_89_19856" result="shape"/>
<feColorMatrix in="SourceAlpha" type="matrix" values="0 0 0 0 0 0 0 0 0 0 0 0 0 0 0 0 0 0 127 0" result="hardAlpha"/>
<feOffset dy="1"/>
<feGaussianBlur stdDeviation="0.5"/>
<feComposite in2="hardAlpha" operator="arithmetic" k2="-1" k3="1"/>
<feColorMatrix type="matrix" values="0 0 0 0 1 0 0 0 0 1 0 0 0 0 1 0 0 0 0.16 0"/>
<feBlend mode="normal" in2="shape" result="effect2_innerShadow_89_19856"/>
</filter>
<filter id="filter1_b_89_19856" x="29" y="109" width="547" height="158" filterUnits="userSpaceOnUse" color-interpolation-filters="sRGB">
<feFlood flood-opacity="0" result="BackgroundImageFix"/>
<feGaussianBlur in="BackgroundImageFix" stdDeviation="1.5"/>
<feComposite in2="SourceAlpha" operator="in" result="effect1_backgroundBlur_89_19856"/>
<feBlend mode="normal" in="SourceGraphic" in2="effect1_backgroundBlur_89_19856" result="shape"/>
</filter>
<linearGradient id="paint0_linear_89_19856" x1="360" y1="-8" x2="321.5" y2="162.5" gradientUnits="userSpaceOnUse">
<stop stop-color="#F00001"/>
<stop offset="1" stop-color="#8A0001" stop-opacity="0"/>
</linearGradient>
<linearGradient id="paint1_linear_89_19856" x1="363.5" y1="78" x2="32" y2="77.5" gradientUnits="userSpaceOnUse">
<stop/>
<stop offset="1" stop-color="#75090A"/>
</linearGradient>
<clipPath id="clip0_89_19856">
<rect y="0.790039" width="360" height="230" rx="14" fill="white"/>
</clipPath>
<clipPath id="clip1_89_19856">
<rect width="18" height="18" fill="white" transform="translate(44 67)"/>
</clipPath>
<clipPath id="clip2_89_19856">
<rect width="18" height="18" fill="white" transform="translate(44 67)"/>
</clipPath>
<clipPath id="clip3_89_19856">
<rect width="18" height="18" fill="white" transform="translate(44 124)"/>
</clipPath>
<clipPath id="clip4_89_19856">
<rect width="18" height="18" fill="white" transform="translate(44 124)"/>
</clipPath>
<clipPath id="clip5_89_19856">
<rect width="18" height="18" fill="white" transform="translate(44 176)"/>
</clipPath>
<clipPath id="clip6_89_19856">
<rect width="18" height="18" fill="white" transform="translate(44 228)"/>
</clipPath>
<clipPath id="clip7_89_19856">
<rect width="18" height="18" fill="white" transform="translate(44 228)"/>
</clipPath>
</defs>
</svg>
