<?xml version="1.0" encoding="UTF-8"?>
<svg version="1.1" xmlns="http://www.w3.org/2000/svg" width="389" height="389">
<path d="M0 0 C0.76699219 0.67675781 1.53398437 1.35351562 2.32421875 2.05078125 C3.55205078 3.08138672 3.55205078 3.08138672 4.8046875 4.1328125 C26.08564453 22.44433367 41.16605346 49.78208592 43.32421875 78.05078125 C44.9687181 115.33490075 35.54182774 144.85756575 10.19921875 172.73828125 C9.35617187 173.65480469 8.513125 174.57132813 7.64453125 175.515625 C5.75140672 177.58403883 3.90170171 179.67484001 2.07421875 181.80078125 C-2.49602239 187.05924694 -7.30018219 192.10384498 -12.0625 197.1875 C-15.28355567 200.62675896 -18.48433264 204.08405944 -21.67578125 207.55078125 C-26.04955073 212.30078896 -30.45129135 217.02376841 -34.86328125 221.73828125 C-40.20319323 227.44870888 -45.47115967 233.216489 -50.67578125 239.05078125 C-55.99145666 244.98165237 -61.34460221 250.87517716 -66.73657227 256.73657227 C-69.19326557 259.41320384 -71.61753763 262.11035226 -73.98828125 264.86328125 C-78.00672692 269.50143902 -82.22905738 273.94925563 -86.42553711 278.42553711 C-89.67263297 281.89274592 -92.89162633 285.37780726 -96.05078125 288.92578125 C-102.78857097 296.43255784 -109.68248587 303.78179239 -116.67578125 311.05078125 C-117.17623962 311.57140137 -117.676698 312.09202148 -118.19232178 312.62841797 C-121.60322741 316.17161144 -125.03405138 319.69425478 -128.48370361 323.19973755 C-129.63287971 324.37116002 -130.77771553 325.54685991 -131.91766357 326.7272644 C-151.29698212 346.76278616 -176.06152594 359.56624807 -204.41015625 360.3515625 C-206.7486203 360.37101124 -209.08726339 360.3745334 -211.42578125 360.36328125 C-212.6571582 360.3576416 -213.88853516 360.35200195 -215.15722656 360.34619141 C-239.51034159 360.02212492 -262.17369436 352.16842301 -280.67578125 336.05078125 C-281.49691406 335.36242187 -282.31804687 334.6740625 -283.1640625 333.96484375 C-304.06376752 315.95794394 -317.77139597 290.33128796 -321.67578125 263.05078125 C-322.56492785 246.30784412 -322.96840439 229.11393275 -317.67578125 213.05078125 C-317.46147461 212.37208984 -317.24716797 211.69339844 -317.02636719 210.99414062 C-310.73259089 191.44404076 -299.35414357 175.82852326 -285.4140625 161 C-283.3303613 158.78226405 -281.3220368 156.50970126 -279.328125 154.2109375 C-275.63515575 149.96941315 -271.79692651 145.87936822 -267.92578125 141.80078125 C-261.44319957 134.94192165 -255.03276982 128.02607874 -248.67578125 121.05078125 C-246.86399917 119.07094982 -245.05169845 117.09161312 -243.23828125 115.11328125 C-242.78598145 114.61973145 -242.33368164 114.12618164 -241.86767578 113.61767578 C-235.45448655 106.62332675 -229.01264809 99.65528859 -222.56640625 92.69140625 C-216.551278 86.18989997 -210.58319196 79.6506357 -204.67578125 73.05078125 C-198.30580536 65.93414152 -191.86641026 58.88661836 -185.37322998 51.88256836 C-184.28470726 50.70789848 -183.19680143 49.53265647 -182.10968018 48.35668945 C-173.49592898 39.04262504 -164.75771326 29.86229947 -155.82666016 20.8515625 C-154.47425176 19.48253014 -153.12724036 18.10814555 -151.78564453 16.72851562 C-112.37353874 -23.7834184 -46.82443396 -39.85881568 0 0 Z M-259.37890625 212.22265625 C-259.889375 212.7434375 -260.39984375 213.26421875 -260.92578125 213.80078125 C-261.4465625 214.31125 -261.96734375 214.82171875 -262.50390625 215.34765625 C-264.05368095 217.25543755 -264.05368095 217.25543755 -263.67578125 221.05078125 C-261.95101214 222.00580283 -261.95101214 222.00580283 -259.67578125 222.05078125 C-256.98834619 219.78004516 -256.98834619 219.78004516 -254.67578125 217.05078125 C-254.01578125 216.39078125 -253.35578125 215.73078125 -252.67578125 215.05078125 C-252.99429895 212.94257328 -252.99429895 212.94257328 -253.67578125 211.05078125 C-257.47112495 210.67288155 -257.47112495 210.67288155 -259.37890625 212.22265625 Z M-269.67578125 235.05078125 C-272.37149392 240.07705029 -272.00677413 245.25291845 -271.98828125 250.80078125 C-272.00439453 251.75210937 -272.02050781 252.7034375 -272.03710938 253.68359375 C-272.04144091 260.00763444 -271.07665625 265.19711553 -268.67578125 271.05078125 C-267.02578125 271.38078125 -265.37578125 271.71078125 -263.67578125 272.05078125 C-262.5167998 268.36058027 -263.17169558 266.1063378 -264.1953125 262.40087891 C-265.11680606 257.89361417 -264.79761489 253.31618027 -264.67578125 248.73828125 C-264.62479088 246.78407519 -264.58271498 244.82961034 -264.55078125 242.875 C-264.52757812 242.01994873 -264.504375 241.16489746 -264.48046875 240.28393555 C-264.52089522 237.76300622 -264.52089522 237.76300622 -266.67578125 235.05078125 C-267.66578125 235.05078125 -268.65578125 235.05078125 -269.67578125 235.05078125 Z M-258.67578125 285.05078125 C-259.807886 287.18157263 -259.807886 287.18157263 -259.67578125 290.05078125 C-257.71821222 292.86224537 -255.4556948 295.05465671 -252.67578125 297.05078125 C-249.87492622 297.64275738 -249.87492622 297.64275738 -247.67578125 297.05078125 C-246.80141707 295.31502476 -246.80141707 295.31502476 -246.67578125 293.05078125 C-248.85556289 289.74074246 -251.25662526 287.08090512 -254.67578125 285.05078125 C-255.99578125 285.05078125 -257.31578125 285.05078125 -258.67578125 285.05078125 Z " fill="#19433D" transform="translate(335.67578125,25.94921875)"/>
<path d="M0 0 C1.76465606 0.40306907 3.53524344 0.78172926 5.3125 1.125 C6.529375 1.41375 7.74625 1.7025 9 2 C9.33 2.66 9.66 3.32 10 4 C11.70845265 4.71808868 13.44343764 5.37333559 15.1875 6 C23.04000509 9.15786899 29.33995782 13.87816981 36 19 C36.71285156 19.5259375 37.42570313 20.051875 38.16015625 20.59375 C43.48147437 24.76353003 47.41990996 30.30905167 51 36 C51 36.66 51 37.32 51 38 C51.66 38 52.32 38 53 38 C54.18802138 40.37604275 55.37582723 42.75218949 56.5625 45.12890625 C57.49580963 46.99298935 58.43308391 48.85509464 59.375 50.71484375 C59.808125 51.57207031 60.24125 52.42929688 60.6875 53.3125 C61.08324219 54.09238281 61.47898437 54.87226562 61.88671875 55.67578125 C69.97112456 72.55375128 69.67821294 93.8356687 67 112 C66.34 112 65.68 112 65 112 C64.896875 113.11890625 64.79375 114.2378125 64.6875 115.390625 C62.94877344 129.11932015 57.15657423 141.74525555 48 152 C47.278125 152.84433594 46.55625 153.68867188 45.8125 154.55859375 C40.97243569 160.09873879 35.76660772 165.25648367 30.54296875 170.4296875 C27.9162573 173.08464316 25.47283308 175.83190824 23.046875 178.66796875 C18.45244467 183.90246285 13.62656258 188.93225256 8.86279297 194.01220703 C5.32793736 197.78426396 1.80326283 201.56583251 -1.72192383 205.34692383 C-4.78209501 208.62805223 -7.84789037 211.90368009 -10.921875 215.171875 C-11.56253906 215.85443359 -12.20320312 216.53699219 -12.86328125 217.24023438 C-14.0933017 218.55047355 -15.32499396 219.85914587 -16.55859375 221.16601562 C-17.38810547 222.05063477 -17.38810547 222.05063477 -18.234375 222.953125 C-18.96479004 223.72897949 -18.96479004 223.72897949 -19.70996094 224.52050781 C-21.21345528 226.18071732 -21.21345528 226.18071732 -23 229 C-26.07367159 227.62001017 -28.27563276 226.01432115 -30.71484375 223.69921875 C-31.40126953 223.05146484 -32.08769531 222.40371094 -32.79492188 221.73632812 C-33.50197266 221.06021484 -34.20902344 220.38410156 -34.9375 219.6875 C-35.64068359 219.02298828 -36.34386719 218.35847656 -37.06835938 217.67382812 C-39.87763446 215.01199391 -42.66456934 212.34093855 -45.37890625 209.58203125 C-47.72906353 207.26689867 -50.1395469 205.0805834 -52.60546875 202.890625 C-58.38508696 197.71842913 -63.85534607 192.25641797 -69.3125 186.75 C-70.2842649 185.77319837 -71.25626932 184.79663497 -72.22851562 183.8203125 C-74.01100277 182.02977472 -75.79183497 180.23765123 -77.5715332 178.44433594 C-81.71661285 174.27216971 -85.87164672 170.17800837 -90.25 166.25 C-96.33196108 160.74467585 -102.11127506 154.95270992 -107.86035156 149.10253906 C-111.82457009 145.08949548 -115.89034844 141.2921829 -120.16503906 137.61230469 C-122.73709202 135.35234757 -125.10766341 132.94998325 -127.5 130.5 C-130.66442922 127.28230866 -133.87004887 124.17246329 -137.3125 121.25 C-140.37220184 118.64335746 -142.88485093 115.85889751 -145.4296875 112.7578125 C-147.19880025 110.7774624 -149.10467054 109.09712585 -151.125 107.375 C-154.12848082 104.79811722 -156.89009678 102.39419214 -159 99 C-158.60584508 95.65647896 -157.30386729 93.87927189 -155.0625 91.4375 C-154.43730469 90.74914062 -153.81210938 90.06078125 -153.16796875 89.3515625 C-152.45253906 88.57554688 -151.73710937 87.79953125 -151 87 C-150.17113281 86.07960938 -149.34226563 85.15921875 -148.48828125 84.2109375 C-141.8317063 76.82800983 -141.8317063 76.82800983 -138.36328125 73.375 C-136.53168593 71.53432238 -134.90106673 69.72994294 -133.3125 67.6875 C-132.549375 66.800625 -131.78625 65.91375 -131 65 C-130.34 65 -129.68 65 -129 65 C-128.7834375 64.45859375 -128.566875 63.9171875 -128.34375 63.359375 C-126.53500003 60.18354656 -124.08276201 57.79271919 -121.5 55.25 C-121.00113281 54.74339844 -120.50226563 54.23679688 -119.98828125 53.71484375 C-116.25341139 50 -116.25341139 50 -114 50 C-113.91105469 49.17242187 -113.91105469 49.17242187 -113.8203125 48.328125 C-112.62960858 44.94879387 -110.45453739 43.21004928 -107.875 40.75 C-104.60084295 37.58107056 -101.38974228 34.41364139 -98.4375 30.9375 C-86.64262315 17.23297642 -73.15187834 6.96200181 -56 1 C-55.4013916 0.78279297 -54.8027832 0.56558594 -54.18603516 0.34179688 C-36.3629487 -5.97301984 -17.83757386 -6.31848665 0 0 Z " fill="#FDFEFD" transform="translate(294,24)"/>
<path d="M0 0 C3.08218479 1.36939058 5.15126286 2.92251744 7.49609375 5.3359375 C8.45805664 6.31433594 8.45805664 6.31433594 9.43945312 7.3125 C10.09880859 7.993125 10.75816406 8.67375 11.4375 9.375 C15.46573086 13.51017504 19.4065195 17.48106583 24 21 C26.47553685 23.35477895 28.73913508 25.658177 30.8125 28.375 C33.26050416 31.31260499 35.95769691 33.63610792 38.859375 36.11328125 C41.62644206 38.5521378 44.18900507 41.16004096 46.75 43.8125 C48.69900425 45.70736524 50.69158068 47.47702555 52.75 49.25 C57.75633163 53.59809173 62.35959089 58.3080204 67 63.0390625 C70.90170094 66.9864865 74.90715036 70.71667015 79.11181641 74.33886719 C81.92657645 76.81515725 84.5605111 79.45241583 87.1875 82.125 C87.68185547 82.62386719 88.17621094 83.12273437 88.68554688 83.63671875 C91.01888492 85.99157639 93.34700722 88.35156644 95.67578125 90.7109375 C98.04603813 93.10863709 98.04603813 93.10863709 101 95.5 C104.75658326 98.63048605 108.09033601 101.8495426 111.125 105.6875 C112.96561073 108.19153669 112.96561073 108.19153669 116 110 C115.54690625 114.72392184 113.78780087 116.62137653 110.375 119.8125 C105.9853861 124.02727864 101.94092575 128.36964516 98 133 C96.79444592 134.39823443 95.5861086 135.79407397 94.375 137.1875 C93.84648437 137.79980469 93.31796875 138.41210938 92.7734375 139.04296875 C90.12702553 141.96334848 87.31059108 144.70506225 84.5078125 147.47436523 C82.941404 149.02326507 81.37693217 150.57410432 79.8125 152.125 C79.27947266 152.64964844 78.74644531 153.17429687 78.19726562 153.71484375 C75.8471966 156.05013246 73.84450115 158.23324828 72 161 C71.34 161 70.68 161 70 161 C70 161.66 70 162.32 70 163 C69.34 163 68.68 163 68 163 C67.76023438 163.56847656 67.52046875 164.13695312 67.2734375 164.72265625 C65.74154841 167.46220023 63.88906571 169.26745695 61.625 171.4375 C59.22775619 173.77376463 57.00688832 175.99123304 54.9375 178.625 C42.64076492 193.69841719 23.10190339 202.80760327 4.06835938 204.82275391 C-11.32624193 206.14197966 -25.85288589 204.56355137 -40 198 C-40.96679688 197.5565625 -41.93359375 197.113125 -42.9296875 196.65625 C-49.78200131 193.37829835 -55.92340368 189.54643891 -62 185 C-62.7528125 184.49855469 -63.505625 183.99710938 -64.28125 183.48046875 C-64.8484375 182.99191406 -65.415625 182.50335938 -66 182 C-66 181.01 -66 180.02 -66 179 C-66.58136719 178.92652344 -67.16273437 178.85304688 -67.76171875 178.77734375 C-72.46107482 177.14528117 -75.13634671 171.86779145 -78 168 C-78.68449219 167.0821875 -79.36898437 166.164375 -80.07421875 165.21875 C-85 158.42456897 -85 158.42456897 -85 155 C-85.66 155 -86.32 155 -87 155 C-91.74151514 129.04867162 -89.33201425 101.29496593 -74 79.10546875 C-69.18679565 72.46224399 -63.95282383 66.63008037 -58 61 C-57.19175781 60.16662109 -57.19175781 60.16662109 -56.3671875 59.31640625 C-55 58 -55 58 -53 57 C-52.608125 56.29875 -52.21625 55.5975 -51.8125 54.875 C-49.38296314 51.02125188 -46.27575462 48.13836094 -43 45 C-40.40958659 42.46982876 -38.03637729 40.0467708 -35.8125 37.1875 C-35.214375 36.465625 -34.61625 35.74375 -34 35 C-33.34 35 -32.68 35 -32 35 C-31.67 34.01 -31.34 33.02 -31 32 C-29.38221315 30.28584678 -27.70496537 28.62746694 -26 27 C-24.96908688 25.98537145 -23.94052739 24.96834719 -22.9140625 23.94921875 C-22.37918213 23.41949463 -21.84430176 22.88977051 -21.29321289 22.34399414 C-16.52084349 17.60514936 -11.85655572 12.85250061 -7.5 7.72265625 C-5.13529634 5.00694189 -2.57666982 2.51382421 0 0 Z M-43.703125 99.171875 C-44.21359375 99.69265625 -44.7240625 100.2134375 -45.25 100.75 C-45.77078125 101.26046875 -46.2915625 101.7709375 -46.828125 102.296875 C-48.3778997 104.2046563 -48.3778997 104.2046563 -48 108 C-46.27523089 108.95502158 -46.27523089 108.95502158 -44 109 C-41.31256494 106.72926391 -41.31256494 106.72926391 -39 104 C-38.34 103.34 -37.68 102.68 -37 102 C-37.3185177 99.89179203 -37.3185177 99.89179203 -38 98 C-41.7953437 97.6221003 -41.7953437 97.6221003 -43.703125 99.171875 Z M-54 122 C-56.69571267 127.02626904 -56.33099288 132.2021372 -56.3125 137.75 C-56.32861328 138.70132813 -56.34472656 139.65265625 -56.36132812 140.6328125 C-56.36565966 146.95685319 -55.400875 152.14633428 -53 158 C-51.35 158.33 -49.7 158.66 -48 159 C-46.84101855 155.30979902 -47.49591433 153.05555655 -48.51953125 149.35009766 C-49.44102481 144.84283292 -49.12183364 140.26539902 -49 135.6875 C-48.94900963 133.73329394 -48.90693373 131.77882909 -48.875 129.82421875 C-48.85179687 128.96916748 -48.82859375 128.11411621 -48.8046875 127.2331543 C-48.84511397 124.71222497 -48.84511397 124.71222497 -51 122 C-51.99 122 -52.98 122 -54 122 Z M-43 172 C-44.13210475 174.13079138 -44.13210475 174.13079138 -44 177 C-42.04243097 179.81146412 -39.77991355 182.00387546 -37 184 C-34.19914497 184.59197613 -34.19914497 184.59197613 -32 184 C-31.12563582 182.26424351 -31.12563582 182.26424351 -31 180 C-33.17978164 176.68996121 -35.58084401 174.03012387 -39 172 C-40.32 172 -41.64 172 -43 172 Z " fill="#53D18F" transform="translate(120,139)"/>
<path d="M0 0 C3.99618399 2.4162973 6.67966868 4.61854182 9.5703125 8.359375 C11.85525387 10.98143886 14.59696621 13.05062953 17.328125 15.19140625 C19.37271986 17.40319928 19.65712103 19.0502324 20 22 C19.01 22.33 18.02 22.66 17 23 C16.32628188 24.32978424 15.66105466 25.66387539 15 27 C13.48485733 28.62870912 11.91584357 30.20804018 10.3125 31.75 C5.41888036 36.54490108 0.82265104 41.4867003 -3.46875 46.828125 C-4.61012343 48.2482059 -5.8002626 49.62887155 -7 51 C-7.66 51 -8.32 51 -9 51 C-9.37898438 51.87205078 -9.37898438 51.87205078 -9.765625 52.76171875 C-11.14378065 55.26071618 -12.68583925 56.84834704 -14.75 58.8125 C-17.92064451 61.89698569 -20.84022957 65.07589761 -23.6875 68.45703125 C-25.36223506 70.42584181 -27.07106902 72.2777402 -29 74 C-29.66 74 -30.32 74 -31 74 C-31.061875 74.556875 -31.12375 75.11375 -31.1875 75.6875 C-32.1100955 78.31334873 -33.48099934 79.57799706 -35.45043945 81.4855957 C-37.18309908 83.17894495 -38.85607775 84.92166503 -40.53125 86.671875 C-56.17141341 102.83074749 -72.79188671 114.07662804 -95 119 C-95.76699219 119.19335938 -96.53398437 119.38671875 -97.32421875 119.5859375 C-123.56323646 123.64628185 -146.78701374 115.48247753 -168.48828125 101.26171875 C-168.98714844 100.84535156 -169.48601562 100.42898438 -170 100 C-170 99.34 -170 98.68 -170 98 C-170.556875 97.773125 -171.11375 97.54625 -171.6875 97.3125 C-184.13200584 90.24940209 -192.8066975 73.61608164 -197.875 60.8125 C-198.17349854 60.06419922 -198.47199707 59.31589844 -198.77954102 58.54492188 C-200.62481236 53.67009254 -201.54125295 49.19325188 -202 44 C-198.81638284 48.18567371 -195.79615746 52.48646704 -192.75976562 56.77929688 C-188.43124065 63.68756789 -188.43124065 63.68756789 -182 68 C-182 68.99 -182 69.98 -182 71 C-181.43925781 71.26039063 -180.87851563 71.52078125 -180.30078125 71.7890625 C-177.75537271 73.1287512 -175.52007731 74.69260566 -173.1875 76.375 C-152.34203874 91.03953961 -128.30955556 95.90370646 -103.30078125 91.75 C-85.50463575 87.70637877 -72.59828608 77.63652064 -60 65 C-59.04753524 64.05792576 -58.09439265 63.11653641 -57.140625 62.17578125 C-56.17707098 61.22136663 -55.21352938 60.26693948 -54.25 59.3125 C-53.75628906 58.82716797 -53.26257813 58.34183594 -52.75390625 57.84179688 C-50.03384724 55.18159783 -50.03384724 55.18159783 -48 52 C-47.34 52 -46.68 52 -46 52 C-46 51.34 -46 50.68 -46 50 C-44.38336857 48.28475705 -42.70428458 46.62817985 -41 45 C-39.98347365 43.99962993 -38.96920144 42.99696489 -37.95703125 41.9921875 C-37.18262695 41.22455078 -37.18262695 41.22455078 -36.39257812 40.44140625 C-35.61043945 39.66603516 -35.61043945 39.66603516 -34.8125 38.875 C-34.27947266 38.35035156 -33.74644531 37.82570313 -33.19726562 37.28515625 C-30.8471966 34.94986754 -28.84450115 32.76675172 -27 30 C-26.34 30 -25.68 30 -25 30 C-24.76667969 29.43796875 -24.53335938 28.8759375 -24.29296875 28.296875 C-22.68062924 25.43265858 -20.6806438 23.52747979 -18.3125 21.25 C-13.9769428 17.00190361 -9.91145229 12.63800704 -6 8 C-5.50371094 7.41992188 -5.00742188 6.83984375 -4.49609375 6.2421875 C-1.98694099 3.2998512 -1.98694099 3.2998512 0 0 Z " fill="#268D66" transform="translate(236,250)"/>
<path d="M0 0 C5.35261223 0.43179368 8.75681317 2.53057328 12.9375 5.6875 C13.5557666 6.14519775 14.1740332 6.60289551 14.81103516 7.07446289 C16.55008658 8.37105959 18.27569561 9.68390046 20 11 C20.72058594 11.53109375 21.44117188 12.0621875 22.18359375 12.609375 C27.49233913 16.77790486 31.42556275 22.3180374 35 28 C35 28.66 35 29.32 35 30 C35.66 30 36.32 30 37 30 C38.18802138 32.37604275 39.37582723 34.75218949 40.5625 37.12890625 C41.49580963 38.99298935 42.43308391 40.85509464 43.375 42.71484375 C43.808125 43.57207031 44.24125 44.42929688 44.6875 45.3125 C45.08324219 46.09238281 45.47898437 46.87226562 45.88671875 47.67578125 C53.97112456 64.55375128 53.67821294 85.8356687 51 104 C50.34 104 49.68 104 49 104 C48.896875 105.11890625 48.79375 106.2378125 48.6875 107.390625 C46.94877344 121.11932015 41.15657423 133.74525555 32 144 C31.278125 144.84433594 30.55625 145.68867188 29.8125 146.55859375 C24.97243569 152.09873879 19.76660772 157.25648367 14.54296875 162.4296875 C11.9162573 165.08464316 9.47283308 167.83190824 7.046875 170.66796875 C2.45244467 175.90246285 -2.37343742 180.93225256 -7.13720703 186.01220703 C-10.67206264 189.78426396 -14.19673717 193.56583251 -17.72192383 197.34692383 C-20.78209501 200.62805223 -23.84789037 203.90368009 -26.921875 207.171875 C-27.56253906 207.85443359 -28.20320313 208.53699219 -28.86328125 209.24023438 C-30.0933017 210.55047355 -31.32499396 211.85914587 -32.55859375 213.16601562 C-33.38810547 214.05063477 -33.38810547 214.05063477 -34.234375 214.953125 C-34.72131836 215.47036133 -35.20826172 215.98759766 -35.70996094 216.52050781 C-37.21345528 218.18071732 -37.21345528 218.18071732 -39 221 C-42.12572294 219.60308695 -44.34391917 217.94792195 -46.8203125 215.59375 C-47.87025391 214.60181641 -47.87025391 214.60181641 -48.94140625 213.58984375 C-49.66199219 212.90019531 -50.38257813 212.21054688 -51.125 211.5 C-51.85332031 210.81035156 -52.58164062 210.12070313 -53.33203125 209.41015625 C-55.91245892 206.96328121 -58.48540107 204.51459893 -61 202 C-60.2575 201.62875 -59.515 201.2575 -58.75 200.875 C-55.846851 199.14956486 -55.846851 199.14956486 -54.16015625 196.21875 C-51.9380463 192.90768563 -49.55289484 190.38907253 -46.6875 187.625 C-41.7209124 182.76997469 -37.02705592 177.76819351 -32.67578125 172.3515625 C-30.21908914 169.29813445 -27.65193613 166.84421175 -24.59375 164.40234375 C-22.08688196 162.19654565 -20.01334235 159.64341734 -17.8515625 157.10546875 C-15.97906311 154.97619202 -14.02216408 152.98702996 -12 151 C-9.40017817 148.44009866 -6.93731602 145.8322046 -4.5625 143.0625 C-0.62204704 138.4955695 3.46775952 133.98763318 8 130 C8.66 130 9.32 130 10 130 C10.0825 129.46375 10.165 128.9275 10.25 128.375 C11.27581271 125.12659309 12.96563894 122.71248141 15 120 C15.66 120 16.32 120 17 120 C17.67561748 118.3369416 18.33933281 116.66905395 19 115 C19.24105469 114.39542969 19.48210937 113.79085937 19.73046875 113.16796875 C21.54327145 108.50253237 22.86806543 103.87602582 24 99 C24.66 99 25.32 99 26 99 C27.77948977 89.33281837 28.47691103 79.81153841 28.5 70 C28.50301117 69.28132751 28.50602234 68.56265503 28.50912476 67.82220459 C28.50468556 50.96680464 24.84407181 35.97762986 17 21 C16.67257812 20.29875 16.34515625 19.5975 16.0078125 18.875 C14.51012525 16.08860513 12.25421874 14.20054687 10 12 C8.66666667 10.33333333 7.33333333 8.66666667 6 7 C5.113125 6.113125 4.22625 5.22625 3.3125 4.3125 C1 2 1 2 0 0 Z " fill="#BACFCD" transform="translate(310,32)"/>
<path d="M0 0 C7.875 0.875 7.875 0.875 9 2 C9.17256456 4.71360626 9.2839746 7.40425572 9.3515625 10.12109375 C9.37471527 10.93618912 9.39786804 11.75128448 9.42172241 12.59107971 C9.46943017 14.31854883 9.51465578 16.04608797 9.55761719 17.77368164 C9.62463205 20.42295411 9.70240506 23.07175942 9.78125 25.72070312 C9.82617176 27.395816 9.87046357 29.07094592 9.9140625 30.74609375 C9.93796051 31.54196396 9.96185852 32.33783417 9.98648071 33.15782166 C10.11487139 38.77025722 10.11487139 38.77025722 9 41 C7.35 41 5.7 41 4 41 C3.34 39.68 2.68 38.36 2 37 C1.01 37 0.02 37 -1 37 C-3.40906156 31.3534644 -3.26372326 26.08413723 -3.1875 20.0625 C-3.18685547 19.09892578 -3.18621094 18.13535156 -3.18554688 17.14257812 C-3.1538761 11.99431804 -2.88199662 7.07324456 -2 2 C-1.34 2 -0.68 2 0 2 C0 1.34 0 0.68 0 0 Z M2 2 C-0.69571267 7.02626904 -0.33099288 12.2021372 -0.3125 17.75 C-0.32861328 18.70132812 -0.34472656 19.65265625 -0.36132812 20.6328125 C-0.36565966 26.95685319 0.599125 32.14633428 3 38 C4.65 38.33 6.3 38.66 8 39 C9.15898145 35.30979902 8.50408567 33.05555655 7.48046875 29.35009766 C6.55897519 24.84283292 6.87816636 20.26539902 7 15.6875 C7.05099037 13.73329394 7.09306627 11.77882909 7.125 9.82421875 C7.14820312 8.96916748 7.17140625 8.11411621 7.1953125 7.2331543 C7.15488603 4.71222497 7.15488603 4.71222497 5 2 C4.01 2 3.02 2 2 2 Z " fill="#8DD7B0" transform="translate(64,259)"/>
<path d="M0 0 C0.99 0.495 0.99 0.495 2 1 C0.33333333 2.66666667 -1.33333333 4.33333333 -3 6 C-3.495 6.556875 -3.99 7.11375 -4.5 7.6875 C-6.45801559 9.40076364 -8.59588423 10.05100693 -11 11 C-11.33 11.66 -11.66 12.32 -12 13 C-13.27875 12.95875 -14.5575 12.9175 -15.875 12.875 C-18.01871492 12.75787127 -18.01871492 12.75787127 -20 13 C-20.66 13.66 -21.32 14.32 -22 15 C-23.93966941 15.25438287 -25.88158113 15.50534477 -27.83203125 15.65625 C-30.06696248 15.91131422 -30.06696248 15.91131422 -32.20849609 17.00927734 C-35.56861717 18.20180588 -38.26983197 18.22669752 -41.83203125 18.1953125 C-43.12431641 18.18886719 -44.41660156 18.18242187 -45.74804688 18.17578125 C-47.1028673 18.15907327 -48.45768501 18.14214342 -49.8125 18.125 C-51.18684251 18.11496003 -52.56119203 18.10583596 -53.93554688 18.09765625 C-57.29054317 18.07411242 -60.64518199 18.04122567 -64 18 C-64.33 17.34 -64.66 16.68 -65 16 C-63.89881836 15.98598145 -63.89881836 15.98598145 -62.77539062 15.97167969 C-42.06112789 15.64708845 -42.06112789 15.64708845 -22 11 C-21.07703125 10.68933594 -20.1540625 10.37867188 -19.203125 10.05859375 C-8.85454667 6.24141008 -8.85454667 6.24141008 0 0 Z " fill="#074638" transform="translate(174,354)"/>
<path d="M0 0 C0.99 0.33 1.98 0.66 3 1 C2.04956626 2.33897583 1.08940853 3.67105427 0.125 5 C-0.40867188 5.7425 -0.94234375 6.485 -1.4921875 7.25 C-1.98976562 7.8275 -2.48734375 8.405 -3 9 C-3.66 9 -4.32 9 -5 9 C-5.226875 9.556875 -5.45375 10.11375 -5.6875 10.6875 C-7.00753188 13.01327046 -8.52255497 14.6117907 -10.4453125 16.44921875 C-12.38999675 18.38901686 -14.18674491 20.43699468 -16 22.5 C-20.37206641 27.43805625 -24.30683613 31.61487554 -30 35 C-30.66 35.99 -31.32 36.98 -32 38 C-32.66 37.34 -33.32 36.68 -34 36 C-33.58637207 35.59160889 -33.17274414 35.18321777 -32.74658203 34.76245117 C-30.87008967 32.9067736 -28.99751551 31.04719006 -27.125 29.1875 C-26.47402344 28.54490234 -25.82304687 27.90230469 -25.15234375 27.24023438 C-24.52714844 26.61826172 -23.90195313 25.99628906 -23.2578125 25.35546875 C-22.6817627 24.78465576 -22.10571289 24.21384277 -21.51220703 23.62573242 C-19.79599002 21.86789832 -19.79599002 21.86789832 -18 19 C-17.34 19 -16.68 19 -16 19 C-15.9071875 18.071875 -15.9071875 18.071875 -15.8125 17.125 C-15.544375 16.42375 -15.27625 15.7225 -15 15 C-14.195625 14.690625 -13.39125 14.38125 -12.5625 14.0625 C-9.7626291 13.25210162 -9.7626291 13.25210162 -8.9375 10.5 C-8.628125 9.675 -8.31875 8.85 -8 8 C-6.68352881 7.30062468 -5.34977849 6.63270867 -4 6 C-2.8499169 4.03327085 -2.8499169 4.03327085 -2 2 C-1.34 1.34 -0.68 0.68 0 0 Z " fill="#09503D" transform="translate(220,309)"/>
<path d="M0 0 C0.66 0 1.32 0 2 0 C4.88849372 6.61487111 7.39520757 12.96360242 9 20 C9.350625 20.845625 9.70125 21.69125 10.0625 22.5625 C12.14771925 27.98407004 12.12148163 33.72292813 12.09765625 39.46484375 C12.0962413 40.14301651 12.09482635 40.82118927 12.09336853 41.51991272 C12.08782745 43.65915578 12.07528653 45.79828925 12.0625 47.9375 C12.05747736 49.39908702 12.0529158 50.86067569 12.04882812 52.32226562 C12.03787745 55.88154526 12.02065445 59.44076191 12 63 C11.01 63.495 11.01 63.495 10 64 C10.00112793 63.11030518 10.00225586 62.22061035 10.00341797 61.30395508 C10.02957566 33.18452201 10.02957566 33.18452201 1.3046875 6.69921875 C0 4 0 4 0 0 Z " fill="#D9E4E2" transform="translate(329,54)"/>
<path d="M0 0 C1.32 0.33 2.64 0.66 4 1 C3.55720703 1.46784912 3.11441406 1.93569824 2.65820312 2.41772461 C-8.08891041 13.73199547 -8.08891041 13.73199547 -18.51953125 25.3359375 C-21.38849574 28.56068387 -21.38849574 28.56068387 -23 30 C-23.66 30 -24.32 30 -25 30 C-25.2475 30.61875 -25.495 31.2375 -25.75 31.875 C-27.20628639 34.35068687 -28.37812506 34.95125002 -31 36 C-30.690625 35.4225 -30.38125 34.845 -30.0625 34.25 C-28.92337255 32.10569509 -28.92337255 32.10569509 -28.67578125 30.01171875 C-27.76995477 27.31518327 -26.60243487 26.87381626 -24.125 25.5625 C-20.52330771 23.49521851 -18.99891742 21.6822163 -17 18 C-16.01 18 -15.02 18 -14 18 C-14 17.34 -14 16.68 -14 16 C-13.34 16 -12.68 16 -12 16 C-11.773125 15.2575 -11.54625 14.515 -11.3125 13.75 C-9.72955766 10.4333589 -7.86811161 9.26780918 -5 7 C-3.19899724 4.73895849 -1.61642752 2.40154946 0 0 Z " fill="#0D553A" transform="translate(111,144)"/>
<path d="M0 0 C2 1 2 1 2 1 Z M-3 1 C-0.525 1.495 -0.525 1.495 2 2 C2.061875 2.78375 2.12375 3.5675 2.1875 4.375 C2.455625 5.24125 2.72375 6.1075 3 7 C5.39068734 8.10636395 5.39068734 8.10636395 8 9 C9.03145371 10.30915279 10.03542166 11.64082143 11 13 C11.99 13.33 12.98 13.66 14 14 C15.5 15.5234375 15.5 15.5234375 17 17.375 C18.50703468 19.21954765 19.95854819 20.96065916 21.6875 22.6015625 C23 24 23 24 23 26 C23.99 26.33 24.98 26.66 26 27 C26.33 28.65 26.66 30.3 27 32 C23.10849141 28.83249301 19.53005944 25.57590437 16 22 C13.7939479 19.76856338 11.58493306 17.54009234 9.375 15.3125 C8.80265625 14.73177734 8.2303125 14.15105469 7.640625 13.55273438 C7.08632812 12.99521484 6.53203125 12.43769531 5.9609375 11.86328125 C5.46384277 11.36094971 4.96674805 10.85861816 4.45458984 10.34106445 C2.83255322 8.77558067 2.83255322 8.77558067 0 7 C0 6.34 0 5.68 0 5 C-0.99 4.67 -1.98 4.34 -3 4 C-3 3.01 -3 2.02 -3 1 Z " fill="#0C5339" transform="translate(195,204)"/>
<path d="M0 0 C3.36720387 1.39332574 4.9859524 2.9789286 7 6 C5.8553125 5.7525 5.8553125 5.7525 4.6875 5.5 C1.96403764 4.90854604 1.96403764 4.90854604 -1 5 C-2.55076166 6.63080944 -2.55076166 6.63080944 -3.9375 8.75 C-6.09768554 11.79682885 -8.35794989 14.35794989 -11 17 C-11.33 17.99 -11.66 18.98 -12 20 C-14.875 21.75 -14.875 21.75 -18 23 C-18.99 22.67 -19.98 22.34 -21 22 C-20.25556641 21.27296875 -20.25556641 21.27296875 -19.49609375 20.53125 C-15.36992221 16.45988529 -11.45393195 12.29325188 -7.67578125 7.8984375 C-5.23731309 5.13597706 -2.63690415 2.57258941 0 0 Z " fill="#56B788" transform="translate(120,139)"/>
<path d="M0 0 C0.66 0 1.32 0 2 0 C0.25 4.875 0.25 4.875 -2 6 C-2.92866164 7.48867276 -3.79705336 9.01554706 -4.625 10.5625 C-5.07101563 11.38878906 -5.51703125 12.21507812 -5.9765625 13.06640625 C-6.48316406 14.02353516 -6.48316406 14.02353516 -7 15 C-7.99 14.67 -8.98 14.34 -10 14 C-10.2475 14.94875 -10.495 15.8975 -10.75 16.875 C-12 20 -12 20 -14.0625 21.25 C-14.701875 21.4975 -15.34125 21.745 -16 22 C-16.33 22.66 -16.66 23.32 -17 24 C-17.66 24 -18.32 24 -19 24 C-19 24.66 -19 25.32 -19 26 C-20.65 26.33 -22.3 26.66 -24 27 C-21.34941879 22.778704 -18.63038718 19.46153196 -15 16 C-10.58397957 11.70046932 -6.40502753 7.27310372 -2.3828125 2.6015625 C-1.61429517 1.71147181 -0.83152881 0.83152881 0 0 Z " fill="#084B3A" transform="translate(247,280)"/>
<path d="M0 0 C0 3.74016583 -0.9341591 4.45276193 -3.375 7.1875 C-4.00148438 7.90292969 -4.62796875 8.61835938 -5.2734375 9.35546875 C-7 11 -7 11 -9 11 C-9.185625 11.680625 -9.37125 12.36125 -9.5625 13.0625 C-11.55619324 17.13656879 -14.49774708 20.13376943 -18 23 C-18.66 23 -19.32 23 -20 23 C-20.33644531 23.82757813 -20.33644531 23.82757813 -20.6796875 24.671875 C-22.40385183 27.71211744 -24.62515822 29.81425673 -27.125 32.25 C-28.03507812 33.14203125 -28.94515625 34.0340625 -29.8828125 34.953125 C-30.58148438 35.62859375 -31.28015625 36.3040625 -32 37 C-32.66 36.67 -33.32 36.34 -34 36 C-33.29488281 35.30390625 -32.58976562 34.6078125 -31.86328125 33.890625 C-28.8905794 30.91687753 -26.03302171 27.84501602 -23.1875 24.75 C-22.66341553 24.18152344 -22.13933105 23.61304688 -21.59936523 23.02734375 C-18.55257916 19.71462405 -15.54079954 16.37465119 -12.5625 13 C-9.81121364 9.88415395 -6.9818511 6.8990219 -4 4 C-3.236875 3.236875 -2.47375 2.47375 -1.6875 1.6875 C-1.130625 1.130625 -0.57375 0.57375 0 0 Z " fill="#CED9D8" transform="translate(313,167)"/>
<path d="M0 0 C1.32 0 2.64 0 4 0 C4 0.66 4 1.32 4 2 C5.32 2 6.64 2 8 2 C8 2.66 8 3.32 8 4 C8.66 4.0825 9.32 4.165 10 4.25 C12.64541806 4.91135452 14.48914711 5.68887271 16.875 6.9375 C20.52665833 8.84663696 24.00768011 10.00192003 28 11 C28 11.66 28 12.32 28 13 C31.96 13.33 35.92 13.66 40 14 C40 14.66 40 15.32 40 16 C28.72144819 15.56369239 19.87678078 12.13099705 10 6.9375 C9.02885254 6.4269104 9.02885254 6.4269104 8.03808594 5.90600586 C4.968966 4.24147392 2.27352347 2.68309203 0 0 Z " fill="#328367" transform="translate(72,353)"/>
<path d="M0 0 C1.45823212 -0.0270043 2.91660675 -0.04639787 4.375 -0.0625 C5.18710938 -0.07410156 5.99921875 -0.08570313 6.8359375 -0.09765625 C9 0 9 0 11 1 C11.25 6.625 11.25 6.625 9 10 C8.01 10.33 7.02 10.66 6 11 C5.01 12.485 5.01 12.485 4 14 C0.9375 14.25 0.9375 14.25 -2 14 C-3 13 -3 13 -3.09765625 10.71484375 C-3.08605469 9.79832031 -3.07445313 8.88179687 -3.0625 7.9375 C-3.05347656 7.01839844 -3.04445313 6.09929687 -3.03515625 5.15234375 C-3.02355469 4.44207031 -3.01195313 3.73179687 -3 3 C-2.01 3 -1.02 3 0 3 C0 2.01 0 1.02 0 0 Z M2.296875 2.171875 C1.78640625 2.69265625 1.2759375 3.2134375 0.75 3.75 C0.22921875 4.26046875 -0.2915625 4.7709375 -0.828125 5.296875 C-2.3778997 7.2046563 -2.3778997 7.2046563 -2 11 C-0.27523089 11.95502158 -0.27523089 11.95502158 2 12 C4.68743506 9.72926391 4.68743506 9.72926391 7 7 C7.66 6.34 8.32 5.68 9 5 C8.6814823 2.89179203 8.6814823 2.89179203 8 1 C4.2046563 0.6221003 4.2046563 0.6221003 2.296875 2.171875 Z " fill="#8DD7B0" transform="translate(74,236)"/>
<path d="M0 0 C0.33 0 0.66 0 1 0 C1.16743288 5.23256222 1.328011 10.46527227 1.48217773 15.69824219 C1.5356202 17.47922457 1.59095129 19.26015131 1.64819336 21.04101562 C1.73004181 23.59753417 1.8051453 26.15417445 1.87890625 28.7109375 C1.90594131 29.50994476 1.93297638 30.30895203 1.96083069 31.13217163 C2.11387171 36.77225659 2.11387171 36.77225659 1 39 C-0.65 39 -2.3 39 -4 39 C-4.66 37.68 -5.32 36.36 -6 35 C-4.02 35.66 -2.04 36.32 0 37 C-0.16242188 35.90816406 -0.32484375 34.81632812 -0.4921875 33.69140625 C-1.14661791 28.4386194 -1.14650546 23.22425994 -1.125 17.9375 C-1.12886719 16.98294922 -1.13273437 16.02839844 -1.13671875 15.04492188 C-1.12964692 9.92137882 -0.88228487 5.0486301 0 0 Z " fill="#7FD0A7" transform="translate(72,261)"/>
<path d="M0 0 C0.66 0.99 1.32 1.98 2 3 C1.57847656 3.38671875 1.15695313 3.7734375 0.72265625 4.171875 C-0.09912109 4.95304688 -0.09912109 4.95304688 -0.9375 5.75 C-1.48277344 6.26046875 -2.02804688 6.7709375 -2.58984375 7.296875 C-4.1796644 9.2169908 -4.43460893 10.60906657 -5 13 C-6.66666667 14.66666667 -8.33333333 16.33333333 -10 18 C-11.26847685 20.58498512 -11.26847685 20.58498512 -12 23 C-12.33 23.66 -12.66 24.32 -13 25 C-13.99 24.67 -14.98 24.34 -16 24 C-14.73074631 18.37392607 -12.74395476 14.75969951 -9.125 10.3125 C-8.69058594 9.75755859 -8.25617187 9.20261719 -7.80859375 8.63085938 C-5.3764607 5.55965233 -2.83147904 2.70636718 0 0 Z " fill="#54B786" transform="translate(57,205)"/>
<path d="M0 0 C0 4.09632497 -1.55398196 5.76067881 -4 9 C-5.66270287 10.33827304 -7.32916181 11.67189785 -9 13 C-10.01866229 14.65532623 -11.01810813 16.32260138 -12 18 C-15.40403533 21.6800382 -19.12072413 24.84244987 -23 28 C-23.66 27.67 -24.32 27.34 -25 27 C-20.78340076 22.19747133 -16.51977138 17.51977138 -12 13 C-11.09647812 11.90211585 -10.20073231 10.79779039 -9.3125 9.6875 C-8.549375 8.800625 -7.78625 7.91375 -7 7 C-6.34 7 -5.68 7 -5 7 C-4.731875 6.401875 -4.46375 5.80375 -4.1875 5.1875 C-3.01506533 3.02775192 -1.80630718 1.64209744 0 0 Z " fill="#BACBC9" transform="translate(170,82)"/>
<path d="M0 0 C0.66 0.33 1.32 0.66 2 1 C0.33333333 2.66666667 -1.33333333 4.33333333 -3 6 C-3.495 6.556875 -3.99 7.11375 -4.5 7.6875 C-6.45801559 9.40076364 -8.59588423 10.05100693 -11 11 C-11.33 11.66 -11.66 12.32 -12 13 C-16.29 13 -20.58 13 -25 13 C-22.40306389 11.26870926 -20.38279973 10.31701029 -17.5 9.25 C-8.09419314 5.70766992 -8.09419314 5.70766992 0 0 Z " fill="#0D4E3B" transform="translate(174,354)"/>
<path d="M0 0 C0.99 0 1.98 0 3 0 C3 0.99 3 1.98 3 3 C3.66 3 4.32 3 5 3 C4.35487798 7.69706822 3.10949169 12.03492195 1.5625 16.5 C1.34529297 17.13808594 1.12808594 17.77617187 0.90429688 18.43359375 C0.27221497 20.28997845 -0.36383389 22.14501096 -1 24 C-1.66869267 25.99932353 -2.33611304 27.99907558 -3 30 C-3.33 30 -3.66 30 -4 30 C-4.1953125 23.9453125 -4.1953125 23.9453125 -4 22 C-3.34 21.34 -2.68 20.68 -2 20 C-1.66073053 17.66752239 -1.32759934 15.33414529 -1 13 C-0.34 12.01 0.32 11.02 1 10 C1.0255089 7.4745777 1.0255089 7.4745777 0.625 4.8125 C0.51414062 3.91144531 0.40328125 3.01039063 0.2890625 2.08203125 C0.19367187 1.39496094 0.09828125 0.70789063 0 0 Z " fill="#0B503B" transform="translate(35,224)"/>
<path d="M0 0 C0.33 0.66 0.66 1.32 1 2 C-1.78554863 8.3752933 -5.78397462 13.2052814 -11.16796875 17.52734375 C-12.90486773 18.92352907 -14.45460395 20.39718985 -16 22 C-16.99 21.67 -17.98 21.34 -19 21 C-17.625 19.5 -17.625 19.5 -16 18 C-15.34 18 -14.68 18 -14 18 C-13.94714844 17.45472656 -13.89429688 16.90945312 -13.83984375 16.34765625 C-12.61695633 12.92925931 -10.14762207 10.87152218 -7.5625 8.4375 C-4.75388959 5.75115945 -2.17161147 3.25741721 0 0 Z " fill="#CEDCDC" transform="translate(194,56)"/>
<path d="M0 0 C0.99 0.33 1.98 0.66 3 1 C3 2.65 3 4.3 3 6 C3.66 6 4.32 6 5 6 C7.61407872 11.36190101 9.49228528 16.03435204 10 22 C10.66 22 11.32 22 12 22 C11.67 23.32 11.34 24.64 11 26 C6.28926445 18.97436691 0 8.77957016 0 0 Z " fill="#2F8063" transform="translate(36,302)"/>
<path d="M0 0 C0.99 0.33 1.98 0.66 3 1 C2.5875 1.37769531 2.175 1.75539062 1.75 2.14453125 C-4.52621239 8.12654619 -10.3456816 15.07921849 -14 23 C-14.66 23 -15.32 23 -16 23 C-16 22.34 -16 21.68 -16 21 C-15.34 21 -14.68 21 -14 21 C-13.86851563 19.67162109 -13.86851563 19.67162109 -13.734375 18.31640625 C-12.90546212 14.57307095 -11.70272963 12.84665864 -9.25 9.9375 C-8.17492188 8.65552734 -8.17492188 8.65552734 -7.078125 7.34765625 C-4.80593021 4.7807595 -2.50018079 2.34391949 0 0 Z " fill="#075539" transform="translate(56,203)"/>
<path d="M0 0 C2.05625912 3.84300855 3.57589479 7.87202532 5.125 11.9375 C5.40214844 12.64068359 5.67929687 13.34386719 5.96484375 14.06835938 C7.40122536 17.84328346 8.36997722 20.89003564 8 25 C7.67 24.01 7.34 23.02 7 22 C6.34 22 5.68 22 5 22 C4.01 19.69 3.02 17.38 2 15 C1.67 15 1.34 15 1 15 C0.15318867 9.91913204 -0.09038099 5.15171623 0 0 Z " fill="#084D3C" transform="translate(34,298)"/>
<path d="M0 0 C0.33 0.66 0.66 1.32 1 2 C-0.32 3.65 -1.64 5.3 -3 7 C-2.67 7.66 -2.34 8.32 -2 9 C-2.99 9 -3.98 9 -5 9 C-5 9.99 -5 10.98 -5 12 C-6.65 12.66 -8.3 13.32 -10 14 C-10 14.66 -10 15.32 -10 16 C-10.66 16 -11.32 16 -12 16 C-12.33 17.32 -12.66 18.64 -13 20 C-13.99 19.67 -14.98 19.34 -16 19 C-12.87531651 13.60281943 -8.71367583 9.5884317 -4.2421875 5.26953125 C-1.87261042 3.01493284 -1.87261042 3.01493284 0 0 Z " fill="#219B69" transform="translate(225,263)"/>
<path d="M0 0 C0.66 0 1.32 0 2 0 C5.69576075 7.95575978 7.92378254 15.30266126 9 24 C9.20619333 25.41697972 9.41412377 26.83370962 9.625 28.25 C9.74875 29.1575 9.8725 30.065 10 31 C7.23954799 28.23954799 6.9469808 25.12888017 6.125 21.4375 C4.8345075 15.90787537 3.3697074 10.86482193 0.734375 5.796875 C0 4 0 4 0 0 Z " fill="#E1EBE7" transform="translate(329,54)"/>
<path d="M0 0 C0.99 0 1.98 0 3 0 C3 0.66 3 1.32 3 2 C3.66 2 4.32 2 5 2 C5 2.66 5 3.32 5 4 C5.99 4 6.98 4 8 4 C8 4.66 8 5.32 8 6 C8.66 6 9.32 6 10 6 C10 7.32 10 8.64 10 10 C10.60199219 10.2475 11.20398438 10.495 11.82421875 10.75 C14.35397631 12.20336161 15.30624044 13.52445559 16.8125 16 C17.25207031 16.70125 17.69164062 17.4025 18.14453125 18.125 C18.42683594 18.74375 18.70914062 19.3625 19 20 C18.67 20.66 18.34 21.32 18 22 C17.608125 21.278125 17.21625 20.55625 16.8125 19.8125 C14.84348157 16.75712658 12.5971611 14.53381571 10 12 C8.66666667 10.33333333 7.33333333 8.66666667 6 7 C5.113125 6.113125 4.22625 5.22625 3.3125 4.3125 C1 2 1 2 0 0 Z " fill="#DFE9E7" transform="translate(310,32)"/>
<path d="M0 0 C0.33 0.66 0.66 1.32 1 2 C0.05988318 3.70116376 -0.94895617 5.36504293 -2 7 C-2.68177416 8.32567199 -3.35191436 9.65753688 -4 11 C-4.33 11.66 -4.66 12.32 -5 13 C-5.61875 13.144375 -6.2375 13.28875 -6.875 13.4375 C-9.36710392 14.09717457 -10.3329446 15.08288629 -12 17 C-12.66 16.67 -13.32 16.34 -14 16 C-12.04266995 13.70746969 -10.08418394 11.41594507 -8.125 9.125 C-7.56941406 8.47402344 -7.01382813 7.82304687 -6.44140625 7.15234375 C-5.90644531 6.52714844 -5.37148438 5.90195313 -4.8203125 5.2578125 C-4.32805176 4.6817627 -3.83579102 4.10571289 -3.32861328 3.51220703 C-2.26399715 2.30047746 -1.14054725 1.14054725 0 0 Z " fill="#31514B" transform="translate(51,186)"/>
<path d="M0 0 C4.7632312 4.51253482 4.7632312 4.51253482 6.0625 7.1875 C7.29185688 9.56425664 8.57694989 9.97203935 11 11 C11.99 11.66 12.98 12.32 14 13 C13.67 13.99 13.34 14.98 13 16 C9.27609713 13.63024363 5.90365801 11.35037463 3 8 C3 7.34 3 6.68 3 6 C2.01 6.33 1.02 6.66 0 7 C-1.33332095 4.3333581 -0.67102033 2.83319697 0 0 Z " fill="#0C4E3C" transform="translate(52,335)"/>
<path d="M0 0 C0.33 0 0.66 0 1 0 C1.98831156 6.53686384 2.11883529 12.89577115 2.0625 19.5 C2.05798828 20.51320313 2.05347656 21.52640625 2.04882812 22.5703125 C2.03714593 25.04693827 2.02076582 27.52343657 2 30 C1.67 30 1.34 30 1 30 C0.93941406 29.00097656 0.87882812 28.00195312 0.81640625 26.97265625 C0.73261719 25.68230469 0.64882813 24.39195313 0.5625 23.0625 C0.48128906 21.77472656 0.40007812 20.48695312 0.31640625 19.16015625 C0.35080812 16.13976043 0.35080812 16.13976043 -1 15 C-1.0991757 12.85605481 -1.1297015 10.70873268 -1.125 8.5625 C-1.12757813 7.38816406 -1.13015625 6.21382813 -1.1328125 5.00390625 C-1 2 -1 2 0 0 Z " fill="#5B6C6B" transform="translate(377,96)"/>
<path d="M0 0 C0.66 0.33 1.32 0.66 2 1 C2 1.99 2 2.98 2 4 C-0.46129034 6.2503226 -2.89722542 7.94290301 -5.8125 9.5625 C-6.534375 10.036875 -7.25625 10.51125 -8 11 C-8 11.99 -8 12.98 -8 14 C-9.98 14.33 -11.96 14.66 -14 15 C-9.59156563 9.70987876 -4.92440206 4.81191572 0 0 Z " fill="#284944" transform="translate(173,54)"/>
<path d="M0 0 C3.69620217 1.94536956 5.25333711 3.25715094 7 7 C7.99 7.33 8.98 7.66 10 8 C8 8.66666667 6 9.33333333 4 10 C3.67 10.33 3.34 10.66 3 11 C2.01 11.495 2.01 11.495 1 12 C0.34 11.34 -0.32 10.68 -1 10 C-0.67 9.01 -0.34 8.02 0 7 C0.66 7 1.32 7 2 7 C2 5.35 2 3.7 2 2 C1.34 2 0.68 2 0 2 C0 1.34 0 0.68 0 0 Z " fill="#1C423C" transform="translate(242,228)"/>
<path d="M0 0 C1.32 0.33 2.64 0.66 4 1 C-0.33333333 5.33333333 -4.66666667 9.66666667 -9 14 C-8.67 11.36 -8.34 8.72 -8 6 C-7.13375 5.9071875 -7.13375 5.9071875 -6.25 5.8125 C-3.11309013 4.67972699 -1.90832496 2.65802405 0 0 Z " fill="#2D4946" transform="translate(299,245)"/>
<path d="M0 0 C6.09455308 1.19892848 11.66200412 2.91944046 17.46875 5.11328125 C20.28897108 6.10122907 23.02944695 6.67885913 26 7 C26 7.66 26 8.32 26 9 C16.50004653 8.76880644 7.46238308 6.04771331 0 0 Z " fill="#064B3B" transform="translate(81,361)"/>
<path d="M0 0 C6.16397997 1.12072363 12.07860893 2.97806159 18 5 C18.33 6.65 18.66 8.3 19 10 C15.54587704 8.66531206 12.2398308 7.1741337 8.9375 5.5 C8.10089844 5.0771875 7.26429688 4.654375 6.40234375 4.21875 C5.60957031 3.8165625 4.81679688 3.414375 4 3 C2.66711803 2.33243137 1.33394891 1.6654341 0 1 C0 0.67 0 0.34 0 0 Z " fill="#385B56" transform="translate(303,27)"/>
<path d="M0 0 C0.66 0 1.32 0 2 0 C1.58109745 4.37293391 -1.32079452 6.52535785 -4.4375 9.25 C-4.94087891 9.70890625 -5.44425781 10.1678125 -5.96289062 10.640625 C-9.72719029 14 -9.72719029 14 -12 14 C-11.67 12.68 -11.34 11.36 -11 10 C-10.01 10 -9.02 10 -8 10 C-8 9.34 -8 8.68 -8 8 C-6.125 5.875 -6.125 5.875 -4 4 C-3.34 4 -2.68 4 -2 4 C-2 3.34 -2 2.68 -2 2 C-1.34 2 -0.68 2 0 2 C0 1.34 0 0.68 0 0 Z " fill="#35876A" transform="translate(188,339)"/>
<path d="M0 0 C0.66 0.33 1.32 0.66 2 1 C1.01 2.485 1.01 2.485 0 4 C-0.66 4 -1.32 4 -2 4 C-2 4.66 -2 5.32 -2 6 C-2.61875 6.12375 -3.2375 6.2475 -3.875 6.375 C-6.19120832 6.87197356 -6.19120832 6.87197356 -8 9 C-11.125 9.125 -11.125 9.125 -14 9 C-9.80022081 5.3421278 -5.12798061 2.20634136 0 0 Z " fill="#45615B" transform="translate(223,13)"/>
<path d="M0 0 C1.91015625 0.1328125 1.91015625 0.1328125 3.91015625 1.1328125 C3.58015625 2.4528125 3.25015625 3.7728125 2.91015625 5.1328125 C2.33265625 4.6378125 1.75515625 4.1428125 1.16015625 3.6328125 C-1.19385004 1.76301237 -1.19385004 1.76301237 -5.08984375 2.1328125 C-4.54260692 5.50743965 -4.03494375 7.2151625 -2.08984375 10.1328125 C-3.73984375 10.1328125 -5.38984375 10.1328125 -7.08984375 10.1328125 C-7.11673591 8.65374358 -7.13618996 7.17453767 -7.15234375 5.6953125 C-7.16394531 4.87160156 -7.17554687 4.04789062 -7.1875 3.19921875 C-6.97682634 -1.25863597 -3.71619953 0.01348893 0 0 Z " fill="#8ED6B2" transform="translate(82.08984375,309.8671875)"/>
<path d="M0 0 C0 0.66 0 1.32 0 2 C-0.90105469 2.38671875 -0.90105469 2.38671875 -1.8203125 2.78125 C-4.18979762 4.1061234 -5.25917067 5.34556089 -6.875 7.5 C-9.56288482 10.79814438 -11.7543936 12.0902272 -16 13 C-5.84615385 0 -5.84615385 0 0 0 Z " fill="#AFC0BD" transform="translate(218,36)"/>
<path d="M0 0 C0 2.33333333 0 4.66666667 0 7 C-2.64738916 8.4606285 -3.89448334 9 -7 9 C-7 10.65 -7 12.3 -7 14 C-7.66 14 -8.32 14 -9 14 C-9.33 13.01 -9.66 12.02 -10 11 C-8.52116808 9.35386588 -7.04192523 7.70810092 -5.5625 6.0625 C-4.73878906 5.14597656 -3.91507813 4.22945312 -3.06640625 3.28515625 C-1 1 -1 1 0 0 Z " fill="#3B5551" transform="translate(62,174)"/>
<path d="M0 0 C-5.39459439 3.08467498 -9.79011871 4.55643705 -16 5 C-15.3046875 3.08203125 -15.3046875 3.08203125 -14 1 C-11.7578125 0.13671875 -11.7578125 0.13671875 -9.125 -0.3125 C-8.26132813 -0.47363281 -7.39765625 -0.63476562 -6.5078125 -0.80078125 C-4.03995616 -0.99682591 -2.33843662 -0.75591323 0 0 Z " fill="#338166" transform="translate(164,361)"/>
<path d="M0 0 C1.32 0.66 2.64 1.32 4 2 C0.5798883 5.84762566 -3.46774256 8.60634022 -8 11 C-8.66 11 -9.32 11 -10 11 C-9.3125 9.0625 -9.3125 9.0625 -8 7 C-5.375 6.25 -5.375 6.25 -3 6 C-3 5.34 -3 4.68 -3 4 C-2.34 4 -1.68 4 -1 4 C-0.67 2.68 -0.34 1.36 0 0 Z " fill="#334D4B" transform="translate(188,361)"/>
<path d="M0 0 C1.32 0 2.64 0 4 0 C2.48446596 3.47775179 0.4226544 5.9557984 -2.125 8.75 C-3.21167969 9.94882812 -3.21167969 9.94882812 -4.3203125 11.171875 C-4.87460938 11.77515625 -5.42890625 12.3784375 -6 13 C-6.61328125 11.140625 -6.61328125 11.140625 -7 9 C-5.1875 6.75 -5.1875 6.75 -3 5 C-2.34 5 -1.68 5 -1 5 C-0.67 3.35 -0.34 1.7 0 0 Z " fill="#2F8164" transform="translate(235,288)"/>
<path d="M0 0 C3.11728368 1.36508501 5.08663738 2.86919698 7.3125 5.4375 C7.84488281 6.03433594 8.37726563 6.63117188 8.92578125 7.24609375 C9.45751953 8.11427734 9.45751953 8.11427734 10 9 C9.67 9.99 9.34 10.98 9 12 C7.0625 11.1875 7.0625 11.1875 5 10 C4.67 9.01 4.34 8.02 4 7 C3.01 6.34 2.02 5.68 1 5 C0.3125 2.375 0.3125 2.375 0 0 Z " fill="#58BF8E" transform="translate(212,227)"/>
<path d="M0 0 C0 4.03066816 -1.67283027 5.78303008 -4 9 C-4.66 9.66 -5.32 10.32 -6 11 C-6.16687448 13.58354218 -6.16687448 13.58354218 -6 16 C-7.5625 14.75 -7.5625 14.75 -9 13 C-8.62458252 9.37607207 -6.90793337 7.4424764 -4.5 4.8125 C-3.8709375 4.11769531 -3.241875 3.42289062 -2.59375 2.70703125 C-1.74091381 1.79357681 -0.88366526 0.88366526 0 0 Z " fill="#B9CAC9" transform="translate(144,110)"/>
<path d="M0 0 C0 0.66 0 1.32 0 2 C3.96 2.33 7.92 2.66 12 3 C12 3.66 12 4.32 12 5 C4.88515313 4.6143354 -1.35441866 3.60900601 -8 1 C-4.84227798 -0.73807388 -3.46421706 -1.23722038 0 0 Z " fill="#2A775E" transform="translate(100,364)"/>
<path d="M0 0 C0.99 1.485 0.99 1.485 2 3 C4.54341217 6.19556914 6.59085819 8.72723879 10 11 C9.67 11.99 9.34 12.98 9 14 C5.47943026 12.04412792 2.43454537 10.24606049 0 7 C-0.25 3.25 -0.25 3.25 0 0 Z " fill="#3D5B57" transform="translate(134,120)"/>
<path d="M0 0 C2.30367627 3.03376444 4.50861299 6.12555825 6.6875 9.25 C7.62142578 10.58804687 7.62142578 10.58804687 8.57421875 11.953125 C9.04472656 12.62859375 9.51523437 13.3040625 10 14 C9.67 14.66 9.34 15.32 9 16 C7.0625 15.3125 7.0625 15.3125 5 14 C4.25 11.375 4.25 11.375 4 9 C3.01 8.67 2.02 8.34 1 8 C0.67 5.36 0.34 2.72 0 0 Z " fill="#2F936A" transform="translate(34,294)"/>
<path d="M0 0 C0.99 0 1.98 0 3 0 C3 3.63 3 7.26 3 11 C3.33 11 3.66 11 4 11 C4.33 13.31 4.66 15.62 5 18 C4.34 17.67 3.68 17.34 3 17 C3 16.01 3 15.02 3 14 C2.34 14 1.68 14 1 14 C0.67 9.38 0.34 4.76 0 0 Z " fill="#57B988" transform="translate(32,280)"/>
<path d="M0 0 C0 4.1216293 -1.52178918 5.7391963 -4 9 C-5.92484267 10.80277948 -7.90866501 12.38396842 -10 14 C-10.66 13.67 -11.32 13.34 -12 13 C-10.38405168 10.95880212 -8.7143618 8.95927063 -7 7 C-6.34 7 -5.68 7 -5 7 C-4.731875 6.401875 -4.46375 5.80375 -4.1875 5.1875 C-3.01506533 3.02775192 -1.80630718 1.64209744 0 0 Z " fill="#B4C7C6" transform="translate(170,82)"/>
<path d="M0 0 C1 3 1 3 0.375 4.875 C-1.43957201 7.67933856 -3.49306695 9.79879049 -6 12 C-6.99 12 -7.98 12 -9 12 C-9 11.01 -9 10.02 -9 9 C-8.34 9 -7.68 9 -7 9 C-7 8.34 -7 7.68 -7 7 C-6.01 7 -5.02 7 -4 7 C-3.71125 6.401875 -3.4225 5.80375 -3.125 5.1875 C-2 3 -2 3 0 0 Z " fill="#318769" transform="translate(205,321)"/>
<path d="M0 0 C5.875 3.75 5.875 3.75 7 6 C4.125 6.625 4.125 6.625 1 7 C-1 5 -1 5 -2 3 C-1.34 2.01 -0.68 1.02 0 0 Z " fill="#334E40" transform="translate(203,190)"/>
<path d="M0 0 C4.17882671 2.56428003 7.12505529 5.01930733 10 9 C7 10 7 10 4.4375 8.8125 C1.93391346 6.95085872 1.00030372 5.90997445 0 3 C0 2.01 0 1.02 0 0 Z " fill="#2F4A47" transform="translate(152,141)"/>
<path d="M0 0 C0.33 0.66 0.66 1.32 1 2 C-1.46051859 8.65787383 -5.91602598 11.00400415 -12 14 C-8 9.33333333 -4 4.66666667 0 0 Z " fill="#455E5B" transform="translate(126,104)"/>
<path d="M0 0 C-2.64 2.64 -5.28 5.28 -8 8 C-9 4 -9 4 -9 1 C-3.375 -1.125 -3.375 -1.125 0 0 Z " fill="#284A46" transform="translate(193,59)"/>
<path d="M0 0 C1.65 0 3.3 0 5 0 C5.33 0.99 5.66 1.98 6 3 C6.66 3 7.32 3 8 3 C8 3.99 8 4.98 8 6 C8.66 6 9.32 6 10 6 C10.33 6.99 10.66 7.98 11 9 C9.0625 8.6875 9.0625 8.6875 7 8 C6.67 7.01 6.34 6.02 6 5 C4.67532254 4.3162955 3.34136367 3.65035814 2 3 C1.34 2.01 0.68 1.02 0 0 Z " fill="#08503C" transform="translate(236,249)"/>
<path d="M0 0 C1.98 0.99 1.98 0.99 4 2 C4 2.66 4 3.32 4 4 C4.5775 4.226875 5.155 4.45375 5.75 4.6875 C8.5663661 6.33038023 10.08077114 8.39533227 12 11 C7.21790196 9.55087938 3.29517963 6.7320046 0 3 C0 2.01 0 1.02 0 0 Z " fill="#065639" transform="translate(136,151)"/>
<path d="M0 0 C0.66 0.33 1.32 0.66 2 1 C0.68 3.64 -0.64 6.28 -2 9 C-3.65 9 -5.3 9 -7 9 C-5.44499019 5.18315774 -2.96404505 2.80804268 0 0 Z " fill="#3C5753" transform="translate(86,148)"/>
<path d="M0 0 C4.14058636 -0.19258541 7.38684234 -0.16789459 11 2 C11.8125 4.625 11.8125 4.625 12 7 C11.01 7.33 10.02 7.66 9 8 C9 6.35 9 4.7 9 3 C6.03 3 3.06 3 0 3 C0 2.01 0 1.02 0 0 Z " fill="#68CF9D" transform="translate(76,234)"/>
<path d="M0 0 C0.66 0.99 1.32 1.98 2 3 C1.46890625 3.45890625 0.9378125 3.9178125 0.390625 4.390625 C-3.18324699 7.49493717 -6.71854059 10.58181312 -10 14 C-10.66 13.67 -11.32 13.34 -12 13 C-11.55269531 12.56429687 -11.10539062 12.12859375 -10.64453125 11.6796875 C-6.85478464 7.94650427 -3.33540417 4.143987 0 0 Z " fill="#345853" transform="translate(314,205)"/>
<path d="M0 0 C0.33 0 0.66 0 1 0 C1.6155267 6.77079371 -0.31994565 12.79870635 -3 19 C-3.66 19.33 -4.32 19.66 -5 20 C-4.67 17.69 -4.34 15.38 -4 13 C-3.34 13 -2.68 13 -2 13 C-1.34 8.71 -0.68 4.42 0 0 Z " fill="#D7E4E2" transform="translate(338,118)"/>
<path d="M0 0 C0.66 0 1.32 0 2 0 C1.67 1.32 1.34 2.64 1 4 C0.34 4 -0.32 4 -1 4 C-1.2475 4.598125 -1.495 5.19625 -1.75 5.8125 C-3.16370012 8.28647521 -4.65055383 9.43370255 -7 11 C-7 7 -7 7 -4.625 4.375 C-3.75875 3.59125 -2.8925 2.8075 -2 2 C-1.34 1.34 -0.68 0.68 0 0 Z " fill="#338269" transform="translate(254,269)"/>
<path d="M0 0 C0.33 0.99 0.66 1.98 1 3 C0.01 4.485 0.01 4.485 -1 6 C-1.33 6.66 -1.66 7.32 -2 8 C-3.64363134 8.72159424 -5.31050386 9.39351421 -7 10 C-6.42424336 6.64749299 -5.40693737 5.06181371 -2.9375 2.75 C-2.38964844 2.22921875 -1.84179688 1.7084375 -1.27734375 1.171875 C-0.64505859 0.59179688 -0.64505859 0.59179688 0 0 Z " fill="#3D5A55" transform="translate(151,77)"/>
<path d="M0 0 C0.99 0.33 1.98 0.66 3 1 C-2.0940919 7.70459519 -2.0940919 7.70459519 -5.875 8.9375 C-6.57625 8.958125 -7.2775 8.97875 -8 9 C-7.34 8.01 -6.68 7.02 -6 6 C-5.34 6 -4.68 6 -4 6 C-3.71125 5.38125 -3.4225 4.7625 -3.125 4.125 C-2 2 -2 2 0 0 Z " fill="#0A5441" transform="translate(220,309)"/>
<path d="M0 0 C3.53600465 1.91135386 5.78972846 3.62642766 8 7 C6.02 7.33 4.04 7.66 2 8 C1.34 5.36 0.68 2.72 0 0 Z " fill="#54BF8D" transform="translate(224,239)"/>
<path d="M0 0 C0.33 0.99 0.66 1.98 1 3 C0.01 3.33 -0.98 3.66 -2 4 C-2.2475 4.5775 -2.495 5.155 -2.75 5.75 C-4.65600261 9.18080471 -7.76233148 10.88772428 -11 13 C-9.46356148 9.31930113 -7.21849055 7.01224796 -4.375 4.25 C-3.55773437 3.45078125 -2.74046875 2.6515625 -1.8984375 1.828125 C-0.95871094 0.92320312 -0.95871094 0.92320312 0 0 Z " fill="#4C6D6A" transform="translate(291,230)"/>
<path d="M0 0 C1.5 1.375 1.5 1.375 3 3 C3 3.66 3 4.32 3 5 C3.99 5.33 4.98 5.66 6 6 C6.33 7.65 6.66 9.3 7 11 C3.12948725 7.92118304 -0.02911382 4.99926986 -3 1 C-2.01 0.67 -1.02 0.34 0 0 Z " fill="#155D43" transform="translate(215,225)"/>
<path d="M0 0 C0 3.74016583 -0.9341591 4.45276193 -3.375 7.1875 C-4.00148438 7.90292969 -4.62796875 8.61835938 -5.2734375 9.35546875 C-7 11 -7 11 -9 11 C-9 11.66 -9 12.32 -9 13 C-9.66 12.67 -10.32 12.34 -11 12 C-3.70159453 3.55353075 -3.70159453 3.55353075 0 0 Z " fill="#D3DFDE" transform="translate(313,167)"/>
<path d="M0 0 C0.66 0.33 1.32 0.66 2 1 C-3.42465753 7.78082192 -3.42465753 7.78082192 -7 10 C-7.66 10 -8.32 10 -9 10 C-6.92280831 5.3662647 -4.06671028 2.94485917 0 0 Z " fill="#348568" transform="translate(219,308)"/>
<path d="M0 0 C4.63720719 3.27530896 8.68542782 6.30435607 12 11 C9.625 10.75 9.625 10.75 7 10 C5.9375 8.0625 5.9375 8.0625 5 6 C4.319375 5.67 3.63875 5.34 2.9375 5 C2.298125 4.67 1.65875 4.34 1 4 C0.37890625 1.9375 0.37890625 1.9375 0 0 Z " fill="#2D7D62" transform="translate(243,257)"/>
<path d="M0 0 C4.95696581 1.23924145 7.11658466 2.78577758 10 7 C9.01 7 8.02 7 7 7 C7 6.34 7 5.68 7 5 C5.35 5 3.7 5 2 5 C1.34 3.35 0.68 1.7 0 0 Z " fill="#08493A" transform="translate(68,352)"/>
<path d="M0 0 C3.04860014 1.01620005 3.86666922 1.77391571 6 4 C6.66 4.33 7.32 4.66 8 5 C7.34 6.32 6.68 7.64 6 9 C0.42857143 3.85714286 0.42857143 3.85714286 0 0 Z " fill="#324E4A" transform="translate(37,341)"/>
<path d="M0 0 C1.14926266 0.95421808 2.29430541 1.91352045 3.4375 2.875 C4.07558594 3.40867188 4.71367187 3.94234375 5.37109375 4.4921875 C7 6 7 6 8 8 C7.01 8.33 6.02 8.66 5 9 C0 4 0 4 -1 2 C-0.67 1.34 -0.34 0.68 0 0 Z " fill="#2B4844" transform="translate(232,218)"/>
<path d="M0 0 C0.75 1.75 0.75 1.75 1 4 C-0.6875 6.3125 -0.6875 6.3125 -3 8 C-5.25 7.75 -5.25 7.75 -7 7 C-4.78071806 4.09197539 -3.07030857 2.04687238 0 0 Z " fill="#50B082" transform="translate(81,180)"/>
<path d="M0 0 C0 1.66666667 0 3.33333333 0 5 C0.99 5 1.98 5 3 5 C3 6.32 3 7.64 3 9 C0.03 8.505 0.03 8.505 -3 8 C-3.75 6.25 -3.75 6.25 -4 4 C-2.0625 1.75 -2.0625 1.75 0 0 Z " fill="#264843" transform="translate(99,134)"/>
<path d="M0 0 C0 4.24170573 -1.83750763 6.75139708 -4.6875 9.8125 C-5.120625 10.204375 -5.55375 10.59625 -6 11 C-6.99 10.67 -7.98 10.34 -9 10 C-7.625 8.5 -7.625 8.5 -6 7 C-5.34 7 -4.68 7 -4 7 C-3.8453125 6.1028125 -3.8453125 6.1028125 -3.6875 5.1875 C-2.91123545 2.71756736 -1.92911079 1.67748765 0 0 Z " fill="#C3D2D1" transform="translate(184,67)"/>
<path d="M0 0 C2 1 2 1 2 1 Z M-3 1 C-0.525 1.495 -0.525 1.495 2 2 C2.33 3.98 2.66 5.96 3 8 C2.01 7.67 1.02 7.34 0 7 C0 6.34 0 5.68 0 5 C-0.99 4.67 -1.98 4.34 -3 4 C-3 3.01 -3 2.02 -3 1 Z " fill="#165540" transform="translate(195,204)"/>
<path d="M0 0 C0 4.0333534 -1.60879918 5.83517538 -4 9 C-4.66 9 -5.32 9 -6 9 C-6.33 9.99 -6.66 10.98 -7 12 C-7.99 11.67 -8.98 11.34 -10 11 C-6.25 7.125 -6.25 7.125 -4 6 C-2.96986723 4.35178756 -1.96885372 2.68496298 -1 1 C-0.67 0.67 -0.34 0.34 0 0 Z " fill="#52B083" transform="translate(71,190)"/>
<path d="M0 0 C6.4 -0.36923077 6.4 -0.36923077 9.4375 1.5 C9.953125 1.995 10.46875 2.49 11 3 C10.67 4.32 10.34 5.64 10 7 C9.2575 6.154375 8.515 5.30875 7.75 4.4375 C6.8425 3.633125 5.935 2.82875 5 2 C2.72476911 2.04497842 2.72476911 2.04497842 1 3 C0.67 2.01 0.34 1.02 0 0 Z " fill="#0A553C" transform="translate(117,138)"/>
<path d="M0 0 C0.99 0 1.98 0 3 0 C3 0.66 3 1.32 3 2 C3.66 2 4.32 2 5 2 C5 2.66 5 3.32 5 4 C5.99 4 6.98 4 8 4 C8 4.66 8 5.32 8 6 C8.66 6 9.32 6 10 6 C9.67 6.99 9.34 7.98 9 9 C4.56620325 6.78310162 2.53363068 4.22271781 0 0 Z " fill="#D6E3E1" transform="translate(310,32)"/>
<path d="M0 0 C0.66 0 1.32 0 2 0 C2 0.66 2 1.32 2 2 C2.928125 2.103125 3.85625 2.20625 4.8125 2.3125 C8.03254358 3.0070192 9.02579865 3.47740939 11 6 C10.01 6.495 10.01 6.495 9 7 C6.6171875 6.00390625 6.6171875 6.00390625 3.875 4.5625 C2.96492188 4.08941406 2.05484375 3.61632812 1.1171875 3.12890625 C0.41851562 2.75636719 -0.28015625 2.38382812 -1 2 C-0.67 1.34 -0.34 0.68 0 0 Z " fill="#314947" transform="translate(73,372)"/>
<path d="M0 0 C1.98 0.99 1.98 0.99 4 2 C4.75 5.625 4.75 5.625 5 9 C4.01 9 3.02 9 2 9 C1.34 6.03 0.68 3.06 0 0 Z " fill="#35504B" transform="translate(16,298)"/>
<path d="M0 0 C0.6875 1.75 0.6875 1.75 1 4 C-0.125 6.1875 -0.125 6.1875 -2 8 C-4.6875 8.75 -4.6875 8.75 -7 9 C-5.7260411 6.96166576 -4.38938077 4.96147874 -3 3 C-2.34 3 -1.68 3 -1 3 C-0.67 2.01 -0.34 1.02 0 0 Z " fill="#54B284" transform="translate(89,171)"/>
<path d="M0 0 C0.33 0 0.66 0 1 0 C1 1.65 1 3.3 1 5 C0.34 5 -0.32 5 -1 5 C-0.67 5.99 -0.34 6.98 0 8 C-2.97 7.505 -2.97 7.505 -6 7 C-5.02433888 5.83040013 -4.044375 4.66438823 -3.0625 3.5 C-2.51722656 2.8503125 -1.97195312 2.200625 -1.41015625 1.53125 C-0.71212891 0.77328125 -0.71212891 0.77328125 0 0 Z " fill="#2B4C47" transform="translate(143,86)"/>
<path d="M0 0 C1.11375 0.1546875 1.11375 0.1546875 2.25 0.3125 C1.25 3.3125 1.25 3.3125 -1.6875 5.0625 C-3.2034375 5.68125 -3.2034375 5.68125 -4.75 6.3125 C-5.41 5.9825 -6.07 5.6525 -6.75 5.3125 C-3.42692308 0.38942308 -3.42692308 0.38942308 0 0 Z " fill="#348566" transform="translate(170.75,353.6875)"/>
<path d="M0 0 C1.65 1.65 3.3 3.3 5 5 C4.01 5.66 3.02 6.32 2 7 C1.67 7.66 1.34 8.32 1 9 C0.08941469 5.92677456 -0.08886184 3.19902639 0 0 Z M-2 8 C-1.34 8 -0.68 8 0 8 C-0.33 8.99 -0.66 9.98 -1 11 C-1.33 10.01 -1.66 9.02 -2 8 Z " fill="#2A4544" transform="translate(227,213)"/>
<path d="M0 0 C0 4.05480631 -1.54870092 5.84832975 -4 9 C-4.99 9 -5.98 9 -7 9 C-5.44499019 5.18315774 -2.96404505 2.80804268 0 0 Z " fill="#4B6561" transform="translate(74,161)"/>
<path d="M0 0 C0.66 0.33 1.32 0.66 2 1 C-1.9050849 4.55007718 -4.97734643 5.81819916 -10 7 C-7.20283196 3.70921407 -3.80471422 1.93694542 0 0 Z " fill="#B4C2C1" transform="translate(228,29)"/>
<path d="M0 0 C0.99 0.33 1.98 0.66 3 1 C1.02 3.97 1.02 3.97 -1 7 C-2.32 6.34 -3.64 5.68 -5 5 C-3.35 3.35 -1.7 1.7 0 0 Z " fill="#1D9666" transform="translate(205,285)"/>
<path d="M0 0 C3.69620217 1.94536956 5.25333711 3.25715094 7 7 C7.99 7.33 8.98 7.66 10 8 C9.01 8.495 9.01 8.495 8 9 C6 7.66666667 4 6.33333333 2 5 C2 4.01 2 3.02 2 2 C1.34 2 0.68 2 0 2 C0 1.34 0 0.68 0 0 Z " fill="#415954" transform="translate(242,228)"/>
<path d="M0 0 C1.32 1.32 2.64 2.64 4 4 C3.67 4.99 3.34 5.98 3 7 C1.68 6.67 0.36 6.34 -1 6 C-0.67 4.02 -0.34 2.04 0 0 Z " fill="#234942" transform="translate(369,153)"/>
<path d="M0 0 C4.875 4.75 4.875 4.75 6 7 C4.35 7 2.7 7 1 7 C1 6.34 1 5.68 1 5 C0.34 4.67 -0.32 4.34 -1 4 C-0.67 2.68 -0.34 1.36 0 0 Z " fill="#3B5752" transform="translate(348,38)"/>
<path d="M0 0 C1.32 0.33 2.64 0.66 4 1 C2.02 3.31 0.04 5.62 -2 8 C-2.33 6.68 -2.66 5.36 -3 4 C-1.5625 2.3125 -1.5625 2.3125 0 1 C0 0.67 0 0.34 0 0 Z " fill="#475D5B" transform="translate(313,229)"/>
<path d="M0 0 C0 4.31618166 -2.13270348 5.92789659 -5 9 C-5.66 9 -6.32 9 -7 9 C-5.44499019 5.18315774 -2.96404505 2.80804268 0 0 Z " fill="#D3DEDC" transform="translate(263,220)"/>
<path d="M0 0 C1.14926266 0.95421808 2.29430541 1.91352045 3.4375 2.875 C4.07558594 3.40867188 4.71367187 3.94234375 5.37109375 4.4921875 C7 6 7 6 8 8 C6.68 7.67 5.36 7.34 4 7 C4 6.34 4 5.68 4 5 C3.01 5 2.02 5 1 5 C0.67 3.35 0.34 1.7 0 0 Z " fill="#5ABC8C" transform="translate(184,200)"/>
<path d="M0 0 C0.33 0.66 0.66 1.32 1 2 C-1.40983607 6.70491803 -1.40983607 6.70491803 -4 8 C-4.66 7.34 -5.32 6.68 -6 6 C-4.02 4.02 -2.04 2.04 0 0 Z " fill="#3C5D58" transform="translate(51,186)"/>
<path d="M0 0 C1.32 0.33 2.64 0.66 4 1 C3.0479279 2.00596297 2.08812654 3.00461563 1.125 4 C0.59132813 4.556875 0.05765625 5.11375 -0.4921875 5.6875 C-2 7 -2 7 -4 7 C-2.79618552 4.50638429 -1.54571278 2.31856917 0 0 Z " fill="#025338" transform="translate(111,144)"/>
<path d="M0 0 C3.08089673 2.77280706 4.68775452 5.06326356 6 9 C5.34 9 4.68 9 4 9 C1.3125 6.1875 1.3125 6.1875 -1 3 C-0.67 2.01 -0.34 1.02 0 0 Z " fill="#33504A" transform="translate(354,45)"/>
<path d="M0 0 C1.6045556 0.14148989 3.20863767 0.28835686 4.8125 0.4375 C5.70582031 0.51871094 6.59914063 0.59992187 7.51953125 0.68359375 C10 1 10 1 13 2 C12.67 2.66 12.34 3.32 12 4 C7.6822542 3.49202991 3.96697886 2.80317221 0 1 C0 0.67 0 0.34 0 0 Z " fill="#485C5A" transform="translate(287,5)"/>
<path d="M0 0 C-1 1.5625 -1 1.5625 -3 3 C-5.76614782 2.96726452 -8.26030547 2.49404328 -11 2 C-7.36576791 -0.32590854 -4.22911669 -0.16265833 0 0 Z " fill="#3F5553" transform="translate(254,5)"/>
<path d="M0 0 C0.78375 0.04125 1.5675 0.0825 2.375 0.125 C1.0625 2.625 1.0625 2.625 -0.625 5.125 C-1.615 5.125 -2.605 5.125 -3.625 5.125 C-3.955 4.135 -4.285 3.145 -4.625 2.125 C-2.625 0.125 -2.625 0.125 0 0 Z " fill="#284242" transform="translate(253.625,295.875)"/>
<path d="M0 0 C0.66 0 1.32 0 2 0 C1.65120368 3.25543229 0.97866739 4.01873107 -1.5625 6.25 C-2.366875 6.8275 -3.17125 7.405 -4 8 C-4 6.68 -4 5.36 -4 4 C-2.68 3.34 -1.36 2.68 0 2 C0 1.34 0 0.68 0 0 Z " fill="#465F5E" transform="translate(327,215)"/>
<path d="M0 0 C2.31 1.98 4.62 3.96 7 6 C6.01 6.33 5.02 6.66 4 7 C2 5.1875 2 5.1875 0 3 C0 2.01 0 1.02 0 0 Z " fill="#2B4A45" transform="translate(220,206)"/>
<path d="M0 0 C1.32 0.33 2.64 0.66 4 1 C4 1.66 4 2.32 4 3 C5.32 3.33 6.64 3.66 8 4 C7.67 5.32 7.34 6.64 7 8 C5.83035398 6.8572081 4.66435444 5.71068285 3.5 4.5625 C2.8503125 3.92441406 2.200625 3.28632813 1.53125 2.62890625 C0 1 0 1 0 0 Z " fill="#10563D" transform="translate(172,187)"/>
<path d="M0 0 C0.33 0.66 0.66 1.32 1 2 C-0.98 4.97 -0.98 4.97 -3 8 C-3.99 7.67 -4.98 7.34 -6 7 C-4.02 4.69 -2.04 2.38 0 0 Z " fill="#52B485" transform="translate(98,162)"/>
<path d="M0 0 C0.33 0.99 0.66 1.98 1 3 C-0.32 4.32 -1.64 5.64 -3 7 C-3.99 6.67 -4.98 6.34 -6 6 C-4.02 4.02 -2.04 2.04 0 0 Z " fill="#B7C8C6" transform="translate(201,49)"/>
<path d="M0 0 C0.66 0.99 1.32 1.98 2 3 C-0.97 5.475 -0.97 5.475 -4 8 C-4.33 7.01 -4.66 6.02 -5 5 C-3.35 3.35 -1.7 1.7 0 0 Z " fill="#224943" transform="translate(204,42)"/>
<path d="M0 0 C4.12751449 0.60698743 7.3321148 2.03810791 11 4 C9.4375 4.75 9.4375 4.75 7 5 C4.49713591 3.86915563 2.32992278 2.47860484 0 1 C0 0.67 0 0.34 0 0 Z " fill="#7B928F" transform="translate(303,27)"/>
<path d="M0 0 C0.66 0.33 1.32 0.66 2 1 C-2.30769231 5.92307692 -2.30769231 5.92307692 -5.8125 6.3125 C-6.8953125 6.1578125 -6.8953125 6.1578125 -8 6 C-5.33333333 4 -2.66666667 2 0 0 Z " fill="#115841" transform="translate(174,354)"/>
<path d="M0 0 C1.485 0.99 1.485 0.99 3 2 C6.12521833 2.16699232 6.12521833 2.16699232 9 2 C9.33 1.34 9.66 0.68 10 0 C9.625 1.9375 9.625 1.9375 9 4 C6.13822943 5.43088528 4.06624227 4.59991697 1 4 C0.67 2.68 0.34 1.36 0 0 Z " fill="#64C798" transform="translate(80,322)"/>
<path d="M0 0 C0.66 0 1.32 0 2 0 C1.3125 2.4375 1.3125 2.4375 0 5 C-2.625 5.8125 -2.625 5.8125 -5 6 C-3.38405168 3.95880212 -1.7143618 1.95927063 0 0 Z " fill="#0A5540" transform="translate(247,280)"/>
<path d="M0 0 C2.1875 0.3125 2.1875 0.3125 4 1 C1.03 3.475 1.03 3.475 -2 6 C-2.33 5.01 -2.66 4.02 -3 3 C-1.75 1.4375 -1.75 1.4375 0 0 Z " fill="#475C5A" transform="translate(299,245)"/>
<path d="M0 0 C0.66 0 1.32 0 2 0 C0.71480435 2.86697492 -0.57129254 4.97607712 -3 7 C-3.66 7 -4.32 7 -5 7 C-4.34 5.35 -3.68 3.7 -3 2 C-2.01 2 -1.02 2 0 2 C0 1.34 0 0.68 0 0 Z " fill="#064F38" transform="translate(97,160)"/>
<path d="M0 0 C0.33 0.99 0.66 1.98 1 3 C0.01 3.33 -0.98 3.66 -2 4 C-2 5.32 -2 6.64 -2 8 C-3.32 7.67 -4.64 7.34 -6 7 C-4.02 4.69 -2.04 2.38 0 0 Z " fill="#415E5C" transform="translate(136,93)"/>
<path d="M0 0 C0.33 0.66 0.66 1.32 1 2 C-1.40983607 6.70491803 -1.40983607 6.70491803 -4 8 C-4.33 7.01 -4.66 6.02 -5 5 C-3.35 3.35 -1.7 1.7 0 0 Z " fill="#3F5A56" transform="translate(198,29)"/>
<path d="M0 0 C0.66 0 1.32 0 2 0 C0.60667426 3.36720387 -0.9789286 4.9859524 -4 7 C-4 5.35 -4 3.7 -4 2 C-2.68 2 -1.36 2 0 2 C0 1.34 0 0.68 0 0 Z " fill="#324A49" transform="translate(197,355)"/>
<path d="M0 0 C1.65 0 3.3 0 5 0 C5.33 0.66 5.66 1.32 6 2 C6.99 2.66 7.98 3.32 9 4 C2.25 3.125 2.25 3.125 0 2 C0 1.34 0 0.68 0 0 Z " fill="#4FBD87" transform="translate(88,338)"/>
<path d="M0 0 C1.65 0 3.3 0 5 0 C5 1.65 5 3.3 5 5 C3.0625 4.1875 3.0625 4.1875 1 3 C0.67 2.01 0.34 1.02 0 0 Z " fill="#074B3C" transform="translate(253,264)"/>
<path d="M0 0 C0.33 0 0.66 0 1 0 C1.36923077 4.55384615 1.36923077 4.55384615 -0.5 6.8125 C-0.995 7.204375 -1.49 7.59625 -2 8 C-2.66 7.67 -3.32 7.34 -4 7 C-2.68 4.69 -1.36 2.38 0 0 Z " fill="#31524D" transform="translate(29,214)"/>
<path d="M0 0 C2.31 1.98 4.62 3.96 7 6 C6.01 6.495 6.01 6.495 5 7 C4.38125 6.525625 3.7625 6.05125 3.125 5.5625 C1.09294454 3.97582559 1.09294454 3.97582559 -1 3 C-0.67 2.01 -0.34 1.02 0 0 Z " fill="#39504B" transform="translate(213,199)"/>
<path d="M0 0 C1 3 1 3 0 6 C-0.99 6.33 -1.98 6.66 -3 7 C-3.33 6.01 -3.66 5.02 -4 4 C-2.68 2.68 -1.36 1.36 0 0 Z " fill="#324F4C" transform="translate(110,122)"/>
<path d="M0 0 C0 2 0 4 0 6 C-1.98 6.33 -3.96 6.66 -6 7 C-4.02 4.69 -2.04 2.38 0 0 Z " fill="#4F6664" transform="translate(165,62)"/>
<path d="M0 0 C0.66 0.33 1.32 0.66 2 1 C1.01 2.485 1.01 2.485 0 4 C-0.66 4 -1.32 4 -2 4 C-2 4.66 -2 5.32 -2 6 C-2.99 6 -3.98 6 -5 6 C-5 5.34 -5 4.68 -5 4 C-4.34 4 -3.68 4 -3 4 C-2.67 3.01 -2.34 2.02 -2 1 C-1.34 0.67 -0.68 0.34 0 0 Z " fill="#34524B" transform="translate(223,13)"/>
<path d="M0 0 C2.31 0.33 4.62 0.66 7 1 C3.81237635 3.12508244 1.73487777 3.5020163 -2 4 C-1.34 2.68 -0.68 1.36 0 0 Z " fill="#405957" transform="translate(150,380)"/>
<path d="M0 0 C2.39763185 2.39763185 2.34280586 3.33273498 2.625 6.625 C2.69976562 7.44226563 2.77453125 8.25953125 2.8515625 9.1015625 C2.90054688 9.72804688 2.94953125 10.35453125 3 11 C2.67 10.01 2.34 9.02 2 8 C1.34 8 0.68 8 0 8 C0 5.36 0 2.72 0 0 Z " fill="#115042" transform="translate(39,312)"/>
<path d="M0 0 C2.64 0.33 5.28 0.66 8 1 C7.67 1.99 7.34 2.98 7 4 C7 3.34 7 2.68 7 2 C4.69 2.33 2.38 2.66 0 3 C0 2.01 0 1.02 0 0 Z " fill="#79D1A3" transform="translate(64,259)"/>
<path d="M0 0 C2.64 0 5.28 0 8 0 C7.4225 0.268125 6.845 0.53625 6.25 0.8125 C3.9674132 2.01719859 2.0262058 3.40798115 0 5 C0 3.35 0 1.7 0 0 Z " fill="#9EE2C0" transform="translate(74,236)"/>
<path d="M0 0 C0.99 0.33 1.98 0.66 3 1 C1.824375 1.928125 1.824375 1.928125 0.625 2.875 C-1.96837647 4.89858661 -1.96837647 4.89858661 -4 7 C-4 5.68 -4 4.36 -4 3 C-2.1875 1.1875 -2.1875 1.1875 0 0 Z " fill="#0C5F41" transform="translate(91,167)"/>
<path d="M0 0 C0.99 0 1.98 0 3 0 C1.95125002 2.62187494 1.35068687 3.79371361 -1.125 5.25 C-1.74375 5.4975 -2.3625 5.745 -3 6 C-1.125 1.125 -1.125 1.125 0 0 Z " fill="#D5E2E2" transform="translate(157,96)"/>
</svg>
